<svg xmlns="http://www.w3.org/2000/svg" viewBox="0 0 192.4 170.45"><defs><style>.cls-1{fill:#2b4449;}.cls-2{fill:#c45f43;}.cls-3{fill:#60a2a2;}.cls-4{fill:#e0dbc0;}.cls-5{fill:#e22b00;}.cls-6{fill:#102123;}</style></defs><title>objetivos</title><g id="Capa_2" data-name="Capa 2"><g id="Capa_2-2" data-name="Capa 2"><ellipse class="cls-1" cx="84.02" cy="82.54" rx="84.02" ry="82.54"/><path class="cls-1" d="M53.09,170.39l-7.19-1.17c-1.48-.24-2.36-1.14-1.94-2l29.82-61.95c.41-.86,2-1.37,3.45-1.13l7.19,1.17c1.48.24,2.36,1.14,1.94,2L56.55,169.26C56.13,170.12,54.58,170.63,53.09,170.39Z"/><path class="cls-1" d="M118.33,170.39l7.2-1.17c1.48-.24,2.35-1.14,1.94-2L97.65,105.27c-.41-.86-2-1.37-3.45-1.13L87,105.31c-1.49.24-2.36,1.14-2,2l29.82,61.95C115.3,170.12,116.85,170.63,118.33,170.39Z"/><ellipse class="cls-2" cx="84.61" cy="79.06" rx="61.66" ry="60.57"/><ellipse class="cls-3" cx="84.61" cy="79.06" rx="40.69" ry="39.98"/><ellipse class="cls-4" cx="84.61" cy="79.06" rx="22.63" ry="22.23"/><ellipse class="cls-5" cx="84.61" cy="79.06" rx="12.4" ry="12.18"/><polygon class="cls-6" points="155.98 46.3 157.56 49.42 192.4 32.38 181.1 31.81 187.45 22.6 152.61 39.64 154.19 42.77 97.97 70.3 96.38 67.17 84.02 79.33 101.34 76.96 99.76 73.83 155.98 46.3"/></g></g></svg>