<svg xmlns="http://www.w3.org/2000/svg" viewBox="0 0 213.47 213.47"><defs><style>.cls-1{fill:#ebcb42;}.cls-2{fill:#e0dbc0;}.cls-3{fill:#433930;}.cls-4{fill:#c45f43;}.cls-5{fill:#037c75;}.cls-6{fill:#1d1711;}</style></defs><title>puntualidad</title><g id="Capa_2" data-name="Capa 2"><g id="Capa_2-2" data-name="Capa 2"><circle class="cls-1" cx="106.74" cy="106.74" r="106.74"/><circle class="cls-2" cx="73.43" cy="123.66" r="60.95"/><path class="cls-3" d="M73.43,187.57a63.9,63.9,0,1,1,45.19-18.72A63.49,63.49,0,0,1,73.43,187.57Zm0-121.91a58,58,0,1,0,41,17A57.59,57.59,0,0,0,73.43,65.66Z"/><polygon class="cls-4" points="74.65 73.96 67.07 121.37 79.56 122.21 74.65 73.96"/><polygon class="cls-4" points="75.77 167.53 79.47 120.49 67.45 120.86 75.77 167.53"/><circle class="cls-5" cx="73.7" cy="121.18" r="7.93"/><circle class="cls-3" cx="73.7" cy="121.18" r="4.74"/><rect class="cls-6" x="69.41" y="52.2" width="8.04" height="9.71" rx="2.84"/><path class="cls-4" d="M74.61,64.86H72.24a5.8,5.8,0,0,1-5.79-5.79V55a5.8,5.8,0,0,1,5.79-5.79h2.37A5.8,5.8,0,0,1,80.4,55v4A5.8,5.8,0,0,1,74.61,64.86ZM72.36,59h2.13v-3.8H72.36Z"/><circle class="cls-2" cx="73.43" cy="43.17" r="13.36"/><path class="cls-3" d="M73.43,59.48A16.31,16.31,0,1,1,89.74,43.17,16.33,16.33,0,0,1,73.43,59.48Zm0-26.71a10.4,10.4,0,1,0,10.4,10.4A10.4,10.4,0,0,0,73.43,32.77Z"/><rect class="cls-4" x="72.44" y="62.29" width="2.73" height="12.57"/><rect class="cls-4" x="72.6" y="172.07" width="2.73" height="12.57"/><rect class="cls-4" x="127.77" y="117.91" width="2.73" height="12.57" transform="translate(4.94 253.32) rotate(-90)"/><rect class="cls-4" x="18.76" y="116.15" width="2.73" height="12.57" transform="translate(-102.31 142.56) rotate(-90)"/><circle class="cls-2" cx="154.12" cy="93.02" r="51.14"/><path class="cls-3" d="M154.12,147.11a54.08,54.08,0,1,1,38.25-15.84A53.73,53.73,0,0,1,154.12,147.11Zm0-102.27A48.18,48.18,0,1,0,202.3,93,48.23,48.23,0,0,0,154.12,44.84Z"/><rect class="cls-3" x="152.93" y="69.31" width="2.26" height="24.53"/><polygon class="cls-3" points="154.06 64.16 149.14 72.34 159.1 72.34 154.06 64.16"/><rect class="cls-3" x="153.64" y="97.73" width="2.03" height="30.06" transform="translate(309.98 224.58) rotate(179.65)"/><circle class="cls-3" cx="154.12" cy="95.23" r="5.36"/><circle class="cls-1" cx="154.12" cy="95.23" r="3.21"/><polygon class="cls-3" points="154.75 132.01 159.2 123.56 149.26 124.12 154.75 132.01"/><rect class="cls-4" x="152.95" y="45.73" width="2.08" height="9.6"/><rect class="cls-4" x="153.08" y="129.59" width="2.08" height="9.6"/><rect class="cls-4" x="195.22" y="88.22" width="2.08" height="9.6" transform="translate(103.24 289.28) rotate(-90)"/><rect class="cls-4" x="111.96" y="86.88" width="2.08" height="9.6" transform="translate(21.32 204.68) rotate(-90)"/></g></g></svg>