<svg xmlns="http://www.w3.org/2000/svg" viewBox="0 0 179.41 97.48"><title>Logotipo</title><g id="Capa_2" data-name="Capa 2"><g id="PRUEBAS"><path d="M8.85,57.35Q0,48.86,0,32.91T8.9,8.48Q17.8,0,33.84,0A54.14,54.14,0,0,1,46.27,1.34a28.4,28.4,0,0,1,9.36,3.85,1.82,1.82,0,0,1,1,1.49A3.53,3.53,0,0,1,56.19,8l-3.53,5.94q-.64,1-1.29,1a3.75,3.75,0,0,1-1.49-.56A29,29,0,0,0,35.79,11q-9.64,0-15.11,5.47T15.21,32.91q0,11,5.1,16.42T34.68,54.7a36.61,36.61,0,0,0,5.84-.46,17.4,17.4,0,0,0,4.63-1.3V38.66H35.05A4.13,4.13,0,0,1,32,37.78a4.3,4.3,0,0,1-.84-3V31.43A4.16,4.16,0,0,1,32,28.51a4.13,4.13,0,0,1,3.06-.88H54.7a4.75,4.75,0,0,1,3.67,1.2,5.5,5.5,0,0,1,1.06,3.71V56.09a6,6,0,0,1-.37,2.41,3.89,3.89,0,0,1-1.48,1.58q-9,5.74-23.74,5.75Q17.71,65.83,8.85,57.35Z"/><path d="M82,64.3A31.68,31.68,0,0,1,71.3,60c-.93-.68-1.39-1.3-1.39-1.86a2.5,2.5,0,0,1,.46-1.29l3.8-6c.37-.62.77-.93,1.21-.93a2.74,2.74,0,0,1,1.39.56,33.4,33.4,0,0,0,7.88,3.15,34.4,34.4,0,0,0,9,1.21c3.59,0,6.25-.58,8-1.72a6,6,0,0,0,2.59-5.42A6.33,6.33,0,0,0,103,43.58a10.51,10.51,0,0,0-3.71-2.78c-1.64-.81-4.15-1.86-7.55-3.16A72,72,0,0,1,81.64,33.1a20.7,20.7,0,0,1-6.77-6,14.89,14.89,0,0,1-2.64-8.95q0-8.81,6.39-13.49T95.5,0q13.81,0,21.14,5.19c.92.74,1.39,1.36,1.39,1.86a2.52,2.52,0,0,1-.47,1.29l-3.8,6q-.56.93-1.2.93a2.7,2.7,0,0,1-1.39-.56A24.52,24.52,0,0,0,97.44,11q-10,0-10,7.24a6.38,6.38,0,0,0,1.16,3.94,9.32,9.32,0,0,0,3.2,2.59,67.32,67.32,0,0,0,6.4,2.74l2.59,1a73.19,73.19,0,0,1,10.67,5.05,17.59,17.59,0,0,1,6,5.79,16.78,16.78,0,0,1,2.08,8.81,15.47,15.47,0,0,1-6.07,12.84q-6.07,4.78-17.57,4.78A61.46,61.46,0,0,1,82,64.3Z"/><path d="M145.8,63.46a4.08,4.08,0,0,1-1-3V12.7h-15.2a4.13,4.13,0,0,1-3.06-.88,4.32,4.32,0,0,1-.84-3V5.38a4.51,4.51,0,0,1,.84-3.06,4,4,0,0,1,3.06-.93h45.8a4.2,4.2,0,0,1,3.11.93,4.4,4.4,0,0,1,.88,3.06V8.81a4.2,4.2,0,0,1-.88,3,4.2,4.2,0,0,1-3.11.93H160.21V60.45a4.08,4.08,0,0,1-1,3,4.56,4.56,0,0,1-3.29,1h-6.86A4.54,4.54,0,0,1,145.8,63.46Z"/><path d="M44.48,95.67a5,5,0,0,1-1.82,1.22,7.67,7.67,0,0,1-3.23.59,5.86,5.86,0,0,1-4.64-2A7.88,7.88,0,0,1,33,90.07v-.31a7.68,7.68,0,0,1,1.78-5.27,6,6,0,0,1,4.69-2,7.14,7.14,0,0,1,2.9.55,5.29,5.29,0,0,1,2.06,1.5V87h-.93l-.21-2.13a4.19,4.19,0,0,0-1.54-1,5.71,5.71,0,0,0-2.19-.38,4.8,4.8,0,0,0-3.92,1.74,6.85,6.85,0,0,0-1.44,4.51v.33a7.19,7.19,0,0,0,1.41,4.62,4.6,4.6,0,0,0,3.81,1.78,7.22,7.22,0,0,0,2.43-.37,4,4,0,0,0,1.43-.79V91.77l-2.81,0v-1h4Z"/><path d="M57.87,90.2h-6v6.06h6.89l.09-2.19h1.07v3.2H49.06v-.88l1.63-.13V83.7l-1.63-.13v-.9H59.89v3.21H58.82l-.09-2.18H51.89v5.48h6Z"/><path d="M74.31,87h-1l-.17-2.06a3.53,3.53,0,0,0-1.48-1.07,5.62,5.62,0,0,0-2.18-.38,4.49,4.49,0,0,0-2.81.78,2.35,2.35,0,0,0-1,1.94,2.26,2.26,0,0,0,.91,1.84,8.37,8.37,0,0,0,3.14,1.3A9.12,9.12,0,0,1,73.31,91a3.36,3.36,0,0,1,1.23,2.7,3.26,3.26,0,0,1-1.42,2.78,6,6,0,0,1-3.64,1,7.49,7.49,0,0,1-2.9-.55,5.46,5.46,0,0,1-2.19-1.57V92.8h1l.17,2.13a4.07,4.07,0,0,0,1.69,1.15,6.33,6.33,0,0,0,2.25.39,4.75,4.75,0,0,0,2.79-.76,2.37,2.37,0,0,0,1.07-2,2.47,2.47,0,0,0-.89-2,8.43,8.43,0,0,0-3.11-1.34,9.81,9.81,0,0,1-3.63-1.56,3.13,3.13,0,0,1-1.23-2.6,3.24,3.24,0,0,1,1.4-2.72,5.81,5.81,0,0,1,3.62-1.06,7.09,7.09,0,0,1,2.84.55,5,5,0,0,1,2,1.5Z"/><path d="M89.79,82.67v3.08H88.73l-.1-2h-4V96.26l1.64.13v.88H81.75v-.88l1.63-.13V83.7h-4l-.08,2H78.18V82.67Z"/><path d="M105.79,90.07A8,8,0,0,1,104,95.42a5.72,5.72,0,0,1-4.56,2.06A5.63,5.63,0,0,1,95,95.42a8.07,8.07,0,0,1-1.73-5.35v-.19A8.09,8.09,0,0,1,95,84.53a5.57,5.57,0,0,1,4.49-2.07A5.73,5.73,0,0,1,104,84.53a8,8,0,0,1,1.76,5.35Zm-1.21-.21a7.21,7.21,0,0,0-1.38-4.59,4.51,4.51,0,0,0-3.74-1.75,4.36,4.36,0,0,0-3.66,1.75,7.32,7.32,0,0,0-1.35,4.59v.21a7.34,7.34,0,0,0,1.35,4.61,4.4,4.4,0,0,0,3.67,1.76,4.48,4.48,0,0,0,3.74-1.75,7.26,7.26,0,0,0,1.37-4.62Z"/><path d="M115.73,82.68a5.54,5.54,0,0,1,3.6,1,3.57,3.57,0,0,1,1.26,3,3.37,3.37,0,0,1-.67,2.06A3.74,3.74,0,0,1,118,90a3.23,3.23,0,0,1,2,1.22,3.89,3.89,0,0,1,.59,2.21V94.8a2.17,2.17,0,0,0,.24,1.15.91.91,0,0,0,.73.4l.5,0v.89h-.77a1.57,1.57,0,0,1-1.48-.72,3.46,3.46,0,0,1-.42-1.77V93.49a2.7,2.7,0,0,0-.85-2.1,3.45,3.45,0,0,0-2.36-.81h-3.67v5.68l1.64.14v.87h-4.47V96.4l1.64-.14V83.71l-1.64-.14v-.89Zm-3.24,6.88h3.1a4.34,4.34,0,0,0,2.89-.79,3,3,0,0,0,0-4.29,4.16,4.16,0,0,0-2.75-.77h-3.24Z"/><path d="M125.69,83.57v-.9h4.47v.9l-1.63.13V96.26l1.63.13v.88h-4.47v-.88l1.64-.13V83.7Z"/><path d="M133.67,96.39l1.07-.08,5.19-13.64h1.13l5.13,13.64,1.1.08v.88h-3.6v-.88l1.27-.1L143.76,93H137.2L136,96.29l1.27.1v.88h-3.59ZM137.6,92h5.77l-2.84-7.72h-.06Z"/></g></g></svg>