<svg xmlns="http://www.w3.org/2000/svg" viewBox="0 0 337.27 304.16"><defs><style>.cls-1{fill:none;}.cls-2{fill:#040006;}.cls-3{fill:#1f1b20;}</style></defs><title>imagotipo</title><g id="Capa_2" data-name="Capa 2"><g id="PRUEBAS"><path class="cls-1" d="M31,184.58a62.33,62.33,0,0,0-13.51,51C23.23,268.3,53,289.87,84.05,283.79s51.46-37.5,45.7-70.18-35.58-54.25-66.58-48.18c-.68.14-1.36.3-2,.46C45,169.88,32.84,182.55,31,184.58Z"/><path class="cls-2" d="M63.17,165.43h0Zm0,0c-.68.13-1.35.28-2,.45.67-.16,1.34-.32,2-.45Z"/><path class="cls-2" d="M62.23,145l3.48,19.72c31-6.08,60.81,15.49,66.58,48.17S117.6,277,86.59,283.07,25.78,267.58,20,234.89a62.35,62.35,0,0,1,13.51-51l-.26.29L17.82,172.3A83.23,83.23,0,0,0,1.3,238.56C9,282.14,48.73,310.9,90.07,302.79s68.62-50,60.93-93.57S103.57,136.88,62.23,145Z"/><path class="cls-2" d="M26.29,173.25a56.35,56.35,0,0,1,30.17-18.69c.67-.17,1.34-.32,2-.46L55,134.38A75.08,75.08,0,0,0,10.6,161.7L26,173.54Z"/><path class="cls-1" d="M91.5,25.49A43.92,43.92,0,0,0,52,34.16C32,50.55,28.42,80.9,44,102s44.35,24.85,64.32,8.46,23.58-46.74,8-67.8c-.34-.46-.7-.91-1-1.36C106.6,30.57,93.56,26.14,91.5,25.49Z"/><path class="cls-2" d="M115.27,41.26c.35.45.71.9,1,1.36-.34-.46-.7-.91-1-1.36Z"/><path class="cls-2" d="M129.8,34.37l-12.05,9.89c15.54,21.06,11.95,51.42-8,67.81s-48.78,12.6-64.32-8.46-12-51.42,8-67.81a44,44,0,0,1,39.5-8.66l-.29-.09,2.32-16A58.59,58.59,0,0,0,44,23.09C17.4,44.94,12.61,85.42,33.34,113.5s59.13,33.13,85.76,11.28S150.53,62.45,129.8,34.37Z"/><path class="cls-2" d="M98.38,16.06a45.38,45.38,0,0,1,23.77,15.77c.36.44.71.89,1,1.36l12.06-9.89A60.55,60.55,0,0,0,100.4,0L98.09,16Z"/><path d="M166.72,95.49q-8.86-8.47-8.86-24.43t8.9-24.43q8.91-8.49,24.94-8.48a53.59,53.59,0,0,1,12.43,1.34,28.4,28.4,0,0,1,9.36,3.85,1.81,1.81,0,0,1,1,1.48,3.56,3.56,0,0,1-.46,1.3l-3.52,5.93c-.44.68-.87,1-1.3,1a3.69,3.69,0,0,1-1.49-.55,28.89,28.89,0,0,0-14.09-3.34q-9.65,0-15.11,5.47t-5.47,16.41q0,11,5.1,16.41t14.37,5.38a36.52,36.52,0,0,0,5.84-.46,18,18,0,0,0,4.64-1.3V76.81H192.91a4.16,4.16,0,0,1-3.06-.88,4.33,4.33,0,0,1-.84-3V69.58a4.14,4.14,0,0,1,.84-2.92,4.16,4.16,0,0,1,3.06-.88h19.65a4.73,4.73,0,0,1,3.67,1.2,5.48,5.48,0,0,1,1.06,3.71V94.24a6.11,6.11,0,0,1-.37,2.41,4,4,0,0,1-1.48,1.58q-9,5.74-23.74,5.75Q175.58,104,166.72,95.49Z"/><path d="M239.87,102.45a31.48,31.48,0,0,1-10.71-4.32c-.93-.68-1.39-1.29-1.39-1.85a2.56,2.56,0,0,1,.46-1.3l3.8-6c.38-.61.78-.92,1.21-.92a2.7,2.7,0,0,1,1.39.55,34,34,0,0,0,7.88,3.16,34.44,34.44,0,0,0,9,1.2q5.38,0,8-1.71a6,6,0,0,0,2.59-5.43,6.33,6.33,0,0,0-1.25-4.08,10.63,10.63,0,0,0-3.71-2.78q-2.45-1.2-7.55-3.15a73.21,73.21,0,0,1-10.06-4.54,20.81,20.81,0,0,1-6.77-6,14.93,14.93,0,0,1-2.64-8.95q0-8.8,6.39-13.49t16.88-4.68q13.81,0,21.14,5.19c.93.74,1.39,1.36,1.39,1.85a2.62,2.62,0,0,1-.46,1.3l-3.81,6c-.37.62-.77.92-1.2.92a2.67,2.67,0,0,1-1.39-.55,24.5,24.5,0,0,0-13.72-3.71q-10,0-10,7.23a6.36,6.36,0,0,0,1.16,3.94,9.34,9.34,0,0,0,3.2,2.6,65.27,65.27,0,0,0,6.4,2.73l2.59,1a73.62,73.62,0,0,1,10.67,5.06,17.32,17.32,0,0,1,6,5.79,16.75,16.75,0,0,1,2.08,8.81A15.47,15.47,0,0,1,271.3,99.2Q265.23,104,253.73,104A62,62,0,0,1,239.87,102.45Z"/><path d="M303.66,101.61a4.1,4.1,0,0,1-1-3V50.85h-15.2a4.16,4.16,0,0,1-3.06-.88,4.33,4.33,0,0,1-.84-3V43.52a4.51,4.51,0,0,1,.84-3.06,4.07,4.07,0,0,1,3.06-.92h45.8a4.25,4.25,0,0,1,3.11.92,4.4,4.4,0,0,1,.88,3.06V47a4.25,4.25,0,0,1-.88,3,4.2,4.2,0,0,1-3.11.93h-15.2V98.6a4.1,4.1,0,0,1-1,3,4.56,4.56,0,0,1-3.29,1H307A4.54,4.54,0,0,1,303.66,101.61Z"/><path d="M202.34,133.81a5,5,0,0,1-1.81,1.23,7.92,7.92,0,0,1-3.24.59,5.85,5.85,0,0,1-4.63-2.06,7.86,7.86,0,0,1-1.79-5.35v-.31a7.69,7.69,0,0,1,1.79-5.28,5.94,5.94,0,0,1,4.68-2,7.23,7.23,0,0,1,2.91.55,5.41,5.41,0,0,1,2.05,1.49v2.54h-.93l-.21-2.14a4.17,4.17,0,0,0-1.54-1,5.67,5.67,0,0,0-2.19-.39,4.78,4.78,0,0,0-3.92,1.75,6.83,6.83,0,0,0-1.44,4.51v.33a7.19,7.19,0,0,0,1.41,4.62,4.62,4.62,0,0,0,3.81,1.77,7,7,0,0,0,2.43-.37,3.85,3.85,0,0,0,1.43-.79v-3.54l-2.81,0v-1h4Z"/><path d="M215.73,128.35h-6v6.05h6.89l.1-2.18h1.06v3.2H206.92v-.89l1.63-.13V121.84l-1.63-.13v-.89h10.83V124h-1.07l-.09-2.19h-6.84v5.49h6Z"/><path d="M232.17,125.15h-1l-.17-2.06a3.47,3.47,0,0,0-1.47-1.07,5.67,5.67,0,0,0-2.19-.39,4.49,4.49,0,0,0-2.81.78,2.38,2.38,0,0,0-1,2,2.27,2.27,0,0,0,.91,1.84,8.54,8.54,0,0,0,3.14,1.3,9.05,9.05,0,0,1,3.58,1.62,3.33,3.33,0,0,1,1.23,2.7,3.23,3.23,0,0,1-1.42,2.77,6,6,0,0,1-3.64,1,7.68,7.68,0,0,1-2.9-.55,5.62,5.62,0,0,1-2.19-1.58v-2.56h1l.17,2.14a4.22,4.22,0,0,0,1.69,1.14,6.33,6.33,0,0,0,2.25.39,4.68,4.68,0,0,0,2.79-.76,2.37,2.37,0,0,0,1.07-2,2.44,2.44,0,0,0-.89-2,8.19,8.19,0,0,0-3.11-1.34,9.64,9.64,0,0,1-3.63-1.57,3.11,3.11,0,0,1-1.23-2.59,3.24,3.24,0,0,1,1.4-2.73,5.89,5.89,0,0,1,3.62-1,6.92,6.92,0,0,1,2.84.55,5,5,0,0,1,2,1.49Z"/><path d="M247.65,120.82v3.08h-1.06l-.09-2.06h-4.05V134.4l1.63.13v.89h-4.47v-.89l1.63-.13V121.84h-4.05l-.08,2.06H236v-3.08Z"/><path d="M263.65,128.22a8,8,0,0,1-1.76,5.35,5.72,5.72,0,0,1-4.56,2.06,5.57,5.57,0,0,1-4.49-2.07,8,8,0,0,1-1.73-5.34V128a8.07,8.07,0,0,1,1.72-5.35,5.57,5.57,0,0,1,4.49-2.07,5.72,5.72,0,0,1,4.57,2.07,8,8,0,0,1,1.76,5.35Zm-1.21-.21a7.21,7.21,0,0,0-1.38-4.59,4.51,4.51,0,0,0-3.74-1.76,4.38,4.38,0,0,0-3.66,1.76,7.32,7.32,0,0,0-1.35,4.59v.21a7.36,7.36,0,0,0,1.35,4.61,4.39,4.39,0,0,0,3.67,1.75,4.5,4.5,0,0,0,3.75-1.75,7.27,7.27,0,0,0,1.36-4.61Z"/><path d="M273.59,120.83a5.6,5.6,0,0,1,3.61,1,3.61,3.61,0,0,1,1.25,3,3.34,3.34,0,0,1-.67,2,3.82,3.82,0,0,1-1.89,1.33,3.18,3.18,0,0,1,1.95,1.22,3.89,3.89,0,0,1,.59,2.21V133a2.13,2.13,0,0,0,.24,1.14.89.89,0,0,0,.74.4l.49,0v.9h-.76a1.57,1.57,0,0,1-1.49-.73,3.42,3.42,0,0,1-.42-1.76v-1.29a2.67,2.67,0,0,0-.85-2.1,3.45,3.45,0,0,0-2.36-.81h-3.67v5.67l1.64.14v.88h-4.46v-.88l1.63-.14V121.85l-1.63-.14v-.88Zm-3.24,6.88h3.1a4.34,4.34,0,0,0,2.89-.8,2.63,2.63,0,0,0,.91-2.11,2.7,2.7,0,0,0-.91-2.18,4.22,4.22,0,0,0-2.75-.77h-3.24Z"/><path d="M283.55,121.71v-.89H288v.89l-1.64.13V134.4l1.64.13v.89h-4.48v-.89l1.64-.13V121.84Z"/><path d="M291.53,134.53l1.08-.08,5.18-13.63h1.13l5.13,13.63,1.1.08v.89h-3.6v-.89l1.27-.1-1.2-3.26h-6.56l-1.21,3.26,1.27.1v.89h-3.59Zm3.93-4.44h5.77l-2.84-7.72h-.06Z"/><path class="cls-3" d="M144,183.56a40,40,0,0,0,5,9,34.2,34.2,0,0,0,6.93,7.45,6.78,6.78,0,0,0,2.22,1.14,9.75,9.75,0,0,0,2.52.24,19.64,19.64,0,0,0,5-.87,52.12,52.12,0,0,0,9.48-4c1.37-.73,2.41-1.31,3.56-2s2.24-1.31,3.34-2,2.2-1.37,3.28-2.07l1.61-1,.73-.47.8-.5,12.93-8,17.09-10.61,2.75,17.57,29-41-49.66,7.82,14.55,10.23L198,175l-12.92,8-.81.51-.87.56-1.58,1c-1,.68-2.09,1.35-3.15,2s-2.12,1.29-3.19,1.9-2.22,1.26-3.09,1.72a48,48,0,0,1-6.83,3.06,15.31,15.31,0,0,1-3.65.82,6.12,6.12,0,0,1-1.86-.12,4.14,4.14,0,0,1-1.62-.91,30.31,30.31,0,0,1-4.9-5.64,31.14,31.14,0,0,1-3.58-6.6Z"/></g></g></svg>