<svg xmlns="http://www.w3.org/2000/svg" viewBox="0 0 219.47 219.47"><defs><style>.cls-1{fill:#037c75;}.cls-2{fill:none;}.cls-3{fill:#7f7f7f;}.cls-4{fill:#c45f43;}.cls-5{fill:#616161;}.cls-6{fill:#fff;}</style></defs><title>impulso negocio</title><g id="Capa_2" data-name="Capa 2"><g id="Capa_2-2" data-name="Capa 2"><circle class="cls-1" cx="109.73" cy="109.73" r="109.73" transform="translate(-45.45 109.73) rotate(-45)"/><circle class="cls-2" cx="109.73" cy="109.73" r="109.73" transform="translate(-45.45 109.73) rotate(-45)"/><circle class="cls-2" cx="109.73" cy="109.73" r="109.73" transform="translate(-45.45 109.73) rotate(-45)"/><path class="cls-3" d="M90.31,129A70.93,70.93,0,0,1,65.46,147.4c-10.56,4.81-22.1,7.29-33.62,8.24-6.72.55-13.58.77-20.21-.62-.92-.19-1.31,1.21-.39,1.4a67.06,67.06,0,0,0,18.28.85,122.39,122.39,0,0,0,17.78-2.43,86,86,0,0,0,30.86-13,67.45,67.45,0,0,0,13.18-11.84C91.94,129.33,90.91,128.3,90.31,129Z"/><path class="cls-4" d="M22.83,159a58.52,58.52,0,0,1-11.9-1.12,2.16,2.16,0,0,1-1.61-1.42,2.3,2.3,0,0,1,.49-2.24,2.22,2.22,0,0,1,2.13-.69c6.69,1.41,13.75,1.09,19.77.59A99.55,99.55,0,0,0,64.84,146a69,69,0,0,0,24.32-18h0a2.11,2.11,0,0,1,3-.24,2.27,2.27,0,0,1,.29,3.22A69.37,69.37,0,0,1,79,143.13c-11.61,8-10.9,8.74-31.4,13.18a123.83,123.83,0,0,1-18,2.46C27.57,158.9,25.28,159,22.83,159Z"/><path class="cls-3" d="M106.09,141.48a47.2,47.2,0,0,1-14.8,14.26,67.3,67.3,0,0,1-21.46,8.33,46.73,46.73,0,0,1-13.37,1.33c-.62-.05-.76.91-.14,1a44.59,44.59,0,0,0,12.13-1A80.58,80.58,0,0,0,80,162.21,57.2,57.2,0,0,0,99.19,151a44.84,44.84,0,0,0,7.67-8.94C107.19,141.55,106.43,141,106.09,141.48Z"/><path class="cls-4" d="M58.72,168c-.83,0-1.67,0-2.51-.1a1.92,1.92,0,0,1-1.79-2.1,2,2,0,0,1,2.15-1.86,45.7,45.7,0,0,0,12.95-1.3,65.57,65.57,0,0,0,21-8.14,45.24,45.24,0,0,0,14.33-13.8,1.91,1.91,0,0,1,1.71-.89,2,2,0,0,1,1.69,1.11,2,2,0,0,1-.1,2,46.22,46.22,0,0,1-7.92,9.25,58.4,58.4,0,0,1-19.73,11.49,82,82,0,0,1-11.73,3.2A52,52,0,0,1,58.72,168Z"/><path class="cls-5" d="M158.38,152a22.22,22.22,0,0,1-7.82,5.78,31.67,31.67,0,0,1-10.58,2.6,22.29,22.29,0,0,1-6.37-.2c-.28-.06-.41.38-.12.45a21.37,21.37,0,0,0,5.76.26,39.25,39.25,0,0,0,5.6-.76,27.23,27.23,0,0,0,9.71-4.08,21.34,21.34,0,0,0,4.15-3.73C158.9,152.07,158.58,151.74,158.38,152Z"/><path class="cls-4" d="M137.14,161.82a18.51,18.51,0,0,1-3.83-.37,1.07,1.07,0,0,1-.81-.71,1.14,1.14,0,0,1,.24-1.1,1.1,1.1,0,0,1,1-.35,21.07,21.07,0,0,0,6.11.18A30.61,30.61,0,0,0,150.2,157a21.28,21.28,0,0,0,7.51-5.55h0a1.08,1.08,0,0,1,1.53-.13,1.13,1.13,0,0,1,.14,1.59,22.07,22.07,0,0,1-4.32,3.88A27.86,27.86,0,0,1,145,161a39,39,0,0,1-5.73.79C138.65,161.78,137.92,161.82,137.14,161.82Z"/><path class="cls-5" d="M156.64,161a22.31,22.31,0,0,1-7.82,5.78,31.78,31.78,0,0,1-10.59,2.6,22.23,22.23,0,0,1-6.36-.2c-.29-.06-.41.38-.12.45a21.3,21.3,0,0,0,5.75.26,39.06,39.06,0,0,0,5.6-.76,27.35,27.35,0,0,0,9.72-4.08,21.29,21.29,0,0,0,4.14-3.73C157.15,161.07,156.83,160.74,156.64,161Z"/><path class="cls-4" d="M135.39,170.82a18.35,18.35,0,0,1-3.82-.37,1.05,1.05,0,0,1-.81-.71,1.12,1.12,0,0,1,1.29-1.45,21.06,21.06,0,0,0,6.11.18A30.79,30.79,0,0,0,148.45,166,21.2,21.2,0,0,0,156,160.4a1.06,1.06,0,0,1,1-.37,1.11,1.11,0,0,1,.85.73,1.08,1.08,0,0,1-.2,1.1,22,22,0,0,1-4.31,3.88,27.94,27.94,0,0,1-10,4.21,39.18,39.18,0,0,1-5.73.79C136.91,170.78,136.17,170.82,135.39,170.82Zm-3.7-.81Zm25.62-8.48Z"/><path class="cls-4" d="M83.76,104.36Z"/><path class="cls-5" d="M59.91,110.88a22.25,22.25,0,0,1-2.33-9.44,31.77,31.77,0,0,1,1.68-10.77,22,22,0,0,1,2.63-5.8c.16-.24-.2-.53-.36-.28a20.72,20.72,0,0,0-2.46,5.21,37.84,37.84,0,0,0-1.45,5.46,27,27,0,0,0,0,10.53,21.3,21.3,0,0,0,1.85,5.27C59.62,111.32,60.05,111.15,59.91,110.88Z"/><path class="cls-4" d="M59.7,112.07h-.06a1.11,1.11,0,0,1-.94-.6A22.51,22.51,0,0,1,56.78,106a28,28,0,0,1,0-10.88,39,39,0,0,1,1.49-5.59,22.18,22.18,0,0,1,2.56-5.42,1.07,1.07,0,0,1,1-.47,1.13,1.13,0,0,1,.93.64,1.11,1.11,0,0,1-.09,1.11,21.56,21.56,0,0,0-2.52,5.57,30.85,30.85,0,0,0-1.63,10.47,21.37,21.37,0,0,0,2.23,9.07,1.09,1.09,0,0,1,0,1.08A1.16,1.16,0,0,1,59.7,112.07Zm-.57-.79Zm2-26.91Z"/><path class="cls-5" d="M68,110.88a22.4,22.4,0,0,1-2.33-9.44,32,32,0,0,1,1.68-10.77A22,22,0,0,1,70,84.87c.17-.24-.19-.53-.36-.28a20.72,20.72,0,0,0-2.46,5.21,37.84,37.84,0,0,0-1.45,5.46,27.23,27.23,0,0,0,0,10.53,21.3,21.3,0,0,0,1.85,5.27C67.74,111.32,68.17,111.15,68,110.88Z"/><path class="cls-4" d="M67.82,112.07h-.06a1.08,1.08,0,0,1-.93-.6A22.53,22.53,0,0,1,64.9,106a27.82,27.82,0,0,1,0-10.88,39,39,0,0,1,1.48-5.59,21.88,21.88,0,0,1,2.57-5.42,1.06,1.06,0,0,1,1-.47,1.13,1.13,0,0,1,.92.64,1.11,1.11,0,0,1-.09,1.11,21.19,21.19,0,0,0-2.51,5.57,31.12,31.12,0,0,0-1.64,10.47,21.23,21.23,0,0,0,2.24,9.07,1.1,1.1,0,0,1,0,1.08A1.16,1.16,0,0,1,67.82,112.07Zm-.57-.79Zm2-26.91h0Z"/><path class="cls-6" d="M175.15,100.36c41.71-41.73,11.82-66,11.82-66S156.24,9.22,124.36,60c-5.14-1.79-22.59-7.16-28.09.25C89.79,69,78.92,101.15,80.63,104.6c1.29,2.61,17.69-3.58,25.63-6.76q-.86,2.28-1.71,4.65l-1.06-.84a2.17,2.17,0,0,0-3,.6l-4.77,6a2.17,2.17,0,0,0,.11,3l34.79,27.52a2.18,2.18,0,0,0,3-.6l4.76-6a2.16,2.16,0,0,0-.11-3l-.1-.09q2.06-1.31,4-2.61c-1.27,8.53-3.45,25.67-.64,26.32,3.75.87,32.57-17.14,39.56-25.45C186.9,120.47,178.32,105.41,175.15,100.36Z"/><path class="cls-4" d="M158,29.63s8.82,29.39,39.2,31.52c0,0,5.68-26.24-2.8-34.2C185.49,18.56,158,29.63,158,29.63Z"/><rect class="cls-4" x="88.4" y="121.28" width="52" height="5.35" rx="1.25" transform="translate(101.55 -44.24) rotate(38.34)"/><circle class="cls-4" cx="154.33" cy="79.66" r="19.94" transform="translate(-10.94 26.27) rotate(-9.4)"/><circle class="cls-4" cx="151.74" cy="78.09" r="19.94" transform="translate(-0.3 0.59) rotate(-0.22)"/><path class="cls-4" d="M151.72,98a20.56,20.56,0,1,1,17.36-9.49A20.49,20.49,0,0,1,151.72,98Zm.07-39.88a19.31,19.31,0,0,0-10.43,35.59,19.3,19.3,0,1,0,10.43-35.59Z"/><rect class="cls-4" x="93.75" y="122.62" width="34.05" height="7.69" rx="1.25" transform="translate(102.33 -41.45) rotate(38.34)"/></g></g></svg>