<svg xmlns="http://www.w3.org/2000/svg" viewBox="0 0 653.12 498.51"><defs><style>.cls-1{fill:#4d8784;}.cls-2{fill:#fff;}.cls-21,.cls-23,.cls-3{fill:none;stroke:#000;stroke-linecap:round;stroke-miterlimit:10;}.cls-3{stroke-width:7px;}.cls-4{fill:#ffcd2e;}.cls-5{fill:#ff777d;}.cls-6{fill:#00cde3;}.cls-7{fill:#ffd762;}.cls-8{fill:#8091a0;}.cls-9{fill:#ff5151;}.cls-10{fill:#90ddd6;}.cls-11{fill:#ff9972;}.cls-12{fill:#7dd4cb;}.cls-13{fill:#ffac90;}.cls-14{fill:#ff7779;}.cls-15{fill:#8ba2b2;}.cls-16{fill:#ff9779;}.cls-17{fill:#ffd660;}.cls-18{fill:#00cbe2;}.cls-19{fill:#ffc63d;}.cls-20{fill:#6fa5a4;}.cls-21{stroke-width:12px;}.cls-22{fill:#147f7c;}</style></defs><title>Recurso 10</title><g id="Capa_2" data-name="Capa 2"><g id="Capa_2-2" data-name="Capa 2"><path class="cls-1" d="M272.46,498.51H155.3c-182.79-.27-48.39-45.48-33.28-50.4l1.34-.42-.42-51.94h181l.46,51.94,1.34.42C320.85,453,455.24,498.24,272.46,498.51Z"/><rect class="cls-1" width="409.51" height="409.51" rx="37.75"/><path class="cls-2" d="M394.79,73.83V348.77c-.35,19.48,4.65,29.48-22.35,31.08l-344,.4c-16,0-14-15-13.72-21V73.83c0-17.16-1.28-30.58,8.72-30.58l361-.5C396.44,47.25,394.79,56.67,394.79,73.83Z"/><line class="cls-3" x1="145.71" y1="26.88" x2="257.8" y2="26.88"/><rect class="cls-4" x="327.13" y="226.33" width="63.43" height="90.14"/><rect class="cls-5" x="561.96" y="362.22" width="20.03" height="20.03"/><rect class="cls-6" x="18.32" y="53.25" width="108.5" height="95.15"/><rect class="cls-7" x="133.5" y="155.08" width="108.5" height="88.47"/><rect class="cls-8" x="327.13" y="53.25" width="63.43" height="45.07"/><rect class="cls-4" x="327.13" y="103.33" width="63.43" height="90.14"/><rect class="cls-9" x="250.34" y="53.25" width="70.11" height="140.22"/><rect class="cls-10" x="133.5" y="103.33" width="108.5" height="45.07"/><rect class="cls-11" x="134.5" y="53.33" width="108.5" height="45.07"/><rect class="cls-10" x="253.5" y="259.33" width="115.94" height="45.07"/><rect class="cls-12" x="25.5" y="310.25" width="79.94" height="47.07"/><rect class="cls-13" x="250.34" y="198.48" width="140.22" height="45.07"/><rect class="cls-14" x="256.19" y="59.1" width="58.42" height="20.03"/><rect class="cls-15" x="18.32" y="155.08" width="15.02" height="88.47"/><rect class="cls-15" x="75.91" y="232.7" width="15.02" height="11.68"/><rect class="cls-15" x="75.91" y="154.24" width="15.02" height="21.7"/><rect class="cls-15" x="37.52" y="154.24" width="15.02" height="43.4"/><rect class="cls-15" x="75.91" y="182.62" width="15.02" height="43.4"/><rect class="cls-15" x="114.3" y="232.7" width="15.02" height="11.68"/><rect class="cls-15" x="114.3" y="154.24" width="15.02" height="21.7"/><rect class="cls-15" x="114.3" y="182.62" width="15.02" height="43.4"/><rect class="cls-15" x="37.52" y="200.98" width="15.02" height="43.4"/><rect class="cls-15" x="95.1" y="155.08" width="15.02" height="88.47"/><rect class="cls-15" x="56.71" y="155.08" width="15.02" height="88.47"/><rect class="cls-15" x="218.92" y="337.22" width="20.03" height="20.03"/><rect class="cls-5" x="243.96" y="337.22" width="20.03" height="20.03"/><rect class="cls-16" x="269" y="337.22" width="20.03" height="20.03"/><rect class="cls-10" x="294.04" y="337.22" width="20.03" height="20.03"/><rect class="cls-17" x="319.07" y="337.22" width="20.03" height="20.03"/><rect class="cls-13" x="142.14" y="337.22" width="20.03" height="20.03"/><rect class="cls-10" x="115.43" y="337.22" width="20.03" height="20.03"/><rect class="cls-17" x="167.17" y="337.22" width="20.03" height="20.03"/><rect class="cls-18" x="192.21" y="337.22" width="20.03" height="20.03"/><rect class="cls-15" x="218.92" y="310.22" width="20.03" height="20.03"/><rect class="cls-5" x="243.96" y="310.22" width="20.03" height="20.03"/><rect class="cls-16" x="269" y="310.22" width="20.03" height="20.03"/><rect class="cls-10" x="294.04" y="310.22" width="20.03" height="20.03"/><rect class="cls-17" x="319.07" y="310.22" width="20.03" height="20.03"/><rect class="cls-13" x="142.14" y="310.22" width="20.03" height="20.03"/><rect class="cls-10" x="115.43" y="310.22" width="20.03" height="20.03"/><rect class="cls-17" x="167.17" y="310.22" width="20.03" height="20.03"/><rect class="cls-18" x="192.21" y="310.22" width="20.03" height="20.03"/><rect class="cls-15" x="126.92" y="285.22" width="20.03" height="20.03"/><rect class="cls-5" x="151.96" y="285.22" width="20.03" height="20.03"/><rect class="cls-16" x="177" y="285.22" width="20.03" height="20.03"/><rect class="cls-10" x="202.04" y="285.22" width="20.03" height="20.03"/><rect class="cls-17" x="227.07" y="285.22" width="20.03" height="20.03"/><rect class="cls-13" x="50.14" y="285.22" width="20.03" height="20.03"/><rect class="cls-10" x="23.43" y="285.22" width="20.03" height="20.03"/><rect class="cls-17" x="75.17" y="285.22" width="20.03" height="20.03"/><rect class="cls-18" x="100.21" y="285.22" width="20.03" height="20.03"/><rect class="cls-15" x="126.92" y="258.22" width="20.03" height="20.03"/><rect class="cls-5" x="151.96" y="258.22" width="20.03" height="20.03"/><rect class="cls-16" x="177" y="258.22" width="20.03" height="20.03"/><rect class="cls-10" x="202.04" y="258.22" width="20.03" height="20.03"/><rect class="cls-17" x="227.07" y="258.22" width="20.03" height="20.03"/><rect class="cls-13" x="50.14" y="258.22" width="20.03" height="20.03"/><rect class="cls-10" x="23.43" y="258.22" width="20.03" height="20.03"/><rect class="cls-17" x="75.17" y="258.22" width="20.03" height="20.03"/><rect class="cls-18" x="100.21" y="258.22" width="20.03" height="20.03"/><rect class="cls-19" x="141.84" y="161.75" width="45.07" height="31.72"/><rect class="cls-19" x="191.92" y="161.75" width="45.07" height="31.72"/><rect class="cls-19" x="141.84" y="201.81" width="95.15" height="35.05"/><rect class="cls-14" x="256.19" y="84.13" width="58.42" height="20.03"/><rect class="cls-14" x="256.19" y="109.17" width="58.42" height="20.03"/><rect class="cls-14" x="256.19" y="135.88" width="58.42" height="51.75"/><rect class="cls-20" x="327.31" y="201.09" width="260.05" height="295.92" rx="24.2"/><rect class="cls-2" x="354.89" y="232.47" width="204.89" height="233.15" rx="2.45"/><line class="cls-21" x1="440.9" y1="480.57" x2="473.78" y2="480.57"/><rect class="cls-9" x="360.34" y="238.25" width="70.11" height="140.22"/><rect class="cls-14" x="366.19" y="244.1" width="58.42" height="20.03"/><rect class="cls-14" x="366.19" y="269.13" width="58.42" height="20.03"/><rect class="cls-14" x="366.19" y="294.17" width="58.42" height="20.03"/><rect class="cls-14" x="366.19" y="320.88" width="58.42" height="51.75"/><rect class="cls-15" x="367.92" y="402.22" width="20.03" height="20.03"/><rect class="cls-13" x="394.14" y="435.22" width="20.03" height="20.03"/><rect class="cls-13" x="419.14" y="402.22" width="20.03" height="20.03"/><rect class="cls-10" x="367.43" y="435.22" width="20.03" height="20.03"/><rect class="cls-17" x="419.17" y="435.22" width="20.03" height="20.03"/><rect class="cls-18" x="394.21" y="402.22" width="20.03" height="20.03"/><rect class="cls-19" x="450.84" y="283.75" width="45.07" height="31.72"/><rect class="cls-19" x="501.84" y="283.75" width="44.6" height="31.72"/><rect class="cls-19" x="450.92" y="241.75" width="45.07" height="31.72"/><rect class="cls-19" x="500.92" y="241.75" width="45.07" height="31.72"/><rect class="cls-19" x="449.84" y="322.81" width="96.6" height="35.05"/><rect class="cls-15" x="470.91" y="445.7" width="15.02" height="11.68"/><rect class="cls-15" x="470.91" y="367.24" width="15.02" height="21.7"/><rect class="cls-15" x="470.91" y="395.62" width="15.02" height="43.4"/><rect class="cls-15" x="509.3" y="445.7" width="15.02" height="11.68"/><rect class="cls-15" x="509.3" y="367.24" width="15.02" height="21.7"/><rect class="cls-15" x="509.3" y="395.62" width="15.02" height="43.4"/><rect class="cls-15" x="490.1" y="368.08" width="15.02" height="88.47"/><rect class="cls-15" x="529.1" y="368.08" width="15.02" height="88.47"/><rect class="cls-15" x="451.71" y="368.08" width="15.02" height="88.47"/><rect class="cls-22" x="545.52" y="346.4" width="107.61" height="151.76" rx="8.94"/><path class="cls-23" d="M582.88,491l6.21-6.23a4.22,4.22,0,0,1,3-1.24h15.19a4.23,4.23,0,0,1,3.15,1.42l5.35,6Z"/><rect class="cls-2" x="549.51" y="352.04" width="99.62" height="140.49" rx="3.91"/><rect class="cls-16" x="555" y="377.22" width="20.03" height="20.03"/><rect class="cls-10" x="623.04" y="377.22" width="20.03" height="20.03"/><rect class="cls-16" x="555" y="401.22" width="20.03" height="20.03"/><rect class="cls-10" x="623.04" y="401.22" width="20.03" height="20.03"/><rect class="cls-16" x="555" y="427.22" width="20.03" height="20.03"/><rect class="cls-10" x="623.04" y="427.22" width="20.03" height="20.03"/><rect class="cls-16" x="555" y="450.22" width="20.03" height="20.03"/><rect class="cls-10" x="623.04" y="450.22" width="20.03" height="20.03"/><rect class="cls-17" x="587.07" y="385.22" width="20.03" height="20.03"/><rect class="cls-9" x="578.34" y="364.25" width="42.11" height="119"/><rect class="cls-14" x="581.85" y="367.21" width="35.09" height="17"/><rect class="cls-14" x="581.85" y="388.46" width="35.09" height="17"/><rect class="cls-14" x="581.85" y="409.71" width="35.09" height="17"/><rect class="cls-14" x="581.85" y="432.38" width="35.09" height="43.92"/></g></g></svg>