<svg xmlns="http://www.w3.org/2000/svg" width="264.27" height="201.71" viewBox="0 0 264.27 201.71">
  <defs>
    <style>
      .cls-1 {
        fill: #fff;
      }

      .cls-2 {
        fill: none;
        stroke: #fff;
        stroke-miterlimit: 10;
      }
    </style>
  </defs>
  <title>web</title>
  <g id="Capa_2" data-name="Capa 2">
    <g id="COLORS">
      <g>
        <g>
          <path class="cls-1" d="M122,161.13l.18,20v.72l.7.22.53.17c14.52,4.72,24.73,10.22,24.29,13.06-.26,1.6-4.41,5.33-37.45,5.38H62.84c-33-.05-37.19-3.78-37.44-5.38-.45-2.84,9.76-8.34,24.27-13.06l.54-.17.71-.22v-.74l-.17-20H122m1-1H49.74l.18,21-.55.17c-6.11,2-60.49,20.28,13.47,20.39h47.4c74-.11,19.59-18.4,13.47-20.39l-.54-.17-.19-21Z"/>
          <path class="cls-1" d="M150.42,1A14.29,14.29,0,0,1,164.7,15.28V150.42a14.3,14.3,0,0,1-14.28,14.28H15.28A14.29,14.29,0,0,1,1,150.42V15.28A14.29,14.29,0,0,1,15.28,1H150.42m0-1H15.28A15.28,15.28,0,0,0,0,15.28V150.42A15.28,15.28,0,0,0,15.28,165.7H150.42a15.28,15.28,0,0,0,15.28-15.28V15.28A15.28,15.28,0,0,0,150.42,0Z"/>
          <path class="cls-1" d="M155.37,18.3c3.31,1.31,3.46,3.46,3.39,9.32,0,.71,0,1.46,0,2.25V141.1c0,1.2,0,2.33,0,3.33.14,5.65.2,7.77-8.1,8.27l-139.16.16a4.51,4.51,0,0,1-3.46-1.18c-1.38-1.46-1.22-4.14-1.13-5.74a5.35,5.35,0,0,0,0-.58V29.87c0-.73,0-1.44,0-2.13,0-4-.06-7.53,1.15-8.74a1.76,1.76,0,0,1,1.4-.5l145.88-.2m.18-1L9.48,17.5C5.44,17.5,6,22.93,6,29.87V145.36c-.11,2.43-.92,8.5,5.56,8.5l139.19-.16c10.92-.65,8.9-4.7,9-12.58V29.87c0-6.94.67-10.75-4.19-12.57Z"/>
          <line class="cls-2" x1="58.96" y1="10.88" x2="104.31" y2="10.88"/>
        </g>
        <path class="cls-1" d="M157,92.58v34.47H133.36V92.58H157m1-1H132.36v36.47H158V91.58Z"/>
        <path class="cls-1" d="M234.49,147.56v6.11h-6.11v-6.11h6.11m1-1h-8.11v8.11h8.11v-8.11Z"/>
        <g>
          <path class="cls-1" d="M50.31,22.55v36.5H8.41V22.55h41.9m1-1H7.41v38.5h43.9V21.55Z"/>
          <path class="cls-1" d="M96.92,63.75V97.54H55V63.75h41.9m1-1H54V98.54h43.9V62.75Z"/>
          <path class="cls-1" d="M157,22.55V38.78H133.36V22.55H157m1-1H132.36V39.78H158V21.55Z"/>
          <path class="cls-1" d="M157,42.81V77.28H133.36V42.81H157m1-1H132.36V78.28H158V41.81Z"/>
          <path class="cls-1" d="M128.66,22.55V77.28H102.29V22.55h26.37m1-1H101.29V78.28h28.37V21.55Z"/>
          <path class="cls-1" d="M96.92,42.81V59.05H55V42.81h41.9m1-1H54V60.05h43.9V41.81Z"/>
          <path class="cls-1" d="M97.32,22.58V38.81H55.42V22.58h41.9m1-1H54.42V39.81h43.9V21.58Z"/>
          <path class="cls-1" d="M148.48,105.93v16.24H103.57V105.93h44.91m1-1H102.57v18.24h46.91V104.93Z"/>
          <path class="cls-1" d="M41.66,126.54v17H11.32v-17H41.66m1-1H10.32v19H42.66v-19Z"/>
          <path class="cls-1" d="M157,81.31V97.54H102.29V81.31H157m1-1H101.29V98.54H158V80.31Z"/>
          <path class="cls-1" d="M126.3,24.91V31H104.66V24.91H126.3m1-1H103.66V32H127.3V23.91Z"/>
          <path class="cls-1" d="M12.49,63.75V97.54H8.41V63.75h4.08m1-1H7.41V98.54h6.08V62.75Z"/>
          <path class="cls-1" d="M35.79,95.15v2.73H31.71V95.15h4.08m1-1H30.71v4.73h6.08V94.15Z"/>
          <path class="cls-1" d="M35.79,63.41v6.78H31.71V63.41h4.08m1-1H30.71v8.78h6.08V62.41Z"/>
          <path class="cls-1" d="M20.26,63.41V79H16.18V63.41h4.08m1-1H15.18V80h6.08V62.41Z"/>
          <path class="cls-1" d="M35.79,74.89V90.45H31.71V74.89h4.08m1-1H30.71V91.45h6.08V73.89Z"/>
          <path class="cls-1" d="M51.33,95.15v2.73H47.25V95.15h4.08m1-1H46.25v4.73h6.08V94.15Z"/>
          <path class="cls-1" d="M51.33,63.41v6.78H47.25V63.41h4.08m1-1H46.25v8.78h6.08V62.41Z"/>
          <path class="cls-1" d="M51.33,74.89V90.45H47.25V74.89h4.08m1-1H46.25V91.45h6.08V73.89Z"/>
          <path class="cls-1" d="M20.26,82.32V97.88H16.18V82.32h4.08m1-1H15.18V98.88h6.08V81.32Z"/>
          <path class="cls-1" d="M43.56,63.75V97.54H39.48V63.75h4.08m1-1H38.48V98.54h6.08V62.75Z"/>
          <path class="cls-1" d="M28,63.75V97.54H24V63.75H28m1-1H23V98.54H29V62.75Z"/>
          <path class="cls-1" d="M95.69,137.45v6.1H89.58v-6.1h6.11m1-1H88.58v8.1h8.11v-8.1Z"/>
          <path class="cls-1" d="M105.82,137.45v6.1H99.71v-6.1h6.11m1-1H98.71v8.1h8.11v-8.1Z"/>
          <path class="cls-1" d="M116,137.45v6.1h-6.11v-6.1H116m1-1h-8.11v8.1H117v-8.1Z"/>
          <path class="cls-1" d="M126.08,137.45v6.1H120v-6.1h6.11m1-1H119v8.1h8.11v-8.1Z"/>
          <path class="cls-1" d="M136.21,137.45v6.1H130.1v-6.1h6.11m1-1H129.1v8.1h8.11v-8.1Z"/>
          <path class="cls-1" d="M64.62,137.45v6.1H58.51v-6.1h6.11m1-1H57.51v8.1h8.11v-8.1Z"/>
          <path class="cls-1" d="M53.81,137.45v6.1H47.7v-6.1h6.11m1-1H46.7v8.1h8.11v-8.1Z"/>
          <path class="cls-1" d="M74.75,137.45v6.1H68.64v-6.1h6.11m1-1H67.64v8.1h8.11v-8.1Z"/>
          <path class="cls-1" d="M84.88,137.45v6.1H78.77v-6.1h6.11m1-1H77.77v8.1h8.11v-8.1Z"/>
          <path class="cls-1" d="M95.69,126.52v6.11H89.58v-6.11h6.11m1-1H88.58v8.11h8.11v-8.11Z"/>
          <path class="cls-1" d="M105.82,126.52v6.11H99.71v-6.11h6.11m1-1H98.71v8.11h8.11v-8.11Z"/>
          <path class="cls-1" d="M116,126.52v6.11h-6.11v-6.11H116m1-1h-8.11v8.11H117v-8.11Z"/>
          <path class="cls-1" d="M126.08,126.52v6.11H120v-6.11h6.11m1-1H119v8.11h8.11v-8.11Z"/>
          <path class="cls-1" d="M136.21,126.52v6.11H130.1v-6.11h6.11m1-1H129.1v8.11h8.11v-8.11Z"/>
          <path class="cls-1" d="M64.62,126.52v6.11H58.51v-6.11h6.11m1-1H57.51v8.11h8.11v-8.11Z"/>
          <path class="cls-1" d="M53.81,126.52v6.11H47.7v-6.11h6.11m1-1H46.7v8.11h8.11v-8.11Z"/>
          <path class="cls-1" d="M74.75,126.52v6.11H68.64v-6.11h6.11m1-1H67.64v8.11h8.11v-8.11Z"/>
          <path class="cls-1" d="M84.88,126.52v6.11H78.77v-6.11h6.11m1-1H77.77v8.11h8.11v-8.11Z"/>
          <path class="cls-1" d="M58.46,116.41v6.1H52.35v-6.1h6.11m1-1H51.35v8.1h8.11v-8.1Z"/>
          <path class="cls-1" d="M68.59,116.41v6.1h-6.1v-6.1h6.1m1-1h-8.1v8.1h8.1v-8.1Z"/>
          <path class="cls-1" d="M78.72,116.41v6.1h-6.1v-6.1h6.1m1-1h-8.1v8.1h8.1v-8.1Z"/>
          <path class="cls-1" d="M88.85,116.41v6.1h-6.1v-6.1h6.1m1-1h-8.1v8.1h8.1v-8.1Z"/>
          <path class="cls-1" d="M99,116.41v6.1h-6.1v-6.1H99m1-1h-8.1v8.1H100v-8.1Z"/>
          <path class="cls-1" d="M27.39,116.41v6.1h-6.1v-6.1h6.1m1-1h-8.1v8.1h8.1v-8.1Z"/>
          <path class="cls-1" d="M16.58,116.41v6.1h-6.1v-6.1h6.1m1-1H9.48v8.1h8.1v-8.1Z"/>
          <path class="cls-1" d="M37.52,116.41v6.1h-6.1v-6.1h6.1m1-1h-8.1v8.1h8.1v-8.1Z"/>
          <path class="cls-1" d="M47.65,116.41v6.1h-6.1v-6.1h6.1m1-1h-8.1v8.1h8.1v-8.1Z"/>
          <path class="cls-1" d="M58.46,105.48v6.11H52.35v-6.11h6.11m1-1H51.35v8.11h8.11v-8.11Z"/>
          <path class="cls-1" d="M68.59,105.48v6.11h-6.1v-6.11h6.1m1-1h-8.1v8.11h8.1v-8.11Z"/>
          <path class="cls-1" d="M78.72,105.48v6.11h-6.1v-6.11h6.1m1-1h-8.1v8.11h8.1v-8.11Z"/>
          <path class="cls-1" d="M88.85,105.48v6.11h-6.1v-6.11h6.1m1-1h-8.1v8.11h8.1v-8.11Z"/>
          <path class="cls-1" d="M99,105.48v6.11h-6.1v-6.11H99m1-1h-8.1v8.11H100v-8.11Z"/>
          <path class="cls-1" d="M27.39,105.48v6.11h-6.1v-6.11h6.1m1-1h-8.1v8.11h8.1v-8.11Z"/>
          <path class="cls-1" d="M16.58,105.48v6.11h-6.1v-6.11h6.1m1-1H9.48v8.11h8.1v-8.11Z"/>
          <path class="cls-1" d="M37.52,105.48v6.11h-6.1v-6.11h6.1m1-1h-8.1v8.11h8.1v-8.11Z"/>
          <path class="cls-1" d="M47.65,105.48v6.11h-6.1v-6.11h6.1m1-1h-8.1v8.11h8.1v-8.11Z"/>
          <path class="cls-1" d="M74.63,66.45V77.28H58.39V66.45H74.63m1-1H57.39V78.28H75.63V65.45Z"/>
          <path class="cls-1" d="M94.89,66.45V77.28H78.66V66.45H94.89m1-1H77.66V78.28H95.89V65.45Z"/>
          <path class="cls-1" d="M94.89,82.66V94.84H58.39V82.66h36.5m1-1H57.39V95.84h38.5V81.66Z"/>
          <path class="cls-1" d="M126.3,35v6.11H104.66V35H126.3m1-1H103.66v8.11H127.3V34Z"/>
          <path class="cls-1" d="M126.3,45.17v6.11H104.66V45.17H126.3m1-1H103.66v8.11H127.3V44.17Z"/>
          <path class="cls-1" d="M126.3,56V74.92H104.66V56H126.3m1-1H103.66V75.92H127.3V55Z"/>
        </g>
        <g>
          <path class="cls-1" d="M213.46,82.36a23.23,23.23,0,0,1,23.2,23.2V176.9a23.22,23.22,0,0,1-23.2,23.2H156.64a23.22,23.22,0,0,1-23.2-23.2V105.56a23.23,23.23,0,0,1,23.2-23.2h56.82m0-1H156.64a24.2,24.2,0,0,0-24.2,24.2V176.9a24.19,24.19,0,0,0,24.2,24.2h56.82a24.19,24.19,0,0,0,24.2-24.2V105.56a24.2,24.2,0,0,0-24.2-24.2Z"/>
          <path class="cls-1" d="M224.05,95.06a1.46,1.46,0,0,1,1.45,1.46V186a1.45,1.45,0,0,1-1.45,1.45h-78A1.45,1.45,0,0,1,144.6,186V96.52a1.46,1.46,0,0,1,1.45-1.46h78m0-1h-78a2.46,2.46,0,0,0-2.45,2.46V186a2.45,2.45,0,0,0,2.45,2.45h78A2.45,2.45,0,0,0,226.5,186V96.52a2.46,2.46,0,0,0-2.45-2.46Z"/>
          <line class="cls-2" x1="178.4" y1="194.45" x2="191.7" y2="194.45"/>
        </g>
        <g>
          <path class="cls-1" d="M173.17,97.4v54.74H146.8V97.4h26.37m1-1H145.8v56.74h28.37V96.4Z"/>
          <path class="cls-1" d="M170.81,99.77v6.1H149.17v-6.1h21.64m1-1H148.17v8.1h23.64v-8.1Z"/>
          <path class="cls-1" d="M170.81,109.9V116H149.17v-6.1h21.64m1-1H148.17V117h23.64v-8.1Z"/>
          <path class="cls-1" d="M170.81,120v6.1H149.17V120h21.64m1-1H148.17v8.1h23.64V119Z"/>
          <path class="cls-1" d="M170.81,130.84v18.93H149.17V130.84h21.64m1-1H148.17v20.93h23.64V129.84Z"/>
          <path class="cls-1" d="M156,163.75v6.1h-6.1v-6.1H156m1-1h-8.1v8.1H157v-8.1Z"/>
          <path class="cls-1" d="M166.58,177.1v6.11h-6.1V177.1h6.1m1-1h-8.1v8.11h8.1V176.1Z"/>
          <path class="cls-1" d="M176.7,163.75v6.1h-6.11v-6.1h6.11m1-1h-8.11v8.1h8.11v-8.1Z"/>
          <path class="cls-1" d="M155.78,177.1v6.11h-6.11V177.1h6.11m1-1h-8.11v8.11h8.11V176.1Z"/>
          <path class="cls-1" d="M176.71,177.1v6.11h-6.1V177.1h6.1m1-1h-8.1v8.11h8.1V176.1Z"/>
          <path class="cls-1" d="M166.61,163.75v6.1h-6.1v-6.1h6.1m1-1h-8.1v8.1h8.1v-8.1Z"/>
          <path class="cls-1" d="M199.66,115.81v10.84H183.42V115.81h16.24m1-1H182.42v12.84h18.24V114.81Z"/>
          <path class="cls-1" d="M220.1,115.81v10.84h-16V115.81h16m1-1h-18v12.84h18V114.81Z"/>
          <path class="cls-1" d="M199.69,98.82v10.83H183.45V98.82h16.24m1-1H182.45v12.83h18.24V97.82Z"/>
          <path class="cls-1" d="M219.92,98.82v10.83H203.68V98.82h16.24m1-1H202.68v12.83h18.24V97.82Z"/>
          <path class="cls-1" d="M220.1,131.62V143.8H183V131.62H220.1m1-1H182V144.8H221.1V130.62Z"/>
          <path class="cls-1" d="M195.62,181.34v2.73h-4.08v-2.73h4.08m1-1h-6.08v4.73h6.08v-4.73Z"/>
          <path class="cls-1" d="M195.62,149.59v6.79h-4.08v-6.79h4.08m1-1h-6.08v8.79h6.08v-8.79Z"/>
          <path class="cls-1" d="M195.62,161.08v15.56h-4.08V161.08h4.08m1-1h-6.08v17.56h6.08V160.08Z"/>
          <path class="cls-1" d="M211.15,181.34v2.73h-4.07v-2.73h4.07m1-1h-6.07v4.73h6.07v-4.73Z"/>
          <path class="cls-1" d="M211.15,149.59v6.79h-4.07v-6.79h4.07m1-1h-6.07v8.79h6.07v-8.79Z"/>
          <path class="cls-1" d="M211.15,161.08v15.56h-4.07V161.08h4.07m1-1h-6.07v17.56h6.07V160.08Z"/>
          <path class="cls-1" d="M203.39,149.93v33.8h-4.08v-33.8h4.08m1-1h-6.08v35.8h6.08v-35.8Z"/>
          <path class="cls-1" d="M219.17,149.93v33.8h-4.08v-33.8h4.08m1-1h-6.08v35.8h6.08v-35.8Z"/>
          <path class="cls-1" d="M187.85,149.93v33.8h-4.08v-33.8h4.08m1-1h-6.08v35.8h6.08v-35.8Z"/>
        </g>
        <g>
          <path class="cls-1" d="M255.33,141.16a8,8,0,0,1,7.94,7.94v43.53a8,8,0,0,1-7.94,7.94H229.67a8,8,0,0,1-7.94-7.94V149.1a8,8,0,0,1,7.94-7.94h25.66m0-1H229.67a8.94,8.94,0,0,0-8.94,8.94v43.53a8.94,8.94,0,0,0,8.94,8.94h25.66a8.94,8.94,0,0,0,8.94-8.94V149.1a8.94,8.94,0,0,0-8.94-8.94Z"/>
          <path class="cls-1" d="M245.71,196.66a.73.73,0,0,1,.53.24l.69.78h-8.67l.81-.81a.67.67,0,0,1,.5-.21h6.14m0-1h-6.14a1.7,1.7,0,0,0-1.21.5l-2.51,2.52h13.3L247,196.23a1.74,1.74,0,0,0-1.28-.57Z"/>
          <path class="cls-1" d="M258.74,143.44a2.91,2.91,0,0,1,2.91,2.92v49a2.91,2.91,0,0,1-2.91,2.91H226.26a2.91,2.91,0,0,1-2.91-2.91v-49a2.91,2.91,0,0,1,2.91-2.92h32.48m0-1H226.26a3.92,3.92,0,0,0-3.91,3.92v49a3.91,3.91,0,0,0,3.91,3.91h32.48a3.91,3.91,0,0,0,3.91-3.91v-49a3.92,3.92,0,0,0-3.91-3.92Z"/>
        </g>
        <path class="cls-1" d="M231.67,153.63v6.11h-6.1v-6.11h6.1m1-1h-8.1v8.11h8.1v-8.11Z"/>
        <path class="cls-1" d="M259.2,153.63v6.11h-6.1v-6.11h6.1m1-1h-8.1v8.11h8.1v-8.11Z"/>
        <path class="cls-1" d="M231.67,163.34v6.11h-6.1v-6.11h6.1m1-1h-8.1v8.11h8.1v-8.11Z"/>
        <path class="cls-1" d="M259.2,163.34v6.11h-6.1v-6.11h6.1m1-1h-8.1v8.11h8.1v-8.11Z"/>
        <path class="cls-1" d="M231.67,173.86V180h-6.1v-6.11h6.1m1-1h-8.1V181h8.1v-8.11Z"/>
        <path class="cls-1" d="M259.2,173.86V180h-6.1v-6.11h6.1m1-1h-8.1V181h8.1v-8.11Z"/>
        <path class="cls-1" d="M231.67,183.17v6.11h-6.1v-6.11h6.1m1-1h-8.1v8.11h8.1v-8.11Z"/>
        <path class="cls-1" d="M259.2,183.17v6.11h-6.1v-6.11h6.1m1-1h-8.1v8.11h8.1v-8.11Z"/>
        <path class="cls-1" d="M244.65,156.87V163h-6.11v-6.11h6.11m1-1h-8.11V164h8.11v-8.11Z"/>
        <path class="cls-1" d="M250.05,148.39v46.15H235V148.39h15m1-1H234v48.15h17V147.39Z"/>
        <path class="cls-1" d="M248.63,149.58v4.88h-12.2v-4.88h12.2m1-1h-14.2v6.88h14.2v-6.88Z"/>
        <path class="cls-1" d="M248.63,158.18v4.88h-12.2v-4.88h12.2m1-1h-14.2v6.88h14.2v-6.88Z"/>
        <path class="cls-1" d="M248.63,166.78v4.88h-12.2v-4.88h12.2m1-1h-14.2v6.88h14.2v-6.88Z"/>
        <path class="cls-1" d="M248.63,176v15.77h-12.2V176h12.2m1-1h-14.2v17.77h14.2V175Z"/>
      </g>
    </g>
  </g>
</svg>
