<svg xmlns="http://www.w3.org/2000/svg" viewBox="0 0 222.16 230.18"><defs><style>.cls-1{fill:#a4a14f;}.cls-2{fill:#e0dbc0;}.cls-3{fill:#c45f43;}.cls-4{fill:#433930;}.cls-5{fill:#037c75;}.cls-6{fill:#b65b3c;}</style></defs><title>fotalezer relaciones</title><g id="Capa_2" data-name="Capa 2"><g id="Capa_2-2" data-name="Capa 2"><circle class="cls-1" cx="111.08" cy="111.08" r="111.08" transform="translate(-46.01 111.08) rotate(-45)"/><rect class="cls-2" x="19.91" y="47.79" width="174" height="107.81" rx="2.95"/><path class="cls-3" d="M191,159.29H22.84a6.63,6.63,0,0,1-6.6-6.66V50.75a6.63,6.63,0,0,1,6.6-6.66H191a6.63,6.63,0,0,1,6.6,6.66V152.63A6.63,6.63,0,0,1,191,159.29Zm-167.41-7.4H190.25V51.49H23.57Z"/><path class="cls-4" d="M172.75,75.3H118.38c-1.75,0-1.75,3.1,0,3.1h54.37C174.5,78.4,174.5,75.3,172.75,75.3Z"/><path class="cls-4" d="M172.75,89.74H118.38c-1.75,0-1.75,3.11,0,3.11h54.37C174.5,92.85,174.5,89.74,172.75,89.74Z"/><path class="cls-4" d="M172.75,102.3H118.38c-1.75,0-1.75,3.11,0,3.11h54.37C174.5,105.41,174.5,102.3,172.75,102.3Z"/><path class="cls-4" d="M172.75,113H118.38c-1.75,0-1.75,3.1,0,3.1h54.37C174.5,116.07,174.5,113,172.75,113Z"/><path class="cls-4" d="M172.75,120.84H118.38c-1.75,0-1.75,3.1,0,3.1h54.37C174.5,123.94,174.5,120.84,172.75,120.84Z"/><circle class="cls-4" cx="171.46" cy="93.44" r="35.87"/><circle class="cls-5" cx="168" cy="92.97" r="35.87" transform="translate(-16.53 146.02) rotate(-45)"/><path class="cls-4" d="M213.32,210c0-5.3-.11-12.27-.7-21.08-1.6-23.85-27.38-54.16-27.38-54.16H162.88S137.11,165.1,135.51,189c-.59,8.81-.75,15.78-.71,21.08v16.28a3.68,3.68,0,0,0,3.43,3.87H209.9a3.68,3.68,0,0,0,3.43-3.87V210.16S213.32,210.07,213.32,210Z"/><path class="cls-5" d="M210.23,210c0-5.3-.12-12.27-.71-21.08-1.6-23.85-27.38-54.16-27.38-54.16H159.79S134,165.1,132.41,189c-.59,8.81-.74,15.78-.7,21.08a.57.57,0,0,0,0,.13v16.15a3.68,3.68,0,0,0,3.43,3.87H206.8a3.68,3.68,0,0,0,3.43-3.87V210Z"/><path class="cls-4" d="M77.63,135a36.11,36.11,0,1,1,.42,0Zm0-68.47h-.37a32.16,32.16,0,0,0,.35,64.32H78a32.16,32.16,0,0,0-.35-64.32Z"/><rect class="cls-4" x="76.39" y="64.5" width="1.24" height="67.56" transform="translate(-1.08 0.86) rotate(-0.64)"/><rect class="cls-4" x="91.44" y="73.41" width="1.24" height="35.73" transform="translate(123.08 -34.59) rotate(59.09)"/><rect class="cls-4" x="80.02" y="89.76" width="0.93" height="7.96" transform="translate(203.36 80.85) rotate(124.66)"/><rect class="cls-4" x="82.67" y="81.88" width="0.93" height="14.6" transform="translate(203.78 71.52) rotate(124.67)"/><rect class="cls-4" x="85.16" y="73.86" width="0.93" height="20.89" transform="matrix(-0.57, 0.82, -0.82, -0.57, 203.67, 61.81)"/><rect class="cls-4" x="87.66" y="65.64" width="0.93" height="27.57" transform="translate(203.57 52.12) rotate(124.66)"/><rect class="cls-4" x="90.25" y="58.14" width="0.93" height="32.97" transform="translate(203.69 42.45) rotate(124.66)"/><rect class="cls-6" x="100.68" y="93.92" width="2.27" height="81.12" transform="translate(270.28 142.99) rotate(130.02)"/><path class="cls-6" d="M132.21,162.13l-62.88-52.8,2.09-2.49.38.31,62.51,52.49ZM70.72,109.21l61.37,51.53.83-1L71.54,108.23Z"/><rect class="cls-5" x="122.9" y="132.95" width="20.78" height="63.22" rx="8.33" transform="translate(-78.45 160.82) rotate(-49.98)"/></g></g></svg>