<svg xmlns="http://www.w3.org/2000/svg" viewBox="0 0 210.37 190.93"><defs><style>.cls-1{fill:#a4a14f;}.cls-2{fill:#e0dbc0;}.cls-3{fill:#c45f43;}.cls-4{fill:#433930;}.cls-5{fill:#4d4e50;}.cls-6{fill:#182f51;}</style></defs><title>politicas</title><g id="Capa_2" data-name="Capa 2"><g id="Capa_2-2" data-name="Capa 2"><circle class="cls-1" cx="95.46" cy="95.46" r="95.46" transform="translate(-39.54 95.46) rotate(-45)"/><rect class="cls-2" x="22.27" y="55.68" width="149.54" height="92.65" rx="2.95"/><path class="cls-3" d="M169.29,151.51H24.79a5.7,5.7,0,0,1-5.67-5.72V58.22a5.7,5.7,0,0,1,5.67-5.72h144.5A5.71,5.71,0,0,1,175,58.22v87.57A5.71,5.71,0,0,1,169.29,151.51ZM25.42,145.15H168.66V58.86H25.42Z"/><path class="cls-4" d="M77.13,69.87H30.41c-1.51,0-1.51,2.67,0,2.67H77.13C78.63,72.54,78.64,69.87,77.13,69.87Z"/><path class="cls-4" d="M77.13,82.28H30.41c-1.51,0-1.51,2.67,0,2.67H77.13C78.63,85,78.64,82.28,77.13,82.28Z"/><path class="cls-4" d="M77.13,93.08H30.41c-1.51,0-1.51,2.66,0,2.66H77.13C78.63,95.74,78.64,93.08,77.13,93.08Z"/><path class="cls-4" d="M77.13,102.24H30.41c-1.51,0-1.51,2.67,0,2.67H77.13C78.63,104.91,78.64,102.24,77.13,102.24Z"/><path class="cls-4" d="M77.13,109H30.41c-1.51,0-1.51,2.67,0,2.67H77.13C78.63,111.67,78.64,109,77.13,109Z"/><path class="cls-4" d="M77.13,115H30.41c-1.51,0-1.51,2.67,0,2.67H77.13C78.63,117.69,78.64,115,77.13,115Z"/><path class="cls-4" d="M118.28,122.07a31,31,0,1,1,.36,0Zm0-58.84H118a27.64,27.64,0,0,0,.31,55.28h.31a27.64,27.64,0,0,0-.3-55.27Z"/><rect class="cls-4" x="117.22" y="61.45" width="1.07" height="58.06" transform="translate(-1 1.31) rotate(-0.64)"/><rect class="cls-4" x="130.15" y="69.11" width="1.07" height="30.71" transform="matrix(0.51, 0.86, -0.86, 0.51, 136.02, -71.05)"/><rect class="cls-4" x="120.33" y="83.16" width="0.8" height="6.84" transform="translate(260.61 36.51) rotate(124.66)"/><rect class="cls-4" x="122.62" y="76.39" width="0.8" height="12.55" transform="translate(260.97 28.5) rotate(124.67)"/><rect class="cls-4" x="124.76" y="69.49" width="0.8" height="17.95" transform="translate(260.88 20.14) rotate(124.66)"/><rect class="cls-4" x="126.9" y="62.43" width="0.8" height="23.69" transform="translate(260.79 11.81) rotate(124.66)"/><rect class="cls-4" x="129.13" y="55.98" width="0.8" height="28.33" transform="translate(260.9 3.5) rotate(124.66)"/><path class="cls-4" d="M30.26,125.14h87.6c.53,0,1-.57,1-1.28h0c0-.72-.43-1.29-1-1.29H30.26c-.53,0-1,.57-1,1.29h0C29.3,124.57,29.73,125.14,30.26,125.14Z"/><polygon class="cls-5" points="118.67 122.83 124.74 103.88 135.97 113.07 118.67 122.83"/><path class="cls-6" d="M125.61,101.88s11.79-19.09,19.72-29.11L161.72,86s-19.21,22.76-24.13,26.12Z"/><polygon class="cls-5" points="180.68 27.17 210.37 27.17 162.93 84.07 146.46 71.23 180.68 27.17"/></g></g></svg>