<svg xmlns="http://www.w3.org/2000/svg" viewBox="0 0 250.21 304.16"><defs><style>.cls-1{fill:#fff;}.cls-2{fill:#040006;}</style></defs><title>B isotipo b</title><g id="Capa_2" data-name="Capa 2"><g id="PRUEBAS"><path class="cls-1" d="M144,181.67a39.9,39.9,0,0,0,5,9,33.93,33.93,0,0,0,6.93,7.44,6.62,6.62,0,0,0,2.22,1.15,9.75,9.75,0,0,0,2.52.24,19.64,19.64,0,0,0,5-.87,51.47,51.47,0,0,0,9.48-4c1.37-.72,2.41-1.31,3.56-2s2.24-1.31,3.34-2,2.2-1.37,3.28-2.07l1.61-1,.73-.47.8-.5,12.93-8,17.09-10.61,2.75,17.56,29-41-49.66,7.82,14.55,10.23L198,173.16l-12.92,8-.81.51-.87.56-1.58,1c-1,.68-2.09,1.35-3.15,2s-2.12,1.29-3.19,1.9-2.22,1.26-3.09,1.72a48,48,0,0,1-6.83,3.06,15.31,15.31,0,0,1-3.65.82,6.12,6.12,0,0,1-1.86-.12,4.14,4.14,0,0,1-1.62-.91,30.31,30.31,0,0,1-4.9-5.64,31.14,31.14,0,0,1-3.58-6.6Z"/><path class="cls-1" d="M63.17,165.43c-.68.14-1.36.29-2,.46C61.81,165.73,62.49,165.57,63.17,165.43Z"/><path class="cls-2" d="M63.17,165.43h0Zm0,0c-.68.13-1.35.28-2,.45.67-.16,1.34-.32,2-.45Z"/><path class="cls-1" d="M62.23,145l3.48,19.72c31-6.08,60.81,15.49,66.58,48.17S117.6,277,86.59,283.07,25.78,267.58,20,234.89a62.35,62.35,0,0,1,13.51-51l-.26.29L17.82,172.3A83.23,83.23,0,0,0,1.3,238.56C9,282.14,48.73,310.9,90.07,302.79s68.62-50,60.93-93.57S103.57,136.88,62.23,145Z"/><path class="cls-1" d="M26.29,173.25a56.35,56.35,0,0,1,30.17-18.69c.67-.17,1.34-.32,2-.46L55,134.38A75.08,75.08,0,0,0,10.6,161.7L26,173.54Z"/><path class="cls-1" d="M116.32,42.62c-.34-.46-.7-.91-1-1.36C115.62,41.71,116,42.16,116.32,42.62Z"/><path class="cls-2" d="M115.27,41.26c.35.45.71.9,1,1.36-.34-.46-.7-.91-1-1.36Z"/><path class="cls-1" d="M129.8,34.37l-12.05,9.89c15.54,21.06,11.95,51.42-8,67.81s-48.78,12.6-64.32-8.46-12-51.42,8-67.81a44,44,0,0,1,39.5-8.66l-.29-.09,2.32-16A58.59,58.59,0,0,0,44,23.09C17.4,44.94,12.61,85.42,33.34,113.5s59.13,33.13,85.76,11.28S150.53,62.45,129.8,34.37Z"/><path class="cls-1" d="M98.38,16.06a45.38,45.38,0,0,1,23.77,15.77c.36.44.71.89,1,1.36l12.06-9.89A60.55,60.55,0,0,0,100.4,0L98.09,16Z"/></g></g></svg>