<svg xmlns="http://www.w3.org/2000/svg" viewBox="0 0 215.78 215.78"><defs><style>.cls-1{fill:#335256;}.cls-2{fill:#ddd9c5;}.cls-3{fill:#496bb7;}.cls-4{fill:#111d3f;}.cls-5{fill:#abd5cb;}.cls-6{fill:#2b4449;}.cls-7{fill:#ebcb42;}.cls-8{fill:#433930;}</style></defs><title>calidad</title><g id="Capa_2" data-name="Capa 2"><g id="Capa_2-2" data-name="Capa 2"><circle class="cls-1" cx="107.89" cy="107.89" r="107.89" transform="translate(-44.69 107.89) rotate(-45)"/><path class="cls-2" d="M91.94,80.26l-.12,0a3.57,3.57,0,0,1-.89-6.62l.12-.07a3.57,3.57,0,0,0-2.2-6.68h-.13A3.57,3.57,0,0,1,85.51,61l.08-.1a3.58,3.58,0,0,0-4.46-5.45l-.11.07a3.58,3.58,0,0,1-5.12-4.3l0-.13a3.57,3.57,0,0,0-6.12-3.46l-.09.1a3.57,3.57,0,0,1-6.32-2.16v-.14a3.57,3.57,0,0,0-7-1l0,.12a3.58,3.58,0,0,1-6.68.27l0-.12a3.58,3.58,0,0,0-6.86,1.57v.13a3.57,3.57,0,0,1-6.13,2.66L36.59,49a3.57,3.57,0,0,0-5.83,3.94l0,.12a3.57,3.57,0,0,1-4.75,4.7l-.12-.06a3.57,3.57,0,0,0-4,5.78l.09.1a3.57,3.57,0,0,1-2.74,6.09h-.13a3.57,3.57,0,0,0-1.65,6.84l.12.05a3.57,3.57,0,0,1-.35,6.67l-.13,0a3.58,3.58,0,0,0,.93,7h.13a3.58,3.58,0,0,1,2.09,6.35l-.11.08a3.4,3.4,0,0,0-1.32,2.5,12.58,12.58,0,0,1,2.87-.34c7.4,0,12.93,5.82,13.63,12.87a3.58,3.58,0,0,1,3.81,4.11l0,.13a3.58,3.58,0,0,0,6.66,2.28l.07-.11a3.57,3.57,0,0,1,6.61,1l0,.13a3.57,3.57,0,0,0,7-.28l0-.13a3.57,3.57,0,0,1,6.51-1.49l.08.11a3.57,3.57,0,0,0,6.45-2.8l0-.13a3.58,3.58,0,0,1,5.54-3.75l.11.08a3.57,3.57,0,0,0,5-5l-.07-.1a3.58,3.58,0,0,1,3.81-5.5l.13,0A3.57,3.57,0,0,0,90,93.88l-.11-.08a3.57,3.57,0,0,1,1.57-6.49l.14,0A3.58,3.58,0,0,0,91.94,80.26Zm-37.26,28A26.24,26.24,0,1,1,80.91,82,26.23,26.23,0,0,1,54.68,108.23Z"/><path class="cls-3" d="M90.11,80.24l-.13,0a3.62,3.62,0,0,1-.89-6.71l.12-.06A3.62,3.62,0,0,0,87,66.67l-.14,0a3.62,3.62,0,0,1-3.25-5.93l.08-.11a3.61,3.61,0,0,0-4.51-5.5l-.12.06a3.62,3.62,0,0,1-5.18-4.35l0-.13a3.63,3.63,0,0,0-6.21-3.51l-.08.11a3.62,3.62,0,0,1-6.4-2.19V45a3.62,3.62,0,0,0-7-1l0,.12a3.62,3.62,0,0,1-6.76.27l0-.12a3.62,3.62,0,0,0-7,1.59V46a3.62,3.62,0,0,1-6.21,2.7l-.09-.1a3.62,3.62,0,0,0-5.9,4l.05.12a3.62,3.62,0,0,1-4.81,4.76l-.13-.06a3.62,3.62,0,0,0-4.06,5.85l.1.1a3.62,3.62,0,0,1-2.78,6.17h-.13a3.62,3.62,0,0,0-1.67,6.93l.12,0a3.62,3.62,0,0,1-.36,6.76l-.12,0a3.62,3.62,0,0,0,.94,7.06h.13a3.62,3.62,0,0,1,2.11,6.43l-.1.08a3.62,3.62,0,0,0,3.43,6.25l.12,0a3.62,3.62,0,0,1,4.29,5.24l-.06.11A3.62,3.62,0,0,0,30.7,113l.1-.09a3.62,3.62,0,0,1,5.89,3.33l0,.13a3.62,3.62,0,0,0,6.74,2.31l.07-.12a3.62,3.62,0,0,1,6.69,1l0,.13a3.62,3.62,0,0,0,7.12-.29l0-.13a3.63,3.63,0,0,1,6.6-1.51l.07.11A3.62,3.62,0,0,0,70.54,115l0-.13a3.62,3.62,0,0,1,5.61-3.79l.11.08a3.62,3.62,0,0,0,5.07-5l-.08-.11a3.62,3.62,0,0,1,3.86-5.56l.13,0A3.62,3.62,0,0,0,88.13,94L88,94a3.62,3.62,0,0,1,1.59-6.58l.13,0A3.62,3.62,0,0,0,90.11,80.24ZM52.39,108.56A26.56,26.56,0,1,1,79,82,26.56,26.56,0,0,1,52.39,108.56Z"/><path class="cls-2" d="M205.94,80.26l-.12,0a3.57,3.57,0,0,1-.89-6.62l.12-.07a3.57,3.57,0,0,0-2.2-6.68h-.13A3.57,3.57,0,0,1,199.51,61l.08-.1a3.58,3.58,0,0,0-4.46-5.45l-.11.07a3.58,3.58,0,0,1-5.12-4.3l0-.13a3.57,3.57,0,0,0-6.12-3.46l-.09.1a3.57,3.57,0,0,1-6.32-2.16v-.14a3.57,3.57,0,0,0-7-1l0,.12a3.58,3.58,0,0,1-6.68.27l-.05-.12a3.58,3.58,0,0,0-6.86,1.57v.13a3.57,3.57,0,0,1-6.13,2.66l-.09-.09a3.57,3.57,0,0,0-5.83,3.94l.05.12a3.57,3.57,0,0,1-4.75,4.7l-.12-.06a3.57,3.57,0,0,0-4,5.78l.09.1a3.57,3.57,0,0,1-2.74,6.09h-.13a3.57,3.57,0,0,0-1.65,6.84l.12.05a3.57,3.57,0,0,1-.35,6.67l-.13,0a3.58,3.58,0,0,0,.93,7h.13a3.58,3.58,0,0,1,2.09,6.35l-.11.08a3.4,3.4,0,0,0-1.32,2.5,12.58,12.58,0,0,1,2.87-.34c7.4,0,12.93,5.82,13.63,12.87a3.58,3.58,0,0,1,3.81,4.11l0,.13a3.58,3.58,0,0,0,6.66,2.28l.07-.11a3.57,3.57,0,0,1,6.61,1l0,.13a3.57,3.57,0,0,0,7-.28l0-.13a3.57,3.57,0,0,1,6.51-1.49l.08.11a3.57,3.57,0,0,0,6.45-2.8l0-.13a3.58,3.58,0,0,1,5.54-3.75l.11.08a3.57,3.57,0,0,0,5-5l-.07-.1a3.58,3.58,0,0,1,3.81-5.5l.13,0A3.57,3.57,0,0,0,204,93.88l-.11-.08a3.57,3.57,0,0,1,1.57-6.49l.14,0A3.58,3.58,0,0,0,205.94,80.26Zm-37.26,28A26.24,26.24,0,1,1,194.91,82,26.23,26.23,0,0,1,168.68,108.23Z"/><path class="cls-4" d="M204.11,80.24l-.13,0a3.62,3.62,0,0,1-.89-6.71l.12-.06A3.62,3.62,0,0,0,201,66.67l-.14,0a3.62,3.62,0,0,1-3.25-5.93l.08-.11a3.61,3.61,0,0,0-4.51-5.5l-.12.06a3.62,3.62,0,0,1-5.18-4.35l0-.13a3.63,3.63,0,0,0-6.21-3.51l-.08.11a3.62,3.62,0,0,1-6.4-2.19V45a3.62,3.62,0,0,0-7.05-1l0,.12a3.62,3.62,0,0,1-6.76.27l-.05-.12a3.62,3.62,0,0,0-6.95,1.59V46a3.62,3.62,0,0,1-6.21,2.7l-.09-.1a3.62,3.62,0,0,0-5.9,4l0,.12a3.62,3.62,0,0,1-4.81,4.76l-.13-.06a3.62,3.62,0,0,0-4.06,5.85l.1.1a3.62,3.62,0,0,1-2.78,6.17h-.13a3.62,3.62,0,0,0-1.67,6.93l.12,0a3.62,3.62,0,0,1-.36,6.76l-.12,0a3.62,3.62,0,0,0,.94,7.06h.13a3.62,3.62,0,0,1,2.11,6.43l-.1.08a3.62,3.62,0,0,0,3.43,6.25l.12,0a3.62,3.62,0,0,1,4.29,5.24l-.06.11A3.62,3.62,0,0,0,144.7,113l.1-.09a3.62,3.62,0,0,1,5.89,3.33l0,.13a3.62,3.62,0,0,0,6.74,2.31l.07-.12a3.62,3.62,0,0,1,6.69,1l0,.13a3.62,3.62,0,0,0,7.12-.29l0-.13a3.63,3.63,0,0,1,6.6-1.51l.07.11a3.62,3.62,0,0,0,6.53-2.83l0-.13a3.62,3.62,0,0,1,5.61-3.79l.11.08a3.62,3.62,0,0,0,5.07-5l-.08-.11a3.62,3.62,0,0,1,3.86-5.56l.13,0a3.62,3.62,0,0,0,2.92-6.5L202,94a3.62,3.62,0,0,1,1.59-6.58l.13,0A3.62,3.62,0,0,0,204.11,80.24Zm-37.72,28.32A26.56,26.56,0,1,1,193,82,26.56,26.56,0,0,1,166.39,108.56Z"/><path class="cls-2" d="M203.94,80.26l-.12,0a3.57,3.57,0,0,1-.89-6.62l.12-.07a3.57,3.57,0,0,0-2.2-6.68h-.13A3.57,3.57,0,0,1,197.51,61l.08-.1a3.58,3.58,0,0,0-4.46-5.45l-.11.07a3.58,3.58,0,0,1-5.12-4.3l0-.13a3.57,3.57,0,0,0-6.12-3.46l-.09.1a3.57,3.57,0,0,1-6.32-2.16v-.14a3.57,3.57,0,0,0-7-1l0,.12a3.58,3.58,0,0,1-6.68.27l-.05-.12a3.58,3.58,0,0,0-6.86,1.57v.13a3.57,3.57,0,0,1-6.13,2.66l-.09-.09a3.57,3.57,0,0,0-5.83,3.94l.05.12a3.57,3.57,0,0,1-4.75,4.7l-.12-.06a3.57,3.57,0,0,0-4,5.78l.09.1a3.57,3.57,0,0,1-2.74,6.09h-.13a3.57,3.57,0,0,0-1.65,6.84l.12.05a3.57,3.57,0,0,1-.35,6.67l-.13,0a3.58,3.58,0,0,0,.93,7h.13a3.58,3.58,0,0,1,2.09,6.35l-.11.08a3.4,3.4,0,0,0-1.32,2.5,12.58,12.58,0,0,1,2.87-.34c7.4,0,12.93,5.82,13.63,12.87a3.58,3.58,0,0,1,3.81,4.11l0,.13a3.58,3.58,0,0,0,6.66,2.28l.07-.11a3.57,3.57,0,0,1,6.61,1l0,.13a3.57,3.57,0,0,0,7-.28l0-.13a3.57,3.57,0,0,1,6.51-1.49l.08.11a3.57,3.57,0,0,0,6.45-2.8l0-.13a3.58,3.58,0,0,1,5.54-3.75l.11.08a3.57,3.57,0,0,0,5-5l-.07-.1a3.58,3.58,0,0,1,3.81-5.5l.13,0A3.57,3.57,0,0,0,202,93.88l-.11-.08a3.57,3.57,0,0,1,1.57-6.49l.14,0A3.58,3.58,0,0,0,203.94,80.26Zm-37.26,28A26.24,26.24,0,1,1,192.91,82,26.23,26.23,0,0,1,166.68,108.23Z"/><path class="cls-3" d="M202.11,80.24l-.13,0a3.62,3.62,0,0,1-.89-6.71l.12-.06A3.62,3.62,0,0,0,199,66.67l-.14,0a3.62,3.62,0,0,1-3.25-5.93l.08-.11a3.61,3.61,0,0,0-4.51-5.5l-.12.06a3.62,3.62,0,0,1-5.18-4.35l0-.13a3.63,3.63,0,0,0-6.21-3.51l-.08.11a3.62,3.62,0,0,1-6.4-2.19V45a3.62,3.62,0,0,0-7.05-1l0,.12a3.62,3.62,0,0,1-6.76.27l-.05-.12a3.62,3.62,0,0,0-6.95,1.59V46a3.62,3.62,0,0,1-6.21,2.7l-.09-.1a3.62,3.62,0,0,0-5.9,4l0,.12a3.62,3.62,0,0,1-4.81,4.76l-.13-.06a3.62,3.62,0,0,0-4.06,5.85l.1.1a3.62,3.62,0,0,1-2.78,6.17h-.13a3.62,3.62,0,0,0-1.67,6.93l.12,0a3.62,3.62,0,0,1-.36,6.76l-.12,0a3.62,3.62,0,0,0,.94,7.06h.13a3.62,3.62,0,0,1,2.11,6.43l-.1.08a3.62,3.62,0,0,0,3.43,6.25l.12,0a3.62,3.62,0,0,1,4.29,5.24l-.06.11A3.62,3.62,0,0,0,142.7,113l.1-.09a3.62,3.62,0,0,1,5.89,3.33l0,.13a3.62,3.62,0,0,0,6.74,2.31l.07-.12a3.62,3.62,0,0,1,6.69,1l0,.13a3.62,3.62,0,0,0,7.12-.29l0-.13a3.63,3.63,0,0,1,6.6-1.51l.07.11a3.62,3.62,0,0,0,6.53-2.83l0-.13a3.62,3.62,0,0,1,5.61-3.79l.11.08a3.62,3.62,0,0,0,5.07-5l-.08-.11a3.62,3.62,0,0,1,3.86-5.56l.13,0a3.62,3.62,0,0,0,2.92-6.5L200,94a3.62,3.62,0,0,1,1.59-6.58l.13,0A3.62,3.62,0,0,0,202.11,80.24Zm-37.72,28.32A26.56,26.56,0,1,1,191,82,26.56,26.56,0,0,1,164.39,108.56Z"/><path class="cls-5" d="M136.87,34.8l-.1,0a2.66,2.66,0,0,1-.64-4.92l.08-.05a2.66,2.66,0,0,0-1.61-5h-.1a2.65,2.65,0,0,1-2.36-4.35l.06-.07a2.65,2.65,0,0,0-3.28-4.05l-.08.05a2.64,2.64,0,0,1-3.76-3.2l0-.09a2.63,2.63,0,0,0-4.5-2.57l-.07.08A2.62,2.62,0,0,1,115.9,9v-.1a2.62,2.62,0,0,0-5.11-.75l0,.09a2.61,2.61,0,0,1-4.9.2l0-.09a2.62,2.62,0,0,0-5,1.16v.1a2.61,2.61,0,0,1-2.12,2.72c-.76,6.13-6.32,11.11-12.4,11.72a2.64,2.64,0,0,1-2.77,2.83h-.1A2.67,2.67,0,0,0,82.15,32l.09,0A2.66,2.66,0,0,1,82,37l-.09,0a2.67,2.67,0,0,0,.69,5.19h.09a2.66,2.66,0,0,1,1.53,4.72l-.07.06a2.66,2.66,0,0,0,2.49,4.59l.09,0a2.65,2.65,0,0,1,3.11,3.84l0,.09a2.64,2.64,0,0,0,4,3.37l.08-.07a2.63,2.63,0,0,1,4.28,2.45l0,.09A2.63,2.63,0,0,0,103,63l.05-.09a2.62,2.62,0,0,1,4.86.72l0,.09a2.62,2.62,0,0,0,5.17-.21v-.09a2.62,2.62,0,0,1,4.79-1.11l.06.08a2.63,2.63,0,0,0,4.74-2.08l0-.1a2.63,2.63,0,0,1,4.07-2.78l.08.06a2.64,2.64,0,0,0,3.68-3.68l-.06-.08a2.65,2.65,0,0,1,2.8-4.08l.1,0a2.66,2.66,0,0,0,2.12-4.77l-.08-.06A2.66,2.66,0,0,1,136.5,40h.1A2.66,2.66,0,0,0,136.87,34.8ZM109.48,55.58a19.49,19.49,0,1,1,19.28-19.49A19.38,19.38,0,0,1,109.48,55.58Z"/><path class="cls-6" d="M134.34,34.8l-.1,0a2.67,2.67,0,0,1-.65-4.92l.09-.05a2.66,2.66,0,0,0-1.61-5H132a2.65,2.65,0,0,1-2.36-4.35l.06-.07a2.65,2.65,0,0,0-3.28-4.05l-.08.05a2.64,2.64,0,0,1-3.76-3.2l0-.09a2.63,2.63,0,0,0-4.5-2.57l-.07.08A2.62,2.62,0,0,1,113.37,9v-.1a2.62,2.62,0,0,0-5.12-.75l0,.09a2.61,2.61,0,0,1-4.9.2l0-.09a2.62,2.62,0,0,0-5,1.16v.1a2.63,2.63,0,0,1-4.51,2l-.06-.07a2.64,2.64,0,0,0-4.29,2.93l0,.09a2.63,2.63,0,0,1-3.49,3.48l-.09,0a2.65,2.65,0,0,0-3,4.3l.07.07a2.66,2.66,0,0,1-2,4.53h-.09A2.66,2.66,0,0,0,79.62,32l.09,0a2.66,2.66,0,0,1-.26,5l-.09,0A2.67,2.67,0,0,0,80,42.21h.1a2.66,2.66,0,0,1,1.53,4.72L81.6,47a2.66,2.66,0,0,0,2.49,4.59l.09,0a2.65,2.65,0,0,1,3.11,3.84l-.05.09a2.64,2.64,0,0,0,4,3.37l.08-.07a2.63,2.63,0,0,1,4.27,2.45v.09a2.63,2.63,0,0,0,4.89,1.7l0-.09a2.62,2.62,0,0,1,4.86.72l0,.09a2.62,2.62,0,0,0,5.17-.21v-.09a2.62,2.62,0,0,1,4.79-1.11l.06.08a2.63,2.63,0,0,0,4.74-2.08l0-.1a2.63,2.63,0,0,1,4.07-2.78l.08.06a2.64,2.64,0,0,0,3.68-3.68l-.06-.08a2.65,2.65,0,0,1,2.8-4.08l.1,0a2.66,2.66,0,0,0,2.12-4.77l-.08-.06A2.66,2.66,0,0,1,134,40h.1A2.66,2.66,0,0,0,134.34,34.8ZM107,55.58a19.49,19.49,0,1,1,19.28-19.49A19.38,19.38,0,0,1,107,55.58Z"/><path class="cls-7" d="M134.62,151.07c-11.56,0-21-8-21-17.89s9.41-17.89,21-17.89,21,8,21,17.89S146.18,151.07,134.62,151.07Zm0-31.06c-8.66,0-15.7,5.91-15.7,13.17s7,13.16,15.7,13.16,15.7-5.91,15.7-13.16S143.28,120,134.62,120Z"/><path class="cls-7" d="M78.61,151.07c-11.56,0-21-8-21-17.89s9.41-17.89,21-17.89,21,8,21,17.89S90.17,151.07,78.61,151.07Zm0-31.06c-8.66,0-15.7,5.91-15.7,13.17s7,13.16,15.7,13.16,15.7-5.91,15.7-13.16S87.27,120,78.61,120Z"/><path class="cls-7" d="M135.66,128.56v-19c-16.54,1.28-13,1.12-26.26,1.12l2.17-1.12c-13.24,0-9.39,0-32.87.44l-.09,18.54c0,12.18,11,26.32,23.27,28v16.73L89.28,189.1h37.59l-12.61-15.87V156.5C126.12,154.4,135.66,140.53,135.66,128.56Z"/><path class="cls-8" d="M135.66,110.27c0,3.26-12.77,5.9-28.52,5.9s-28.53-2.64-28.53-5.9,12.77-5.9,28.53-5.9S135.66,107,135.66,110.27Z"/><rect class="cls-7" x="80.82" y="189.1" width="57.46" height="14.27"/></g></g></svg>