<svg xmlns="http://www.w3.org/2000/svg" viewBox="0 0 167.48 161.5"><defs><style>.cls-1{fill:#8fb9d1;}.cls-2{fill:#ebcb42;}.cls-3{fill:#2b4449;}.cls-4{fill:#4fd1d9;}.cls-5{fill:#fff;}.cls-6{fill:#a4a14f;}</style></defs><title>mision</title><g id="Capa_2" data-name="Capa 2"><g id="Capa_2-2" data-name="Capa 2"><circle class="cls-1" cx="82.96" cy="80.75" r="80.75" transform="translate(-32.8 82.31) rotate(-45)"/><circle class="cls-2" cx="87.02" cy="52.49" r="33.42" transform="translate(-13.46 37.3) rotate(-22.5)"/><path class="cls-2" d="M92.76,55.53a1.5,1.5,0,0,0,0-3,1.5,1.5,0,0,0,0,3Z"/><path class="cls-3" d="M83.33,38.57s8.38-10.6,17.52-5,16.56,8.14,19.75,6.4c0,0-7.17,11.65-16.19,11s-19.49-1.81-21.08,1.55Z"/><rect class="cls-3" x="82.49" y="35.55" width="1.67" height="33.98" rx="0.7"/><path class="cls-4" d="M95.35,35.2a6.71,6.71,0,1,1-6.7,6.71A6.7,6.7,0,0,1,95.35,35.2Z"/><path class="cls-5" d="M96.69,45.48H95.33V40.34a4.79,4.79,0,0,1-1.76,1V40.13a4,4,0,0,0,1.16-.66,2.66,2.66,0,0,0,.86-1.14h1.1Z"/><path class="cls-5" d="M126.51,102.89c-3.75-1.3-7.82,1-11.87,5.44-8.62-19.44-19-37.56-28.75-40.94C75.78,63.88,63.81,82.46,53.69,104a17,17,0,0,0-5.22-3.19C31.52,94.94,8.09,161.5,8.09,161.5h154S142.92,108.58,126.51,102.89Z"/><path class="cls-3" d="M86.66,161.5S111.2,97.2,129,102.89s38.53,58.61,38.53,58.61Z"/><path class="cls-3" d="M0,161.5s25.68-66.56,44.25-60.67S84.57,161.5,84.57,161.5Z"/><path class="cls-6" d="M32.28,161.5S63.39,59.57,85.44,67.39,132.7,161.5,132.7,161.5Z"/></g></g></svg>