<svg xmlns="http://www.w3.org/2000/svg" viewBox="0 0 179.41 179.41"><defs><style>.cls-1{fill:#335256;}.cls-2{fill:#c66752;}.cls-3{fill:#bf8b77;}.cls-4{fill:#ce9b82;}.cls-5{fill:#d9a98e;}.cls-6{fill:#60a2a2;}.cls-7{fill:#433930;}</style></defs><title>valores</title><g id="Capa_2" data-name="Capa 2"><g id="Capa_2-2" data-name="Capa 2"><circle class="cls-1" cx="89.7" cy="89.7" r="89.7" transform="translate(-37.16 89.7) rotate(-45)"/><path class="cls-2" d="M151.61,102.9l-22.77,9c-20,13.77-49.83,11.46-52.26,4.82l-4.1-11.18A12.9,12.9,0,0,1,80.12,89l58.54-21.46a12.88,12.88,0,0,1,16.49,7.64l4.11,11.19A12.89,12.89,0,0,1,151.61,102.9Z"/><path class="cls-3" d="M159.26,83.81l-4.11-11.18A12.88,12.88,0,0,0,138.66,65L111.18,75.06l-9.36-9a4.21,4.21,0,0,0-5.93.11l-4.1,4.25a4.21,4.21,0,0,0,.12,5.94l4.35,4.18L80.12,86.45a12.89,12.89,0,0,0-7.64,16.49l4.1,11.19c2.43,6.64,33.5,9,56-6.85l19-7A12.9,12.9,0,0,0,159.26,83.81Z"/><rect class="cls-4" x="67.57" y="76.8" width="45.35" height="13.03" rx="5.72"/><rect class="cls-4" x="70.02" y="88.78" width="40.8" height="11.48" rx="5.72"/><rect class="cls-4" x="70.44" y="99.35" width="39.15" height="13.14" rx="5.72"/><path class="cls-5" d="M107.83,76.68h-22a4.75,4.75,0,0,0-.48-5.43L83.46,69a4.76,4.76,0,0,0-6.69-.57L65.83,77.65a5.12,5.12,0,0,0-.83.92l-23.32.5A12.39,12.39,0,0,0,29.59,91.69l.28,12.91a12.4,12.4,0,0,0,12.62,12.09l41.3-.89a12.28,12.28,0,0,0,8.26-3.44h12.46a3.79,3.79,0,0,0,3.77-3.77V103a3.76,3.76,0,0,0-1.51-3,3.78,3.78,0,0,0,2.73-3.62V92.43a3.8,3.8,0,0,0-1.2-2.76,3.78,3.78,0,0,0,3.3-3.74V80.45A3.78,3.78,0,0,0,107.83,76.68Z"/><rect class="cls-2" x="62.89" y="108.31" width="21.43" height="11.48" rx="5.72" transform="translate(190.06 44.32) rotate(91.92)"/><rect class="cls-2" x="73.31" y="109.07" width="22.79" height="11.48" rx="5.72" transform="translate(202.29 34) rotate(91.92)"/><rect class="cls-2" x="84.55" y="106.48" width="22.82" height="12.01" rx="5.72" transform="translate(211.61 20.36) rotate(91.92)"/><path class="cls-3" d="M99.05,103,94,102.81a3.78,3.78,0,0,0-3.89,3.64l0,.71a3.76,3.76,0,0,0-3.13-1.87L83,105.15a3.79,3.79,0,0,0-3.73,2.68,3.78,3.78,0,0,0-3.47-2.62l-3.93-.14a3.79,3.79,0,0,0-3.9,3.65l-.46,13.87a3.78,3.78,0,0,0,3.64,3.9l3.93.13a3.8,3.8,0,0,0,3.53-2.13,3.78,3.78,0,0,0,3.63,3.44l3.93.13a3.78,3.78,0,0,0,3.89-3.64l0-.68a3.75,3.75,0,0,0,3.13,1.88l5.07.17a3.78,3.78,0,0,0,3.89-3.64l.52-15.27A3.78,3.78,0,0,0,99.05,103Z"/><rect class="cls-6" x="17.95" y="78.17" width="43" height="34.26" transform="translate(-59.77 123.5) rotate(-83.38)"/><rect class="cls-7" x="7.77" y="73.38" width="47.31" height="41.16" transform="translate(-65.53 114.34) rotate(-83.38)"/><rect class="cls-6" x="115.6" y="68.3" width="45.47" height="36.23" transform="translate(105.88 246.25) rotate(-110.51)"/><rect class="cls-7" x="122.26" y="59.73" width="50.02" height="45.75" transform="translate(121.51 249.48) rotate(-110.51)"/></g></g></svg>