<svg xmlns="http://www.w3.org/2000/svg" width="313.91" height="286.62" viewBox="0 0 313.91 286.62">
  <defs>
    <style>
      .cls-1 {
        fill: #fff;
      }
    </style>
  </defs>
  <title>legal</title>
  <g id="Capa_2" data-name="Capa 2">
    <g id="COLORS">
      <g>
        <g>
          <g>
            <path class="cls-1" d="M295.12,234.23V248.5H139.28V234.23H295.12m1-1H138.28V249.5H296.12V233.23Z"/>
            <path class="cls-1" d="M296.12,231.6a1.63,1.63,0,0,1,1.63,1.63V249.5a1.63,1.63,0,0,1-1.63,1.63H138.28a1.63,1.63,0,0,1-1.63-1.63V233.23a1.63,1.63,0,0,1,1.63-1.63H296.12M139.91,247.86H294.48v-13H139.91v13M296.12,230.6H138.28a2.63,2.63,0,0,0-2.63,2.63V249.5a2.63,2.63,0,0,0,2.63,2.63H296.12a2.63,2.63,0,0,0,2.63-2.63V233.23a2.63,2.63,0,0,0-2.63-2.63ZM140.91,246.86v-11H293.48v11Z"/>
          </g>
          <g>
            <g>
              <path class="cls-1" d="M308.43,252.44v28.69H126V252.44H308.43m1-1H125v30.69H309.43V251.44Z"/>
              <path class="cls-1" d="M309.43,249.81a1.63,1.63,0,0,1,1.63,1.63v30.69a1.63,1.63,0,0,1-1.63,1.63H125a1.64,1.64,0,0,1-1.64-1.63V251.44a1.64,1.64,0,0,1,1.64-1.63H309.43M126.61,280.5H307.79V253.07H126.61V280.5m182.82-31.69H125a2.64,2.64,0,0,0-2.64,2.63v30.69a2.63,2.63,0,0,0,2.64,2.63H309.43a2.63,2.63,0,0,0,2.63-2.63V251.44a2.63,2.63,0,0,0-2.63-2.63ZM127.61,279.5V254.07H306.79V279.5Z"/>
            </g>
            <g>
              <path class="cls-1" d="M310.28,250.59V283H124.11v-32.4H310.28m1-1H123.11V284H311.28v-34.4Z"/>
              <path class="cls-1" d="M311.28,248a1.64,1.64,0,0,1,1.63,1.64V284a1.63,1.63,0,0,1-1.63,1.63H123.11a1.63,1.63,0,0,1-1.63-1.63v-34.4a1.64,1.64,0,0,1,1.63-1.64H311.28M124.75,282.36h184.9V251.22H124.75v31.14M311.28,247H123.11a2.64,2.64,0,0,0-2.63,2.64V284a2.63,2.63,0,0,0,2.63,2.63H311.28a2.63,2.63,0,0,0,2.63-2.63v-34.4a2.63,2.63,0,0,0-2.63-2.64ZM125.75,281.36V252.22h182.9v29.14Z"/>
            </g>
          </g>
        </g>
        <g>
          <g>
            <path class="cls-1" d="M174,117.2l5.54,6.77,5.53,6.76C174,140.47,41,257.28,29,267.06a15,15,0,0,1-9.51,3.8c-7,0-12-6-12.06-6.07A19.54,19.54,0,0,1,4,257.56c-1.27-5.53.57-10.35,5.47-14.36,12-9.79,152.78-117,164.53-126m.16-1.38S21.43,232.13,8.86,242.43s-2.19,23-2.19,23,5.27,6.44,12.84,6.44a15.82,15.82,0,0,0,10.14-4c12.58-10.28,156.83-137,156.83-137l-6.15-7.51-6.15-7.51Z"/>
            <path class="cls-1" d="M174.18,114.19h0a1.62,1.62,0,0,1,1.26.6l12.3,15a1.62,1.62,0,0,1-.19,2.26l-1.11,1C152.72,162.66,41.83,260,30.68,269.1a17.51,17.51,0,0,1-11.17,4.39c-8.23,0-13.86-6.75-14.1-7a22.7,22.7,0,0,1-4-8.31c-1-4.53-.78-11.14,6.37-17C20.19,231,167,119.28,173.19,114.52a1.68,1.68,0,0,1,1-.33m-154.67,156a14.35,14.35,0,0,0,9.11-3.66c10.86-8.89,121.29-105.79,154.87-135.28l.73-.63-.61-.75-9.08-11.09-.61-.75-.77.59C157.68,130.44,21.72,234,9.89,243.69c-4.7,3.84-6.47,8.46-5.26,13.72a19.48,19.48,0,0,0,3.27,6.94l0,0,0,0c.51.6,5.18,5.82,11.56,5.82m154.67-157a2.61,2.61,0,0,0-1.59.54c-6.24,4.75-152.93,116.45-165.4,126.66-7.55,6.17-7.82,13.18-6.71,18a23.11,23.11,0,0,0,4.16,8.72c.24.3,6.15,7.4,14.87,7.4a18.47,18.47,0,0,0,11.81-4.62c12.46-10.2,151-131.88,156.89-137a2.62,2.62,0,0,0,.3-3.64l-12.29-15a2.65,2.65,0,0,0-2-1Zm-154.67,156c-6.19,0-10.76-5.43-10.8-5.47a18.22,18.22,0,0,1-3.1-6.57c-1.12-4.87.53-9.15,4.91-12.73,11.62-9.5,145.11-111.2,163.23-125l9.08,11.08C165.71,145.58,39.6,256.3,28,265.8a13.38,13.38,0,0,1-8.48,3.43Z"/>
          </g>
          <g>
            <path class="cls-1" d="M188.72,16.39l49.05,59.94,49,60-70.43,57.63-49-59.95L118.29,74l70.43-57.63m.14-1.41-72,58.9,49.68,60.71,49.69,60.72,72-58.89L238.54,75.7,188.86,15Z"/>
            <path class="cls-1" d="M188.9,13.35H189a1.57,1.57,0,0,1,1.1.59l99.37,121.44a1.63,1.63,0,0,1-.23,2.29l-72,58.9a1.68,1.68,0,0,1-1,.36h-.17a1.65,1.65,0,0,1-1.09-.59L115.62,74.92a1.68,1.68,0,0,1-.36-1.2,1.61,1.61,0,0,1,.59-1.1l72-58.9a1.71,1.71,0,0,1,1.07-.37M216.48,193l.77-.63,67.91-55.57.78-.63-.64-.78-96-117.36-.64-.77-.77.63L120,73.48l-.77.63.63.78,96,117.35.64.78M188.9,12.35a2.7,2.7,0,0,0-1.7.59l-72,58.91a2.59,2.59,0,0,0-1,1.77,2.56,2.56,0,0,0,.58,1.93L214.21,197a2.63,2.63,0,0,0,1.78,1h.26a2.59,2.59,0,0,0,1.66-.59l72-58.9a2.63,2.63,0,0,0,.37-3.7L190.9,13.32a2.62,2.62,0,0,0-1.78-1Zm27.72,179.26-96-117.36,67.9-55.57,96,117.37-67.91,55.56Z"/>
          </g>
          <g>
            <g>
              <path class="cls-1" d="M287.85,120.14v1a12.45,12.45,0,0,1,7.87,22.09l-74,60.56A12.44,12.44,0,0,1,204.19,202,12.44,12.44,0,0,1,206,184.53L280,124a12.51,12.51,0,0,1,7.89-2.82v-1m0,0a13.44,13.44,0,0,0-8.52,3l-74,60.56a13.45,13.45,0,0,0,17,20.82l74-60.56a13.46,13.46,0,0,0-8.52-23.87Z"/>
              <path class="cls-1" d="M287.84,118.51a15.08,15.08,0,0,1,9.55,26.76l-74,60.56a15.09,15.09,0,0,1-21.23-2.12,15.08,15.08,0,0,1,2.13-21.22l74-60.56a15.13,15.13,0,0,1,9.55-3.42m-73.92,87.36a11.72,11.72,0,0,0,7.4-2.56l74-60.57a11.81,11.81,0,0,0-7.48-21,11.93,11.93,0,0,0-7.49,2.67l-74,60.57a11.82,11.82,0,0,0-1.66,16.62,12,12,0,0,0,9.24,4.23m73.92-88.36a16.12,16.12,0,0,0-10.18,3.64l-74,60.57A16.07,16.07,0,1,0,224,206.6L298,146a16.08,16.08,0,0,0-10.18-28.53Zm-73.92,87.36a10.94,10.94,0,0,1-8.47-3.86A10.81,10.81,0,0,1,207,185.79l74-60.57a10.91,10.91,0,0,1,6.85-2.44A10.81,10.81,0,0,1,294.69,142l-74,60.56a10.68,10.68,0,0,1-6.76,2.34Z"/>
            </g>
            <g>
              <path class="cls-1" d="M191.54,3.46h0a12.45,12.45,0,0,1,7.89,22.09l-74,60.56a12.46,12.46,0,0,1-20.28-10.87,12.32,12.32,0,0,1,4.51-8.39l74-60.57a12.46,12.46,0,0,1,7.88-2.82m0-1a13.44,13.44,0,0,0-8.51,3L109,66.08a13.45,13.45,0,0,0,17,20.81l74-60.57a13.45,13.45,0,0,0-8.52-23.86Z"/>
              <path class="cls-1" d="M191.42,0V1a15.32,15.32,0,0,1,11.8,5.35,15.1,15.1,0,0,1-2.12,21.23l-74,60.57A15.07,15.07,0,0,1,105.86,86,15.08,15.08,0,0,1,108,64.81L182,4.24A14.86,14.86,0,0,1,191.42,1V0m-73.8,88.18a11.72,11.72,0,0,0,7.4-2.56l74-60.56a11.82,11.82,0,0,0-7.49-21,11.68,11.68,0,0,0-7.48,2.68l-74,60.57A11.78,11.78,0,0,0,108.39,84a11.92,11.92,0,0,0,9.23,4.23M191.42,0a15.85,15.85,0,0,0-10.06,3.47L107.35,64a16.07,16.07,0,1,0,20.36,24.88l74-60.56A16.11,16.11,0,0,0,204,5.72,16.26,16.26,0,0,0,191.42,0Zm-73.8,87.18a10.89,10.89,0,0,1-8.46-3.86,10.78,10.78,0,0,1,1.52-15.21l74-60.57a10.83,10.83,0,0,1,15.23,1.51,10.84,10.84,0,0,1-1.52,15.24l-74,60.56a10.65,10.65,0,0,1-6.76,2.33Z"/>
            </g>
          </g>
        </g>
      </g>
    </g>
  </g>
</svg>
