<svg xmlns="http://www.w3.org/2000/svg" xmlns:xlink="http://www.w3.org/1999/xlink" viewBox="0 0 397 352.5"><defs><style>.cls-1{fill:#1ea6e2;}.cls-2{opacity:0.49;fill:url(#Degradado_sin_nombre);}.cls-3{fill:none;stroke:#000;stroke-linecap:round;stroke-miterlimit:10;stroke-width:7px;}.cls-4{fill:url(#Degradado_sin_nombre_119);}.cls-5{fill:#ddba7c;}.cls-6{opacity:0.76;}.cls-7{fill:url(#Degradado_sin_nombre_67);}.cls-8{fill:#636868;}.cls-9{fill:#202020;}</style><linearGradient id="Degradado_sin_nombre" y1="140.5" x2="397" y2="140.5" gradientUnits="userSpaceOnUse"><stop offset="0" stop-color="#fff"/><stop offset="1"/></linearGradient><linearGradient id="Degradado_sin_nombre_119" x1="129" y1="169.25" x2="286.16" y2="169.25" gradientUnits="userSpaceOnUse"><stop offset="0.09" stop-color="#faec3f"/><stop offset="0.34" stop-color="#b8b54a"/><stop offset="0.97" stop-color="#ebe400" stop-opacity="0.8"/></linearGradient><linearGradient id="Degradado_sin_nombre_67" x1="182.5" y1="225.5" x2="234.5" y2="225.5" gradientUnits="userSpaceOnUse"><stop offset="0.33" stop-color="#faec3f"/><stop offset="0.72" stop-color="#bdb949"/></linearGradient></defs><title>Diseño grafico</title><g id="Capa_2" data-name="Capa 2"><g id="Capa_2-2" data-name="Capa 2"><path class="cls-1" d="M0,0,80,281,397,141ZM98.54,89.12l209.38,61.33L130.5,212.5Z"/><path class="cls-2" d="M0,0,80,281,397,141ZM98.54,89.12l209.38,61.33L130.5,212.5Z"/><line class="cls-3" x1="378" y1="349" x2="31" y2="349"/><polyline class="cls-4" points="286.16 338.5 282 100 205 0 129 99 129 338.5"/><polygon class="cls-5" points="129 96.5 182.5 110 234.5 110 282 97.5 205 0.5 129 96.5"/><polyline class="cls-6" points="161 338.5 161 134 182.5 112.5 234.5 112.5 255.5 133.5 255.5 338.5"/><polyline class="cls-7" points="234.5 338.5 234.5 112.5 182.5 112.5 182.5 338.5"/><path d="M211.5,97.5c17,0,16-3,16-9s-7-6-7-6v-30l30,30c-22,3-16,30-16,30h-52C192.5,94.5,167,84,167,84l31.5-31.5v31s-7,0-7,5S191.5,97.5,211.5,97.5Z"/><path class="cls-8" d="M227.77,29.18s-18.57,15.22-46,.62L205,0Z"/><path class="cls-9" d="M223.88,286.68c-.08,0-.28,0-.23.09l.33,0Z"/><path class="cls-9" d="M223.31,287.25a1.09,1.09,0,0,0,.76.08c-.33-.06-.2-.1-.58-.16-.05-.08.09-.15.22-.14-.09,0,.06-.13-.15-.16-.25.13-.25.25,0,.37C223.46,287.28,223.37,287.25,223.31,287.25Z"/><path class="cls-9" d="M223.2,294.87l0-.05A.07.07,0,0,0,223.2,294.87Z"/><path class="cls-9" d="M223.08,299.56a.08.08,0,0,0-.07-.05S223.05,299.57,223.08,299.56Z"/><path class="cls-9" d="M222.71,300.36l0,0S222.68,300.35,222.71,300.36Z"/><path class="cls-9" d="M223.2,294.87l-.1.12C223.21,295,223.18,294.93,223.2,294.87Z"/><path class="cls-9" d="M224.19,288.24l-.09-.06,0,.06Z"/><path class="cls-9" d="M222.86,292.81v0l-.14,0Z"/><path class="cls-9" d="M222.73,291.22s.27,0,.4,0c-.12,0-.18,0-.2-.07Z"/><path class="cls-9" d="M223.08,288.68l-.05,0Z"/><path class="cls-9" d="M222.84,293.94l-.1,0Z"/><path class="cls-9" d="M194.54,311.93v-.05S194.53,311.93,194.54,311.93Z"/><polygon class="cls-9" points="192.68 310.54 192.71 310.53 192.71 310.37 192.68 310.54"/><path class="cls-9" d="M222.33,301.82h0S222.31,301.8,222.33,301.82Z"/><path class="cls-9" d="M217.68,309.33c.15.25-.25.33,0,.61C217.64,309.83,217.87,309.5,217.68,309.33Z"/><path class="cls-9" d="M224.15,288.29a.13.13,0,0,1,0,.06A.06.06,0,0,0,224.15,288.29Z"/><path class="cls-9" d="M217.66,309.94h0l0,0Z"/><path class="cls-9" d="M222.41,305.19l.12,0Z"/><path class="cls-9" d="M222.88,302.69l0,.06A.07.07,0,0,0,222.88,302.69Z"/><path class="cls-9" d="M222.75,306.51s-.07,0,0,.09h0S222.7,306.54,222.75,306.51Z"/><path class="cls-9" d="M222.68,307.86l0,0v0Z"/><path class="cls-9" d="M198.69,311.77a1.82,1.82,0,0,1-.07-.25C198.65,311.72,198.45,311.79,198.69,311.77Z"/><path class="cls-9" d="M224,288.25c.07,0,.11,0,.12,0s0,0,0-.05Z"/><path class="cls-9" d="M225,306.67l-.05.22A.71.71,0,0,0,225,306.67Z"/><path class="cls-9" d="M208.49,311.69l-.05,0S208.48,311.72,208.49,311.69Z"/><path class="cls-9" d="M224.91,307.54a.46.46,0,0,0-.2.11l.07,0Z"/><path class="cls-9" d="M198.62,311.52Z"/><path class="cls-9" d="M197.2,312.19c.2,0,.09-.36.14-.57.24-.11.11.27.2.46.15-.1.27-.44.38-.43a.29.29,0,0,1,0,.16c.16-.29.48,0,.67-.38a.29.29,0,0,1,0,.09,3.27,3.27,0,0,1,0-.51c.1,0,.17-.23.21,0-.06,0-.06.09-.09.16l.1-.1c.09.35-.13.12-.13.38.19-.12.41-.41.55-.31,0,.34-.34.12-.14.42l-.23-.13c.18.53-.13,0,0,.54.29.09.33-.18.62-.08.07-.19,0-.28,0-.47.42-.34.34.85.64.4.08-.23.11-.66.33-.43l-.07.38c.29,0,.16-.55.46-.29,0,.15-.22.13-.18.17.2.3.14-.22.29-.22l0,.34c.3,0,.64-.3,1-.36,0,.1-.07.2,0,.31a1.7,1.7,0,0,1,1.32.23l.15-.29s.07.13,0,.19c.16.11,0-.19.09-.3s.12.17.06.25c.28-.25.8-.54,1.1-.22l-.06.08c.24.12.26-.6.48-.33l0,.06c.5.12,1.06-.15,1.44.29.07-.42.5.19.53-.4.29.29.21.39.61.59.11,0,.16-.37.29-.43v.31l.18-.33.1.37.12-.08a.27.27,0,0,1-.1-.23c.2-.14.48.22.48.37l.47-.26c0,.12-.09.17-.15.25.24-.32,0,.32.27,0,0-.07,0-.18,0-.24a.45.45,0,0,0,.56.1l0,.22a8.87,8.87,0,0,0,1.11-.11c-.14-.1-.11-.46,0-.5l0,.32c.08-.2-.11-.12,0-.36.15,0,.1.37,0,.47l.17-.11c0,.1,0,.15,0,.27.08-.2.31.33.41,0v.1a8.13,8.13,0,0,0,.87-.13c0-.28.13-.22.22-.45.23.09.49.31.77.29s.05-.24.14-.41c0,.26.29.23.15.42a2.11,2.11,0,0,0,.85-.27c-.05-.1-.1-.15-.07-.23s.17.1.16.23l0,0c.47-.38,1.1.74,1.47.21l0,0,.39-.28c.18.05-.11.2,0,.36.42-.43.67,0,1-.23.27.75,1-.06,1.32.42l0-.18c.1-.17.12.1.19.14,0-.13-.11-.15,0-.25a2.31,2.31,0,0,1,1.22.06,6,6,0,0,0,1.4.31c.44,0,.07-.92.67-.63l-.07.36c.38-.29.89-.5,1.31-.86a1.75,1.75,0,0,0,.71-1.32c.06.07.15.1.11.19.32-.11.22-.66,0-.69,0-.11.18,0,.29-.05s-.24-.44,0-.49c0,0,.07.05.08.08s.08-.44-.21-.38c.16-.24-.09-.45.08-.62-.3-.13.17-.37-.26-.43.45,0,.38-.37.18-.52.13.05.14-.12.33-.05,0-.17-.08-.32-.31-.3.55-.27-.41-.61.29-.75a6.42,6.42,0,0,1-.46-1.36c.45,0,0,.47.5.47-.17-.41-.55-.66-.43-1.06.06-.1.19.07.27.1-.18-.41.06-.78-.18-1.15a.2.2,0,0,1,.13.08c0-.07.06-.16-.14-.16l.05.07c-.3.11-.61-.29-.77-.31.59.13.15-.35.89-.15a.36.36,0,0,0-.27-.1c0-.07.12-.09.28,0-.11-.26-.33-.17-.32-.4.1,0,.14.05.25.07-.19-.12-.38-.24-.29-.43.06,0,.14,0,.13.05,0-.34-.51-.58-.32-.94.43.11.15-.13.52-.14l-.11-.2-.18.07c0-.17-.26-.32-.14-.47l.15.13-.07-.33-.14.19c-.19-.18-.47,0-.37-.21,0,0,0-.18.23-.27h0c-.12-.08-.25-.17-.15-.3s.41,0,.49,0c-.31-.09-.09-.41-.42-.51a.85.85,0,0,0,.31,0l-.25-.07c.08-.08.12-.09.27-.08,0-.24-.47.08-.27-.21,0,0,.06,0,.1.06.1-.29-.17-.55,0-.82.37-.08.09.23.41.14-.08-.38-.47-.78-.38-1.15l0,.07c-.54,0,.25-.28,0-.46a.53.53,0,0,0,.24,0c.07-.25-.15-.51-.32-.89l.13.05c.12-.16.06-.4.12-.56-.14,0-.12-.14-.31-.07.75-.52-.45-.93.18-1.39,0,.05.12.12.12.08l-.14-.37c-.23,0-.14,0-.32.14s-.25-.14-.25-.24c.16.16.37,0,.5-.09-.07,0-.15,0-.22,0,.4-.21-.47,0-.2-.29h.12c-.07-.1-.23-.18-.2-.29.26-.06.13.1.35.1,0-.15-.52-.28-.26-.43.07.06.08.16.16.22.3-.17.22-.18.27-.29h0l.13-.27-.08.07c-.71-.15-.15-.37-.62-.6.44.22.25,0,.56,0,.08-.07.17-.18.25-.15-.25-.11.18-.22-.18-.37.09,0,0-.12.24-.11-.08-.15-.16,0-.29,0-.34-.22.37-.59-.1-.91-.21-.29-.54-.32-.73-.59.15-.1.36.06.36.06a.26.26,0,0,0,0-.41.37.37,0,0,0,.26-.06c0-.12-.36-.05-.22-.22a2.07,2.07,0,0,1,.4.09c-.1-.13-.29-.25-.39-.38.16-.05.26.07.38.11-.09-.15-.19-.4-.46-.43l-.09.11s.23,0,.28,0c.22.12-.08.2-.17.22l-.07-.1c-.57.15.12.39.1.6l-.42-.06.36.18c-.11.05-.34.1-.41,0-.19.15.16.11-.06.25,0,0-.06,0-.07,0l.13.13c-.09,0-.29,0-.24-.05-.22.27.34.39,0,.5l0,0c.17.34.31,0,.69.25l-.75.22.31,0s0,.11-.15.1c.22.12.13,0,.33,0-.26.19.16.46-.32.53.23.05.17-.17.34,0-.52.08.1.21-.13.38-.27,0-.14-.19-.37,0,.46.07-.08.31,0,.44.36,0,.17.28.3.49-.12,0-.18.43-.3.65h-.06c.37,0,.31.24.39.39a.52.52,0,0,1-.41-.1v.15a.31.31,0,0,1,.23.16l-.28,0c0,.19.34.38.17.63.25,0,.7-.22.88,0-.14,0-.37,0-.43,0s.11.08.06.13l-.24-.1c-.1.12.2.05.18.15-.2,0-.14.07-.3.06s.08-.08,0-.11a.44.44,0,0,1-.29.27c.11,0,.27,0,.29.07s-.23.07-.33.19c.14,0,0,.17.3.17,0,.05-.14.07-.22.09.14.1.05.47.36.35l0,0,0,0h0c.3.32-.15.69,0,1h-.1c.12.2.08.44.29.57,0,.06-.17.14-.29.12.07.15.19.16,0,.38-.18-.15-.16.06-.13-.15-.08.19-.24.24,0,.44-.25-.06-.31.15-.24.25l.18-.14a.45.45,0,0,1,0,.28l-.34,0c-.4.4.7.71,0,1,.24.11.16-.21.44-.12-.05.18-.52.37-.52.43-.19.25.48.23.36.5.11,0,.43-.07.54.13,0,.18-.5.22-.59.1s0-.06.07-.06-.1-.13-.23-.06l.12,0c-.12.09-.11.34-.3.28.11.14.19.06.26,0-.18.23,0,.37-.13.61.07,0,.21-.08.21,0-.15.35.22.16.27.4-.18.13-.43-.05-.28.19-.13.15-.32,0-.41,0,.22.22-.16.41-.2.53l-.1-.12a.25.25,0,0,1,.06.19l.23-.07c0,.07,0,.13-.14.13.16.07.4-.05.61.09-.13.09.12.28-.19.3.11-.28-.32,0-.37-.21,0,.05,0,.1,0,.17a.08.08,0,0,1-.08,0c-.29.27.35.13.34.41-.17,0-.34.06-.3.11,0-.11.3,0,.43.06-.14.18.1.2.08.29l.07-.11c.18,0,.15.13.2.26-.13,0-.09-.11-.15-.07.31.15-.33.31-.13.51-.12.09-.33,0-.41.08.22.22-.25.22-.07.46.24-.06.18-.07.41.1l-.16-.39.34.26c0-.12-.14-.25-.1-.32.2.12.14.11.34.06-.37.15.2.32-.05.49l-.59,0c-.27.26.28.49.12.84l.11-.11c.23,0,0,.22.12.33a.84.84,0,0,0-.4.1c.15,0,0,.26.37.3l-.27.15c-.12.28.55.35.47.62-.21-.09-.35,0-.5-.16,0,.09,0,.17.09.18-.13,0,.26.26.06.34.09,0,.29.06.27.16h-.1c.1,0,.13.17.35.09-.63.25,0,.79-.54,1a1.92,1.92,0,0,1,.1.59c-.06,0-.1,0-.07,0-.22.19.54.22.29.45-.34.05-.14-.17-.28-.12-.63-.11,0,.3-.39.29l0,0c-.23,0,.14.28,0,.37l-.07-.06a.52.52,0,0,1-.06.69c-.05-.26,0-.16-.13-.38-.05.06.21.36.07.5a1,1,0,0,1-.34-.45l.12-.06c-.17-.31-.15.06-.25,0l0-.15c-.19.08-.16.47-.45.47l0,.11c-.15.4-.15-.21-.3.09l-.06-.4a2.43,2.43,0,0,1-.6.46c.11-.29.36-.44.5-.62-.11,0-.39,0-.45.23,0,0,.11-.14.15-.08-.14.31-.32.47-.55.46,0-.76-.6-.19-.76-.78-.41.28-.81-.12-1.28-.07.17.59-.14,0-.1.63-.11,0-.16,0-.17,0l-.33-.36c-.08-.18.1-.14.09-.28-.24,0-.1-.26-.26-.42,0,.22-.08.32-.22.23l.19.28c-.33.33-.29-.51-.63-.18l.11-.2c-.17.12-.64,0-.81.49,0-.07-.07-.23,0-.28-.42-.07-.93.53-1.25.23l0-.15c-.08,0-.13.28-.23.13s0-.15,0-.16-.2.27-.3.18l.08-.17c-.4-.19-.62.41-1,.52a.67.67,0,0,0-.48-.65v-.07c-.47-.05-.8.37-1.24.55-.27-.48-.92-.2-1.35-.47a.39.39,0,0,1-.09.39c-.1-.09-.28.31-.27-.09h0c-.08-.39-.29-.29-.45-.3l0,.53c-.43-.76-1.12.29-1.36-.4-.1.13-.23.13-.33.27v-.29a1.45,1.45,0,0,0-.78,0l.07-.21c-.2,0-.25.82-.44.84l-.05-.42c-.35,0-.71-.36-1,0,0-.06,0-.18.07-.2-.16,0-.64-.28-.57.3,0-.38-.36,0-.55.13l0-.28c-.16.36-.17.45-.39.55-.05,0-.05-.22,0-.15-.17-.14-.13.27-.34.12l.07-.18c-.18,0-.16.07-.26.28s-.34-.07-.37-.32c0,.16-.12.36-.23.29a.23.23,0,0,1,0-.18c-.3-.19-.44.32-.65.05a.41.41,0,0,0,0-.17,1.43,1.43,0,0,1,.42,0c0-.25-.2-.3-.05-.65-.15.19-.41.61-.6.49a.46.46,0,0,1,0-.09l0,0s-.08,0-.12,0a.4.4,0,0,0-.16-.08c0-.21-.22-.11-.32-.12,0,.28-.11.23,0,.47,0,0,0,0,.08-.05s0,0,0,0v0l.24,0c-.07.14-.15.26-.26.1-.05.18-.11.37-.13.46-.14-.39-.39-.6-.43-.84-.29.15-.69.1-.88.63-.08.07-.09-.15-.12-.23s.1,0,.13-.12c-.17.13-.5,0-.54.42-.21-.17.12-.34-.17-.28l0-.11c-.58-.59-.93.94-1.56.19a.24.24,0,0,1,.07.13c-.72-.33-1.49.32-2.2-.21-.2-.1-.22.13-.35.31l0-.3-.21.35c-.3.26-.52-.74-.9-.25l.05.2c-.14,0-.43.12-.41-.11,0,0-.05.21-.1.11V310l-.34.27c-.26-.11,0-.63-.34-.66-.14.06-.4.46-.34.57a.28.28,0,0,1,.15.26l-.13.08c0,.47-.12.94.2,1.27l.22-.29.07.23H193c.11.21.18,0,.25-.1a.46.46,0,0,0,.09.24l.22-.44c0,.18-.1.36.05.46.1-.21-.1-.41.07-.55.1.22.07.39.19.21a.28.28,0,0,1,0,.25c.11-.15.29-.07.34-.31.12.26.38-.07.37.37,0-.11.19-.35.29-.37-.18.53.38,0,.33.6.14-.48.5-.22.74-.48,0,0,0,.11-.06.09.13,0,.17.18.26.27,0-.39.23-.48.34-.72.17.37-.1.46,0,.82,0-.32.29-.32.23-.58a.81.81,0,0,1,.18.43c0-.49.11-.08.22-.38.18.24.05.46.25.31C197.38,312,197.2,312.19,197.2,312.19Zm4.82-.87h-.09Zm.41,0a.35.35,0,0,0-.18,0c0-.1,0-.2.05-.2S202.37,311.23,202.43,311.32Zm-.87-1.95c.07,0,.09,0,.1.07l-.11,0v0A.59.59,0,0,1,201.56,309.37Z"/><path class="cls-9" d="M201.45,309.74l0,0,0,.06,0-.08Z"/><path class="cls-9" d="M223.24,294.81h0l0,0Z"/><polygon class="cls-9" points="208.04 311.83 208.04 311.75 208 311.82 208.04 311.83"/><path class="cls-9" d="M224.13,292.54l.07,0A.11.11,0,0,0,224.13,292.54Z"/><path class="cls-9" d="M224.15,291.57l.09-.15A.36.36,0,0,0,224.15,291.57Z"/><path class="cls-9" d="M224.25,290.81h0Z"/><path class="cls-9" d="M224.77,302.68a0,0,0,0,0,0,0C224.83,302.78,224.81,302.73,224.77,302.68Z"/><path class="cls-9" d="M224.15,299.14a.77.77,0,0,1,.13.12C224.3,299.19,224.31,299.15,224.15,299.14Z"/><polygon class="cls-9" points="224.96 306.65 224.96 306.65 224.96 306.67 224.96 306.65"/><path class="cls-9" d="M224.27,299.42a.1.1,0,0,0,0-.16C224.26,299.31,224.23,299.37,224.27,299.42Z"/><path class="cls-9" d="M224.16,287.58v0h0Z"/><path class="cls-9" d="M224.13,287.54l0,0A0,0,0,0,0,224.13,287.54Z"/><path class="cls-9" d="M224,287.42l.08.08S224.1,287.44,224,287.42Z"/><path class="cls-9" d="M224.11,288.57h0Z"/><path class="cls-9" d="M224.16,288.87c0-.07.2-.19.13-.29h-.08C224.36,288.61,224,288.81,224.16,288.87Z"/><path class="cls-9" d="M223,290.19l.06-.25c-.1.05-.25.12-.28,0C222.46,290.28,223,289.87,223,290.19Z"/><path class="cls-9" d="M222.86,291c-.05-.14-.15,0-.22,0C222.75,291.06,222.77,291.08,222.86,291Z"/><path class="cls-9" d="M223.06,296.56h-.26C222.84,296.65,222.9,296.55,223.06,296.56Z"/><polygon class="cls-9" points="224.4 297.61 224.55 297.51 224.32 297.46 224.4 297.61"/><polygon class="cls-9" points="222.58 298.26 222.54 298.21 222.64 298.39 222.58 298.26"/><path class="cls-9" d="M222.44,307.61h.32C222.7,307.52,222.35,307.49,222.44,307.61Z"/><path class="cls-9" d="M221.26,309.74c0-.16-.15-.25-.21-.1S221.22,309.78,221.26,309.74Z"/><polygon class="cls-9" points="209.11 309.3 209.19 309.19 209.03 309.28 209.11 309.3"/><path class="cls-9" d="M224,264.74c-.08,0-.28,0-.24.07l.32.07Z"/><path class="cls-9" d="M223.4,265.31a1,1,0,0,0,.74.19c-.31-.12-.18-.13-.55-.26,0-.09.11-.15.23-.13-.08,0,.08-.14-.12-.19s-.28.25-.08.41C223.55,265.36,223.46,265.32,223.4,265.31Z"/><path class="cls-9" d="M222.52,274l0-.05A.07.07,0,0,0,222.52,274Z"/><path class="cls-9" d="M222.11,279.31a.07.07,0,0,0-.07-.06S222.08,279.32,222.11,279.31Z"/><path class="cls-9" d="M221.69,279.63h0S221.67,279.61,221.69,279.63Z"/><path class="cls-9" d="M222.52,274l-.11.14C222.52,274.1,222.49,274,222.52,274Z"/><path class="cls-9" d="M224.15,266.54a.15.15,0,0,0-.08-.08l0,.07Z"/><path class="cls-9" d="M222.35,271.57v0l-.13,0Z"/><path class="cls-9" d="M222.38,269.76s.26.06.39.08a.27.27,0,0,1-.19-.09A.7.7,0,0,0,222.38,269.76Z"/><path class="cls-9" d="M223,266.9l0,0Z"/><path class="cls-9" d="M222.23,272.87h0Z"/><path class="cls-9" d="M191.4,267.25h0S191.4,267.23,191.4,267.25Z"/><polygon class="cls-9" points="192.66 265.06 192.68 265.09 192.84 265.08 192.66 265.06"/><path class="cls-9" d="M221.07,279.52h0S221.09,279.5,221.07,279.52Z"/><path class="cls-9" d="M205.79,280.54c.18.25-.27.32,0,.6C205.76,281,206,280.7,205.79,280.54Z"/><path class="cls-9" d="M224.11,266.59v.07A.08.08,0,0,0,224.11,266.59Z"/><path class="cls-9" d="M205.78,281.14h0l0,0Z"/><path class="cls-9" d="M217.25,280a.33.33,0,0,0,.05.12A.42.42,0,0,0,217.25,280Z"/><path class="cls-9" d="M220.14,280.18l-.07,0Z"/><path class="cls-9" d="M215.79,280.5s0-.05-.1,0l0,0S215.75,280.46,215.79,280.5Z"/><polygon class="cls-9" points="214.25 280.6 214.28 280.65 214.33 280.63 214.25 280.6"/><path class="cls-9" d="M191.82,272a1.84,1.84,0,0,1,.25-.09C191.87,271.91,191.79,271.69,191.82,272Z"/><path class="cls-9" d="M224,266.53c.07,0,.11,0,.12.06s0,0,0-.06Z"/><path class="cls-9" d="M215.87,282.72l-.25,0A.66.66,0,0,0,215.87,282.72Z"/><path class="cls-9" d="M195.29,282.71l-.06,0S195.27,282.75,195.29,282.71Z"/><path class="cls-9" d="M214.89,282.78a.41.41,0,0,0-.16-.18s0,0,0,.07Z"/><path class="cls-9" d="M192.07,271.87Z"/><path class="cls-9" d="M191.31,270.29c0,.23.36.09.58.12.12.28-.27.15-.45.26.11.17.46.28.45.41s-.08,0-.16,0c.31.16.05.55.43.74a.16.16,0,0,1-.09,0,2.5,2.5,0,0,1,.51-.06c0,.1.24.18,0,.23,0-.06-.09-.06-.17-.09l.11.11c-.34.12-.13-.14-.38-.13.12.21.42.44.34.61-.34.06-.14-.38-.43-.14l.11-.26c-.52.23,0-.16-.53.06-.08.34.2.36.12.7.19.07.27,0,.47,0,.37.45-.83.42-.36.75.23.07.66.08.45.34l-.39-.06c0,.33.57.16.33.51-.16-.05-.14-.25-.19-.19-.29.24.23.14.24.31l-.34.05c.08.35.35.71.43,1.09-.1,0-.21-.07-.31,0a2.16,2.16,0,0,1-.15,1.51l.3.16s-.12.09-.18.05c-.1.18.18,0,.3.07s-.16.15-.25.09c.27.31.59.88.3,1.24l-.09-.06c-.11.27.62.26.36.52l-.06,0a4.76,4.76,0,0,0,0,.91,5.08,5.08,0,0,1-.11,1.29c.21-.05.22.16.31.35s.25.32.47.11c.08.24.11.35.16.47a.87.87,0,0,0,.49.4c.21.06.44-.33.68-.38l0,.3a4.2,4.2,0,0,0,.38-.3,2.26,2.26,0,0,1,.11.37l.15-.07a.28.28,0,0,1-.11-.24c.23-.13.54.24.54.4l.54-.24c0,.12-.11.16-.18.24.3-.31,0,.32.31,0,0-.07,0-.18,0-.24a.57.57,0,0,0,.64.13l-.05.21a11.48,11.48,0,0,0,1.28-.07c-.16-.1-.11-.47,0-.5l0,.33c.09-.2-.13-.13.05-.37.16,0,.1.37,0,.48l.2-.11a1,1,0,0,1,0,.27c.09-.2.34.33.47,0v.09a6.94,6.94,0,0,0,1-.11c0-.28.15-.21.26-.44a2.15,2.15,0,0,0,.87.3c.23-.14.07-.24.17-.4,0,.25.33.23.17.41a2.4,2.4,0,0,0,1-.25c0-.11-.11-.15-.08-.24s.2.11.19.23l0,0c.54-.38,1.26.74,1.69.21l0,0,.45-.28c.2,0-.12.19,0,.35.48-.44.76.05,1.16-.24.32.75,1.09-.07,1.51.4l0-.18c.1-.17.13.1.21.14,0-.14-.12-.16-.06-.25.91-.24,1.89.21,2.83.34.34,0,.16-.93.6-.52l-.1.33c.67-.42,1.41,0,2.06-.41,0,.08,0,.18-.1.18.16.23.53,0,.52-.21.11,0,0,.17.11.27s.34-.33.43-.09c0,0,0,.08-.06.1s.43,0,.33-.27c.26.12.47-.15.68,0,.12-.32.45.12.46-.32,0,.45.47.33.61.11,0,.14.15.13.1.33.18,0,.34-.12.3-.34.37.52.64-.49.88.19a7.63,7.63,0,0,1,1.49-.62c0,.45-.54.09-.48.56.45-.22.68-.63,1.15-.56.12.05-.05.2-.09.28.45-.22.9,0,1.29-.31a.23.23,0,0,1-.08.13c.08,0,.19.05.17-.16l-.08.06c-.15-.28.27-.64.27-.8-.09.6.41.11.26.87a.32.32,0,0,0,.09-.28c.08,0,.11.11.05.27.28-.14.11-.34.5-.37,0,.1-.05.14-.08.26.19-.21.31-.41.64-.41,0,.06.08.12,0,.15.55-.21.56-.76.92-1.11.29.39.2-.1.54,0,0-.13,0-.26,0-.38l-.2.06c.08-.29-.18-.58,0-.79l.14.23a4.2,4.2,0,0,0,0-.48,1.53,1.53,0,0,0-.15.23c-.18-.25-.47,0-.35-.28,0,.06,0-.19.23-.29h0c-.11-.1-.23-.2-.13-.34s.41,0,.49,0c-.31-.11-.07-.46-.39-.6a.61.61,0,0,0,.31.05l-.25-.09c.08-.09.12-.1.28-.08.06-.27-.48.06-.26-.25,0,0,.06,0,.09.07.12-.32-.13-.64,0-.93.38-.07.08.27.4.18-.05-.44-.41-.91-.31-1.33l0,.08c-.53-.08.27-.3,0-.52,0,.05.29.08.24.06.09-.28-.11-.59-.26-1l.14.06c.12-.16.08-.44.15-.62-.13-.06-.1-.16-.3-.11.8-.53-.37-1.09.29-1.56,0,.06.12.15.12.1l-.11-.43c-.23,0-.14,0-.32.13s-.24-.18-.23-.28c.14.19.37,0,.5-.07-.07,0-.15,0-.22,0,.42-.21-.46-.06-.17-.35l.12,0c-.06-.12-.22-.23-.18-.35.27,0,.12.13.34.14,0-.17-.49-.35-.22-.5.07.08.07.18.14.26.32-.16.24-.18.3-.3h0l.16-.29-.09.07c-.69-.24-.11-.44-.55-.75.41.3.24.06.54.09.09-.07.19-.17.27-.14-.23-.14.21-.22-.14-.43.1,0,0-.14.26-.1-.07-.18-.17,0-.3,0-.32-.28.44-.62,0-1-.18-.35-.5-.43-.65-.75.16-.1.35.1.35.1a.32.32,0,0,0,0-.46c.09,0,.16,0,.27,0s-.35-.1-.2-.27a2.08,2.08,0,0,1,.39.15c-.09-.16-.26-.32-.34-.48.17,0,.25.11.36.17-.07-.18-.14-.47-.4-.54l-.1.12c0-.07.23,0,.28,0s-.11.22-.2.22l-.06-.11c-.58.09.07.45,0,.68l-.41-.11.33.24c-.11.05-.34.07-.4,0-.21.15.14.15-.09.28a.1.1,0,0,1-.08,0l.12.16c-.08,0-.29,0-.23-.08-.25.28.29.48,0,.57l0,0c.12.41.3.06.65.37l-.76.17.3.05a.12.12,0,0,1-.16.1c.2.16.13,0,.33.07-.29.19.1.55-.38.57.22.09.18-.18.34,0-.53,0,.07.25-.17.42-.27-.07-.12-.23-.37-.06.45.12-.11.34,0,.5.36,0,.13.33.24.59-.12,0-.22.47-.36.7h-.06c.37.06.29.3.36.49a.52.52,0,0,1-.4-.16v.17a.31.31,0,0,1,.22.21l-.28-.05c0,.22.31.46.11.73.26,0,.72-.19.88.12-.14,0-.37,0-.43-.08s.11.1.05.15l-.23-.13c-.1.12.2.08.17.18-.2,0-.14.07-.3,0s.08-.09,0-.13a.49.49,0,0,1-.32.29c.12,0,.27,0,.29.1s-.24.06-.35.19c.14.06,0,.19.29.21,0,.07-.15.07-.23.09.13.12,0,.54.34.43l0,0v0h0c.28.39-.2.77-.09,1.15h-.1c.1.23.05.5.25.67,0,.06-.18.14-.3.11.07.17.18.2,0,.44-.16-.18-.15.05-.12-.18-.09.21-.25.26,0,.51-.25-.09-.33.15-.26.26l.19-.15a.61.61,0,0,1,0,.33l-.33-.07c-.42.43.65.85,0,1.16.23.13.18-.24.44-.12,0,.21-.54.41-.54.47-.2.28.47.29.34.58.12,0,.43-.05.54.17-.06.23-.51.17-.6.1a.05.05,0,0,1,.07-.06c0-.07-.09-.17-.22-.09l.12,0c-.13.16-.12.21-.31.17.11.07.19.07.25,0-.17.08,0,.19-.16.25.07,0,.21.07.2.09-.22.1.18.23.11.42-.22-.08-.31-.36-.32-.15-.15-.07-.21-.27-.28-.36.08.24-.21-.1-.21-.14l0-.1c0,.06,0,.06,0,.06l.09.23a.3.3,0,0,1-.07-.13,2.38,2.38,0,0,1,.11.6c0-.06-.07,0-.12,0s-.14,0-.17-.16c.31.08,0-.31.15-.38,0,0-.05,0-.14,0a.1.1,0,0,1,0-.09c-.34-.25-.11.37-.44.39,0-.18-.1-.33-.15-.28.13,0,.09.29,0,.43-.21-.12-.21.12-.32.12l.13.05c0,.18-.13.17-.27.24,0-.14.12-.11.06-.17-.13.33-.38-.29-.59-.06-.11-.11,0-.33-.13-.4-.23.24-.29-.23-.54,0,.1.23.11.17-.06.41l.42-.2-.25.37c.13,0,.26-.17.34-.14-.11.21-.11.15,0,.34-.2-.34-.33.24-.56,0l0-.59c-.33-.24-.52.35-.94.23l.14.09c0,.24-.25,0-.37.16a.7.7,0,0,0-.15-.39c0,.15-.3,0-.3.41l-.2-.25c-.33-.08-.33.59-.65.54.08-.22-.07-.35.13-.51-.11,0-.2,0-.2.11-.06-.12-.27.28-.37.1,0,.09,0,.3-.16.29a.19.19,0,0,1,0-.1c0,.1-.17.14-.06.36-.36-.6-.89.1-1.2-.42a4.34,4.34,0,0,1-.7.19c0-.06,0-.1,0-.08-.29-.17-.14.57-.48.38-.18-.31.17-.18.06-.29-.08-.65-.39.11-.63-.26l.05,0c-.17-.22-.39.26-.67.23a.16.16,0,0,0,0-.1,1.3,1.3,0,0,1-.78.57c.07-.26.12-.14.06-.4-.12,0,.05.41-.18.5a1.07,1.07,0,0,1-.29-.53l.22,0c-.13-.36-.29,0-.41,0v-.15c-.34.06-.33.45-.69.44l0,.11c-.19.4-.17-.21-.36.09l-.08-.4a3.12,3.12,0,0,1-.68.48c.13-.3.4-.45.56-.63-.13,0-.44,0-.5.24,0,0,.11-.14.17-.08a.7.7,0,0,1-.62.47c0-.76-.68-.17-.89-.76-.45.29-.91-.1-1.44-.05.2.59-.16,0-.11.63-.13,0-.18,0-.19,0l-.38-.36c-.09-.18.12-.14.1-.27-.27-.05-.11-.26-.3-.42,0,.22-.09.31-.24.23l.22.28c-.38.33-.34-.51-.72-.18l.12-.2c-.19.12-.72,0-.91.49,0-.07-.08-.23,0-.28-.47-.07-1,.53-1.41.22l0-.15c-.09.05-.16.28-.27.13s0-.15,0-.15-.24.26-.35.17l.1-.17c-.46-.2-.71.41-1.1.5a.7.7,0,0,0-.53-.66v-.06c-.53-.06-.91.35-1.41.51-.3-.48-1-.22-1.53-.51.08.09,0,.35-.11.39s-.33.29-.3-.11h0c-.07-.4-.31-.3-.5-.32l0,.53a.66.66,0,0,0-.85-.26,1.19,1.19,0,0,1-.38.05c-.05,0-.08-.07-.05-.24-.07.13-.11.12-.21.25l.13-.28c0-.08,0-.1-.12-.11A1.25,1.25,0,0,0,195,280s-.19.14-.39.25-.41.2-.43.14l.41-.23a.37.37,0,0,1,.12-.2.55.55,0,0,0-.18-.55c.06,0,.18,0,.2.07,0-.19.25-.74-.33-.64.38,0,0-.41-.17-.61h.28c-.36-.16-.46-.16-.57-.4,0-.06.22-.07.15,0,.13-.21-.27-.14-.14-.39l.18.07c0-.2-.08-.18-.3-.28s.05-.39.3-.44c-.15,0-.37-.12-.3-.24a.19.19,0,0,1,.18,0c.17-.36-.35-.5-.09-.75a.29.29,0,0,0,.16-.05,1.67,1.67,0,0,1,0,.48c.26,0,.29-.24.65-.09-.2-.16-.64-.44-.53-.66l.08,0,0,0c0-.05,0-.09,0-.13a.37.37,0,0,0,.07-.18c.21,0,.1-.26.1-.37-.28,0-.24-.12-.46,0,0,0,0,0,.05.09s0,0,0,0h0c0,.07,0,.16,0,.27-.15-.08-.27-.16-.13-.29l-.46-.13c.38-.17.58-.48.82-.53-.18-.33-.15-.79-.69-1-.08-.1.14-.12.22-.16s0,.11.13.14c-.15-.18-.09-.56-.46-.59.15-.25.35.12.27-.21l.11,0c.55-.69-1-1-.29-1.77a.19.19,0,0,1-.12.1c.28-.85-.42-1.68.06-2.52.09-.24-.14-.25-.33-.38l.3-.07-.36-.21c-.28-.33.7-.64.19-1l-.2.07c0-.16-.15-.49.09-.48,0,0-.22,0-.11-.1l.15,0-.29-.36c.1-.3.63,0,.63-.42-.07-.16-.48-.43-.59-.37s-.08.17-.24.19l-.09-.14c-.47,0-1-.08-1.25.3l.3.23-.23.09,0-.21c-.21.14,0,.2.12.28a.34.34,0,0,0-.24.12l.46.22c-.18,0-.37-.09-.46.08.21.1.4-.14.55.05-.21.13-.38.1-.19.23a.25.25,0,0,1-.26-.05c.16.12.08.33.34.38-.26.14.09.42-.35.43.11,0,.36.2.38.32-.54-.18,0,.43-.57.41.48.12.24.55.52.81,0,0-.11,0-.09-.07,0,.16-.17.21-.25.32.39,0,.49.23.74.35-.36.21-.46-.09-.82,0,.31,0,.33.31.59.23-.22.16-.1.13-.42.23.49,0,.09.13.4.23-.23.22-.46.08-.3.3C191.49,270.48,191.31,270.29,191.31,270.29Zm1.18,5.44h0l0-.11Zm0,.46a1.33,1.33,0,0,0,0-.2c.09,0,.19,0,.19,0S192.6,276.12,192.52,276.19Zm1.88-1.09c0,.07,0,.09-.06.11a.93.93,0,0,0,0-.13h0A.32.32,0,0,1,194.4,275.1Z"/><path class="cls-9" d="M194,275l0,0-.06.05.09,0Z"/><path class="cls-9" d="M222.57,273.89h0l0,0Z"/><polygon class="cls-9" points="194.58 282.82 194.59 282.75 194.51 282.81 194.58 282.82"/><path class="cls-9" d="M223.64,271.38a.11.11,0,0,0,.07,0Z"/><path class="cls-9" d="M223.75,270.29l.11-.16A.76.76,0,0,0,223.75,270.29Z"/><path class="cls-9" d="M223.92,269.45l-.12,0h0Z"/><path class="cls-9" d="M220.36,282.05h0C220.26,282.12,220.31,282.1,220.36,282.05Z"/><path class="cls-9" d="M223.19,278.87a.83.83,0,0,1,.13.14C223.35,278.94,223.35,278.88,223.19,278.87Z"/><polygon class="cls-9" points="215.9 282.72 215.9 282.72 215.87 282.72 215.9 282.72"/><path class="cls-9" d="M223.31,279.19a.13.13,0,0,0,0-.18C223.3,279.07,223.27,279.13,223.31,279.19Z"/><path class="cls-9" d="M224.21,265.79v0h0Z"/><path class="cls-9" d="M224.18,265.74l0-.05S224.15,265.73,224.18,265.74Z"/><path class="cls-9" d="M224.08,265.6l.07.09S224.16,265.62,224.08,265.6Z"/><path class="cls-9" d="M224,266.9l.1,0Z"/><path class="cls-9" d="M224.05,267.24c0-.08.22-.19.16-.31h-.08C224.28,267,223.88,267.16,224.05,267.24Z"/><path class="cls-9" d="M222.73,268.61l.09-.28c-.11,0-.26.1-.28,0C222.2,268.65,222.79,268.24,222.73,268.61Z"/><path class="cls-9" d="M222.53,269.49c0-.16-.16,0-.22,0C222.41,269.57,222.43,269.6,222.53,269.49Z"/><path class="cls-9" d="M222.26,275.87l-.26,0C222,276,222.1,275.85,222.26,275.87Z"/><polygon class="cls-9" points="223.53 277.15 223.69 277.04 223.46 276.98 223.53 277.15"/><polygon class="cls-9" points="221.67 277.79 221.64 277.74 221.72 277.94 221.67 277.79"/><path class="cls-9" d="M214.51,280.33l.05.32C214.64,280.59,214.63,280.23,214.51,280.33Z"/><path class="cls-9" d="M209.91,280.87c0-.16-.19-.25-.26-.1C209.75,280.79,209.86,280.91,209.91,280.87Z"/><polygon class="cls-9" points="196.09 280.36 196.18 280.25 196.01 280.33 196.09 280.36"/><path class="cls-9" d="M207.8,268c-.08,0-.28,0-.24,0l.33,0Z"/><path class="cls-9" d="M207.18,268.08a6.37,6.37,0,0,0,.74.1l-.55-.1s.11,0,.23,0c-.09,0,.07,0-.14-.05s-.26,0-.06.07Z"/><path class="cls-9" d="M206.53,269.61h0Z"/><path class="cls-9" d="M206.27,270.58h0Z"/><path class="cls-9" d="M205.89,270.73h0S205.87,270.72,205.89,270.73Z"/><path class="cls-9" d="M206.53,269.61l-.11,0C206.53,269.64,206.5,269.62,206.53,269.61Z"/><path class="cls-9" d="M208,268.37l-.09,0,0,0Z"/><path class="cls-9" d="M206.3,269.16h0l-.14,0Z"/><path class="cls-9" d="M206.27,268.82l.39.05-.19,0Z"/><path class="cls-9" d="M206.82,268.34l0,0Z"/><path class="cls-9" d="M206.21,269.39h0Z"/><path class="cls-9" d="M208,278.71h0Z"/><polygon class="cls-9" points="206.65 279.12 206.63 279.12 206.47 279.12 206.65 279.12"/><path class="cls-9" d="M205.52,271Z"/><path class="cls-9" d="M205.58,273.87c.25,0,.32.07.6,0A3.64,3.64,0,0,0,205.58,273.87Z"/><path class="cls-9" d="M207.92,268.38h0S207.93,268.38,207.92,268.38Z"/><path class="cls-9" d="M206.18,273.9Z"/><path class="cls-9" d="M205.64,271.74h0Z"/><path class="cls-9" d="M206.07,271.23h0Z"/><path class="cls-9" d="M206,272s-.06,0,0,0h0S206,272,206,272Z"/><path class="cls-9" d="M206,272.32h0Z"/><path class="cls-9" d="M207.88,277.86h-.25C207.83,277.87,207.9,277.91,207.88,277.86Z"/><path class="cls-9" d="M207.8,268.36l.12,0h-.12Z"/><path class="cls-9" d="M208.23,272.17l0,0S208.23,272.18,208.23,272.17Z"/><path class="cls-9" d="M207.84,275.84h0Z"/><path class="cls-9" d="M208.22,272.34l-.19,0h.07Z"/><path class="cls-9" d="M207.63,277.87Z"/><path class="cls-9" d="M208.3,278.16c0-.05-.36,0-.58,0s.28,0,.46-.05c-.09,0-.43,0-.42-.07h.16c-.29,0,0-.1-.39-.13h-.41s-.23,0,0,0c0,0,.09,0,.16,0l-.1,0c.34,0,.12,0,.38,0-.12,0-.41-.08-.31-.11.34,0,.12.07.42,0l-.13,0c.53,0,0,0,.53,0,.1-.06-.17-.06-.07-.12h-.47c-.34-.08.85-.07.4-.13-.22,0-.65,0-.43-.07h.39c0-.05-.55,0-.3-.09s.13.05.18,0c.3,0-.22,0-.22-.06h.34c-.06-.06-.3-.13-.36-.2a1.07,1.07,0,0,0,.31,0c-.17-.09,0-.19.24-.27l-.29,0a.5.5,0,0,1,.19,0c.11,0-.19,0-.31,0s.17,0,.26,0c-.25-.06-.53-.17-.22-.23l.09,0c.12-.05-.6-.06-.33-.1h.05c.13-.11-.14-.22.31-.3-.43,0,.19-.1-.4-.11A3.19,3.19,0,0,0,208,276s-.37,0-.43-.07h.31l-.32,0,.37,0-.08,0-.23,0c-.14,0,.22-.1.37-.09l-.26-.1a1.31,1.31,0,0,1,.25,0c-.31,0,.32,0,0,0h-.25c.19,0,.19-.07.11-.11h.21c.06-.07-.1-.15-.09-.23a2,2,0,0,1-.5,0h.32c-.2,0-.12,0-.37,0a1.57,1.57,0,0,1,.48,0l-.11,0h.27c-.2,0,.33,0,0-.08h.09c0-.08-.1-.12-.12-.18a3.62,3.62,0,0,1-.44-.06c.09-.05.31-.09.29-.15a2.48,2.48,0,0,0-.41,0c.26,0,.24-.05.42,0,0-.07-.05-.09-.25-.18a1,1,0,0,1-.24,0s.11,0,.23,0h0c-.39-.1.75-.2.22-.29h0l-.27-.08s.19,0,.35,0c-.43-.1.06-.13-.22-.21.76,0,0-.2.44-.26h-.18c-.17,0,.11,0,.15,0H208c-.21-.18.27-.33.44-.49s-.92-.07-.49-.13l.33,0c-.39-.14,0-.25-.31-.38a1.11,1.11,0,0,1,.18,0c.24,0,0-.09-.18-.1a1.16,1.16,0,0,1,.27,0c.15,0-.3-.08-.06-.08h.1c-.12,0,0-.07-.25-.07.14,0-.12-.09.05-.12-.31,0,.15-.07-.28-.1.45,0,.36-.06.15-.1.14,0,.15,0,.33,0,0,0-.08-.06-.31-.07.54,0-.43-.15.26-.14a1.89,1.89,0,0,1-.5-.31c.45,0,0,.1.52.13-.18-.1-.57-.17-.45-.24a.89.89,0,0,1,.27,0c-.18-.09,0-.16-.19-.24l.12,0s.07,0-.14,0l.06,0a6.91,6.91,0,0,1-.78-.11c.59.06.16-.07.89,0a1.41,1.41,0,0,0-.27,0,.76.76,0,0,1,.28,0c-.11-.06-.33-.06-.32-.11l.25,0c-.19,0-.38-.08-.29-.11s.13,0,.13,0-.51-.16-.31-.22a3,3,0,0,0,.51,0l-.11,0h-.18s-.26-.08-.13-.1l.15,0-.07-.07-.14,0c-.19-.05-.47,0-.37-.07s0,0,.23,0h0c-.11,0-.24-.05-.14-.07l.49,0c-.31,0-.08-.08-.41-.13l.31,0-.25,0a.86.86,0,0,1,.27,0s-.47,0-.26-.06h.1c.11-.05-.16-.12,0-.17.38,0,.09.06.41.06-.07-.08-.44-.19-.35-.26h0c-.53-.05.27,0,0-.09l.24,0c.08,0-.13-.11-.29-.2l.14,0c.12,0,.08-.08.14-.11a1.68,1.68,0,0,0-.31,0c.78,0-.4-.23.25-.26l.12,0-.12-.08a1.13,1.13,0,0,0-.32,0c-.13,0-.24-.06-.24-.08a1.43,1.43,0,0,0,.5,0l-.22,0c.42,0-.46-.05-.18-.08l.12,0c-.06,0-.22-.06-.18-.08.27,0,.12,0,.34.05,0,0-.5-.1-.23-.11.07,0,.07,0,.15.06.31,0,.23,0,.28,0h0l.14,0h-.08c-.69-.11-.12-.09-.57-.19a2.13,2.13,0,0,0,.55.06H208c-.24-.05.2,0-.16-.09.1,0,0,0,.26,0-.07,0-.17,0-.29,0-.33-.08.41-.08,0-.19-.18-.08-.5-.12-.66-.2a1.64,1.64,0,0,1,.35.05c.15,0,.12,0,0-.08l.27,0s-.35-.05-.21-.07l.39.06-.35-.12a2.38,2.38,0,0,1,.37.06,1,1,0,0,0-.42-.13h-.09l.28,0c.2.05-.1,0-.2,0l-.06,0c-.57,0,.08.09,0,.13l-.41-.06.33.07a1.59,1.59,0,0,1-.4,0c-.2,0,.15,0-.08,0h-.07l.12,0c-.09,0-.3,0-.23,0-.25,0,.3.12,0,.11h0c.13.08.3,0,.65.12l-.75,0,.3,0s0,0-.16,0a2.11,2.11,0,0,0,.33,0c-.28,0,.12.11-.36.08.23,0,.18,0,.34,0-.53,0,.08,0-.16.06s-.12,0-.37,0c.46.06-.1.06,0,.09.37,0,.15.08.27.13-.13,0-.21.07-.35.11h-.06c.37,0,.3.08.37.12a2.67,2.67,0,0,1-.4-.06v0a.91.91,0,0,1,.21.05l-.27,0s.32.11.13.15a4.5,4.5,0,0,1,.88.09,3,3,0,0,1-.43-.05s.11,0,.05,0l-.23,0c-.1,0,.19,0,.17,0l-.3,0s.09,0,0,0a1,1,0,0,1-.31,0,1.14,1.14,0,0,1,.29,0s-.23,0-.34,0c.14,0,0,0,.29.06h-.22c.13,0,0,.1.34.1h0c.28.1-.18.13-.06.21h-.1c.11.05.06.09.27.14h-.3c.07,0,.18.05,0,.08s-.16,0-.13,0-.24,0,0,.09c-.25,0-.32,0-.24,0l.18,0s0,0,0,.06l-.33,0c-.41.06.67.21,0,.22.23,0,.17,0,.44,0-.05,0-.53,0-.53,0-.19,0,.48.08.35.13a2.51,2.51,0,0,1,.55.06,1.74,1.74,0,0,1-.6,0s0,0,.07,0a.37.37,0,0,0-.22,0h.12c-.12,0-.12.07-.31,0a.39.39,0,0,0,.26,0c-.18,0,0,.08-.13.12a1.27,1.27,0,0,1,.2,0c-.15.07.22,0,.27.11-.18,0-.43,0-.28,0a1.36,1.36,0,0,1-.41,0c.23.07-.16.08-.2.11l-.09,0c.05,0,.05,0,.05.05h.24a.44.44,0,0,1-.15,0c.16,0,.4,0,.61.05-.12,0,.12.07-.19.06.11-.06-.32,0-.36-.07s0,0,0,0h-.08c-.29,0,.35.05.34.11-.18,0-.34,0-.3,0a1.17,1.17,0,0,1,.43,0c-.14,0,.1,0,.08.07l.07,0c.17,0,.15,0,.2.07-.13,0-.09,0-.15,0,.31.05-.33.05-.12.11-.12,0-.33,0-.42,0,.23.06-.24,0-.05.09a1.15,1.15,0,0,1,.41.05l-.17-.09.35.07s-.15-.06-.11-.07a1.19,1.19,0,0,0,.33,0c-.36,0,.21.08,0,.1l-.59,0c-.26,0,.3.12.15.19l.1,0c.24,0,0,0,.13.08a1.75,1.75,0,0,0-.4,0c.15,0,0,.05.38.08l-.26,0c-.11.05.56.1.49.15-.22,0-.36,0-.51-.05s0,0,.1,0c-.13,0,.26.07.07.07.09,0,.29,0,.28.05h-.1a1.91,1.91,0,0,0,.35,0c-.62,0,0,.17-.5.19.07.05.13.1.14.14h-.08c-.18,0,.57.06.36.11s-.17,0-.29,0c-.65,0,.08.08-.3.1h0c-.22,0,.25.08.2.13H206a1.29,1.29,0,0,1,.53.17,1.8,1.8,0,0,0-.4,0,3.11,3.11,0,0,1,.49.06,3.73,3.73,0,0,1-.54,0v0c-.36,0,0,.06-.05.07h-.16c.05.06.44.08.41.14h.12c.38.05-.22,0,.06.07H206a3,3,0,0,1,.45.14,3.66,3.66,0,0,1-.61-.13s0,.08.22.11c0,0-.14,0-.07,0,.3,0,.46.09.45.13-.77,0-.2.12-.8.13.28.1-.12.17-.08.27.6,0,0,0,.63,0,0,0,0,0,0,0l-.36.06c-.18,0-.14,0-.27,0s-.26,0-.43,0c.22,0,.32,0,.23,0l.28,0c.33.08-.51.05-.19.13l-.19,0c.11,0,0,.13.48.18h-.28c-.08.08.51.21.21.26h-.15s.28,0,.13.06h-.16c.05,0,.26.05.18.07l-.17,0c-.2.08.4.14.5.21a1.34,1.34,0,0,0-.65.09h-.06c-.06.1.36.18.53.27-.48.05-.21.19-.47.28a1.53,1.53,0,0,1,.38,0c-.09,0,.31.07-.1.06h0c-.4,0-.29.06-.3.09h.53c-.77.08.27.24-.41.28.13,0,.13.05.26.08h-.29c-.07.06-.1.09,0,.17l-.2,0s.82.06.83.1h-.42c0,.07-.37.15,0,.22-.06,0-.19,0-.2,0s-.29.14.29.13c-.38,0,0,.07.13.11h-.28a1.6,1.6,0,0,1,.55.08s-.22,0-.15,0c-.15,0,.26,0,.12.08l-.18,0s.07,0,.28.06-.07.07-.32.07c.15,0,.36,0,.28.05H206c-.19.07.32.1.05.14h-.17c0-.05,0-.09,0-.09a4.59,4.59,0,0,1-.66,0c.19,0,.61.09.49.13h-.11s0,0,0,0-.08,0-.08,0c-.21,0-.11,0-.12.06a2.34,2.34,0,0,0,.46,0s0,0,0,0h0a.43.43,0,0,1,0-.05c.14,0,.26,0,.1.05l.46,0c-.4,0-.61.08-.85.09a1,1,0,0,0,.63.18c.07,0-.15,0-.23,0l-.12,0c.13,0,0,.11.42.11-.17.05-.34,0-.28,0h-.11c-.59.12.94.18.19.32l.13,0c-.33.16.31.31-.21.47-.11,0,.13,0,.31.07H206l.35,0c.25.06-.74.12-.26.19h.2s.13.09-.11.09c0,0,.21,0,.11,0h-.16l.27.06c-.11.06-.63,0-.65.09a2.4,2.4,0,0,0,.56.06.59.59,0,0,1,.26,0l.08,0a6.13,6.13,0,0,0,1.27-.07l-.29,0,.23,0v0c.21,0,0,0-.1,0l.25,0-.45,0a3,3,0,0,0,.46,0c-.21,0-.41,0-.54,0,.21,0,.38,0,.2,0a2,2,0,0,1,.25,0c-.15,0-.06-.05-.31-.06.26,0-.07-.08.37-.08a1.88,1.88,0,0,1-.37-.06c.53,0,0-.07.6-.07-.47,0-.21-.1-.48-.15h.09a2.31,2.31,0,0,1,.27-.06,4.21,4.21,0,0,1-.72-.05c.38,0,.46,0,.82,0-.31,0-.31-.05-.58,0l.44,0c-.49,0-.08,0-.39,0,.25,0,.46,0,.31-.06A1.12,1.12,0,0,1,208.3,278.16Zm-.86-1h0v0Zm0-.08s0,0,0,0h-.2Zm-1.95.18s0,0,.07,0l0,0h-.11Z"/><path class="cls-9" d="M205.86,277.3h0Z"/><path class="cls-9" d="M206.57,269.6h0Z"/><polygon class="cls-9" points="207.98 275.94 207.91 275.94 207.97 275.94 207.98 275.94"/><path class="cls-9" d="M207.57,269.22h0Z"/><path class="cls-9" d="M207.65,269l.11,0Z"/><path class="cls-9" d="M207.81,268.89l-.12,0h0Z"/><path class="cls-9" d="M208,271.34h0S208,271.35,208,271.34Z"/><path class="cls-9" d="M207.34,270.57l.13,0S207.5,270.58,207.34,270.57Z"/><polygon class="cls-9" points="208.24 272.16 208.23 272.16 208.23 272.17 208.24 272.16"/><path class="cls-9" d="M207.47,270.64c.05,0,0,0,0,0S207.42,270.62,207.47,270.64Z"/><path class="cls-9" d="M208,268.24h0Z"/><path class="cls-9" d="M208,268.23h0Z"/><path class="cls-9" d="M207.86,268.19l.07,0S207.94,268.2,207.86,268.19Z"/><path class="cls-9" d="M207.85,268.43h0Z"/><path class="cls-9" d="M207.87,268.49s.22,0,.16,0H208C208.1,268.46,207.7,268.46,207.87,268.49Z"/><path class="cls-9" d="M206.59,268.63l.09,0c-.11,0-.26,0-.28,0C206.07,268.6,206.64,268.57,206.59,268.63Z"/><path class="cls-9" d="M206.42,268.78s-.16,0-.22,0A.42.42,0,0,0,206.42,268.78Z"/><path class="cls-9" d="M206.32,270l-.25,0S206.16,269.94,206.32,270Z"/><polygon class="cls-9" points="207.62 270.27 207.78 270.27 207.55 270.24 207.62 270.27"/><polygon class="cls-9" points="205.79 270.27 205.76 270.26 205.85 270.3 205.79 270.27"/><path class="cls-9" d="M205.76,272.26h.32C206,272.25,205.67,272.23,205.76,272.26Z"/><path class="cls-9" d="M206,273.13c-.16,0-.26,0-.1,0S206.08,273.14,206,273.13Z"/><polygon class="cls-9" points="205.46 275.68 205.35 275.66 205.44 275.7 205.46 275.68"/><path class="cls-9" d="M222.92,252.5c0-.09,0-.29,0-.25l0,.33Z"/><path class="cls-9" d="M222.62,251.88a2,2,0,0,0-.08.75c.05-.32.07-.19.12-.56.05,0,.08.1.07.22,0-.08.07.08.1-.13s-.14-.27-.21-.06A.81.81,0,0,1,222.62,251.88Z"/><path class="cls-9" d="M218.28,251.37l0,0S218.29,251.37,218.28,251.37Z"/><path class="cls-9" d="M215.59,251.19s0-.05,0-.08A.13.13,0,0,0,215.59,251.19Z"/><path class="cls-9" d="M215.13,250.82l0,0S215.14,250.8,215.13,250.82Z"/><path class="cls-9" d="M218.28,251.37l-.07-.11C218.21,251.37,218.25,251.34,218.28,251.37Z"/><path class="cls-9" d="M222,252.68s0-.05,0-.09l0,0Z"/><path class="cls-9" d="M219.47,251.1h0s0-.09,0-.14Z"/><path class="cls-9" d="M220.38,251.05a2.08,2.08,0,0,0,0,.39c0-.12,0-.17,0-.19S220.38,251.13,220.38,251.05Z"/><path class="cls-9" d="M221.82,251.54l0,0A.05.05,0,0,1,221.82,251.54Z"/><path class="cls-9" d="M218.82,251a.41.41,0,0,1,0-.1A.34.34,0,0,0,218.82,251Z"/><path class="cls-9" d="M193.37,253.15s0,0,0-.05Z"/><path class="cls-9" d="M192.32,251.76v0a.76.76,0,0,0,0-.15Z"/><path class="cls-9" d="M214.29,250.46h0S214.31,250.44,214.29,250.46Z"/><path class="cls-9" d="M206.58,250.67c.09.25-.14.32,0,.6C206.56,251.16,206.69,250.83,206.58,250.67Z"/><path class="cls-9" d="M222,252.64h0S222,252.66,222,252.64Z"/><path class="cls-9" d="M206.57,251.27h0v0Z"/><path class="cls-9" d="M212.36,250.63a.37.37,0,0,0,0,.12A1,1,0,0,0,212.36,250.63Z"/><path class="cls-9" d="M213.8,251l0,0S213.79,251,213.8,251Z"/><path class="cls-9" d="M211.61,251s0-.06-.05,0,0,0,0,0S211.59,251,211.61,251Z"/><path class="cls-9" d="M210.83,251a.43.43,0,0,0,0,.05h0Z"/><path class="cls-9" d="M195.74,253c0-.07,0-.16,0-.25C195.72,253,195.6,253,195.74,253Z"/><path class="cls-9" d="M222,252.52a.22.22,0,0,1,0,.12h0A.37.37,0,0,0,222,252.52Z"/><path class="cls-9" d="M211.58,253.24l-.13,0A.2.2,0,0,0,211.58,253.24Z"/><path class="cls-9" d="M201.33,253l0,0S201.33,253,201.33,253Z"/><path class="cls-9" d="M211.09,253.24a1.15,1.15,0,0,0-.07-.19.64.64,0,0,0,0,.07Z"/><path class="cls-9" d="M195.71,252.76Z"/><path class="cls-9" d="M194.89,253.43c.12,0,.06-.36.08-.58s.07.28.11.46c.09-.09.16-.43.23-.42a.85.85,0,0,1,0,.16c.09-.29.27,0,.38-.38,0,0,0,.06,0,.09a4.79,4.79,0,0,1,0-.51c.05,0,.1-.23.12,0,0,0,0,.09-.05.17l.05-.11c.05.35-.07.12-.07.38.11-.11.23-.4.31-.3,0,.34-.19.11-.08.41l-.13-.13c.1.54-.07,0,0,.54.16.1.18-.17.35-.08,0-.18,0-.27,0-.46.24-.34.19.85.36.4.05-.23.06-.66.19-.43l0,.38c.16,0,.09-.55.26-.29,0,.15-.13.13-.1.17.11.31.08-.22.16-.22l0,.34c.17-.05.36-.29.56-.36a.58.58,0,0,0,0,.32c.24-.17.52,0,.75.24l.09-.29s0,.13,0,.18,0-.18,0-.3.07.17,0,.26c.16-.25.46-.54.63-.22l0,.09c.13.11.14-.61.27-.33l0,0c.29.13.61-.14.83.3,0-.42.28.19.3-.4.16.29.12.4.35.59.06,0,.09-.36.16-.43V253l.1-.32,0,.37.08-.08a.4.4,0,0,1-.06-.23c.11-.14.27.22.27.37l.27-.26a.52.52,0,0,1-.09.25c.14-.32,0,.32.16,0a1,1,0,0,1,0-.25.19.19,0,0,0,.32.11l0,.21c.19.06.41-.1.63-.1a.62.62,0,0,1,0-.5l0,.33c0-.21-.07-.13,0-.37.08,0,.05.37,0,.47l.1-.11c0,.1,0,.15,0,.27,0-.2.17.33.23,0v.1c.22,0,.32-.11.5-.13,0-.28.07-.22.12-.45.14.09.28.31.44.29s0-.24.08-.4c0,.25.17.23.09.41a.79.79,0,0,0,.48-.26.53.53,0,0,1,0-.24s.1.11.09.23v0c.27-.38.62.75.84.21v0l.22-.28c.1.05-.06.19,0,.35.24-.42.37.07.57-.22.16.76.55,0,.75.43v-.18c.06-.17.07.1.11.14,0-.13-.06-.16,0-.25.45-.22.94.26,1.4.42.17.05.1-.92.31-.5l-.06.33c.34-.39.7,0,1-.32,0,.08,0,.18-.06.17.07.24.27,0,.27-.18.05,0,0,.18,0,.28s.18-.31.22-.07a.15.15,0,0,1,0,.1c.05-.12.22,0,.18-.25.12.13.24-.12.34,0,.06-.31.21.15.23-.29,0,.45.22.37.3.15,0,.14.07.14,0,.33.09,0,.18-.09.16-.32.17.54.34-.43.43.26a2.8,2.8,0,0,1,.76-.51c0,.45-.27,0-.25.51.23-.18.36-.57.59-.46.06.06,0,.2-.06.27.23-.18.45,0,.65-.2a.25.25,0,0,1,0,.12s.09.07.09-.14l0,.06c-.06-.3.16-.62.17-.78-.07.59.2.15.09.89a.44.44,0,0,0,.05-.27s.06.12,0,.27c.14-.11.09-.33.22-.32s0,.13,0,.25c.07-.19.13-.39.24-.3s0,.14,0,.13c.19,0,.32-.51.53-.32-.06.43.07.14.08.51l.11-.11,0-.18c.1,0,.18-.27.27-.15l-.08.16.19-.07-.11-.14c.1-.2,0-.48.12-.37,0,0,.1,0,.15.22h0c0-.12.1-.24.18-.15s0,.41,0,.49c.05-.31.23-.08.29-.41a1.1,1.1,0,0,0,0,.31l0-.25a.42.42,0,0,1,0,.27c.14.05,0-.47.12-.27,0,0,0,.06,0,.1.16.11.31-.16.46,0,.05.38-.13.1-.08.41.22-.07.45-.45.66-.36l0,0c0-.53.16.26.26,0a.81.81,0,0,0,0,.24c.14.08.29-.13.51-.3l0,.14c.08.12.22.07.31.13,0-.14.08-.12.05-.31.28.77.54-.42.79.23,0,0-.08.12,0,.12l.21-.13a1.18,1.18,0,0,0-.07-.32c0-.14.09-.24.14-.24-.1.15,0,.37,0,.5,0-.07,0-.15,0-.22.12.41,0-.47.17-.19v.12c.05-.06.1-.22.17-.19,0,.27-.06.13-.07.35.09,0,.17-.51.25-.24,0,.07-.09.07-.13.15.09.31.1.23.16.28h0l.15.15,0-.09c.11-.7.22-.13.37-.58-.14.43,0,.25,0,.55,0,.08.1.18.08.26.07-.24.11.2.21-.16,0,.1.07,0,.06.25.09-.07,0-.17,0-.29.13-.33.32.4.51-.05.18-.19.21-.52.36-.68a.51.51,0,0,1,0,.35c.09.15.15.12.23,0a.63.63,0,0,0,0,.26c.06,0,0-.35.13-.21s0,.29-.07.39c.08-.09.15-.27.23-.36a.79.79,0,0,1-.07.37.53.53,0,0,0,.26-.42l-.06-.1s0,.24,0,.28c-.07.22-.11-.09-.11-.19l0-.06c0-.57-.22.09-.34.06l.05-.42-.12.35c0-.11,0-.34,0-.4s-.07.14-.14-.09a.08.08,0,0,1,0-.07l-.08.13c0-.09,0-.3,0-.24-.15-.24-.24.31-.29,0v0c-.2.14,0,.31-.17.67l-.1-.76v.31s-.07,0-.06-.16c-.07.21,0,.14,0,.33-.1-.27-.27.13-.29-.35,0,.23.09.18,0,.34,0-.53-.13.09-.22-.15s.12-.13,0-.37c-.06.46-.18-.1-.25,0,0,.36-.17.15-.3.27,0-.12-.24-.2-.35-.33v-.06c0,.36-.15.3-.24.37a.86.86,0,0,1,.07-.4h-.08a.32.32,0,0,1-.1.22l0-.27c-.11,0-.22.32-.37.14,0,.25.12.71,0,.88a1.32,1.32,0,0,1,0-.43s0,.11-.07.05l.06-.23c-.06-.1,0,.19-.08.17,0-.19,0-.14,0-.29s0,.08.07,0a.44.44,0,0,1-.15-.3c0,.11,0,.26,0,.29s0-.24-.1-.34c0,.14-.1,0-.1.29,0,0,0-.14,0-.22-.06.13-.27,0-.21.35l0,0v0h0c-.19.29-.39-.17-.58,0v-.1c-.11.11-.25.06-.33.28,0,0-.08-.18-.06-.3-.09.07-.1.18-.22,0,.09-.17,0-.15.09-.13-.11-.08-.14-.24-.26,0,0-.25-.08-.32-.13-.24l.07.18c-.06,0-.11,0-.16,0l0-.33c-.23-.41-.41.69-.59,0-.06.23.13.16.07.44-.1,0-.21-.53-.24-.53-.15-.18-.14.49-.29.36,0,.12,0,.44-.07.55s-.13-.5-.06-.59,0,0,0,.06a.18.18,0,0,0,0-.22V251c-.06-.12-.2-.11-.17-.3a.18.18,0,0,0,0,.25c-.14-.17-.21,0-.35-.12,0,.07,0,.21,0,.21-.2-.15-.09.22-.22.27-.08-.18,0-.43-.12-.28-.08-.12,0-.31,0-.41-.13.23-.23-.15-.31-.19l.07-.1a.11.11,0,0,1-.11.06l0,.24s-.07,0-.07-.15c0,.16,0,.4,0,.61-.05-.12-.16.13-.17-.18.16.1,0-.32.12-.37,0,0-.06,0-.1,0a.11.11,0,0,1,0-.08c-.15-.28-.07.36-.23.35,0-.18,0-.34-.06-.3s0,.3,0,.43c-.11-.14-.12.11-.17.09l.06.06c0,.18-.07.16-.14.21,0-.13.06-.09,0-.15-.08.31-.18-.32-.3-.11-.05-.12,0-.34-.05-.42-.12.23-.13-.24-.27-.05a.46.46,0,0,1,0,.41l.21-.17-.14.35c.07,0,.14-.15.18-.11a.43.43,0,0,0,0,.33c-.09-.35-.17.21-.28,0v-.59c-.16-.26-.28.3-.48.15l.06.11c0,.23-.12,0-.19.12a1.07,1.07,0,0,0-.06-.39c0,.15-.15,0-.17.38l-.09-.26c-.16-.1-.19.57-.34.5.05-.22,0-.36.08-.51-.05,0-.1,0-.1.1,0-.12-.15.27-.19.08,0,.08,0,.29-.09.27a.24.24,0,0,1,0-.09c0,.09-.1.13,0,.35-.16-.62-.45,0-.6-.49a1.15,1.15,0,0,1-.35.15c0-.06,0-.1,0-.08-.14-.18-.09.57-.25.36s.08-.17,0-.29c0-.65-.19.09-.3-.29l0,0c-.08-.22-.2.25-.34.2a.31.31,0,0,0,0-.1.84.84,0,0,1-.4.53c0-.25.06-.13,0-.39-.06,0,0,.42-.1.49a1.62,1.62,0,0,1-.13-.54h.11c-.06-.36-.14,0-.2,0v-.16c-.17,0-.17.45-.35.42l0,.12c-.1.38-.09-.22-.19.07l0-.4a1.87,1.87,0,0,1-.35.46,2.41,2.41,0,0,1,.29-.62.25.25,0,0,0-.25.22s.06-.13.08-.07c-.08.31-.18.46-.31.46,0-.77-.34-.2-.44-.79-.23.28-.46-.12-.72-.08.09.6-.08,0-.07.63-.06,0-.08,0-.09,0l-.19-.36c0-.18.06-.14.06-.28s-.06-.25-.15-.42c0,.22,0,.32-.13.23l.11.28c-.19.33-.16-.51-.36-.19l.06-.19c-.1.11-.36,0-.46.49,0-.07,0-.24,0-.28-.23-.08-.52.52-.71.22l0-.15s-.08.28-.13.13,0-.15,0-.16-.11.26-.17.17l.05-.16c-.23-.2-.36.41-.55.51a.75.75,0,0,0-.27-.66v-.06c-.27,0-.46.37-.71.54-.15-.48-.52-.2-.77-.47a.57.57,0,0,1,0,.39c-.06-.09-.16.3-.15-.1h0c0-.4-.16-.29-.26-.3V251c-.25-.76-.64.29-.78-.4-.06.13-.13.13-.19.26v-.28a.48.48,0,0,0-.44,0l0-.2c-.12,0-.15.81-.25.83l0-.42c-.2,0-.4-.37-.6,0,0-.06,0-.18,0-.2s-.36-.28-.33.3c0-.38-.2,0-.31.13l0-.28c-.1.35-.1.45-.22.55s0-.22,0-.15c-.1-.15-.08.26-.2.11l0-.17c-.1,0-.09.07-.15.28s-.19-.07-.21-.32c0,.15-.07.35-.13.28a.36.36,0,0,1,0-.18c-.18-.19-.26.32-.38,0a.54.54,0,0,0,0-.17c.14,0,.25,0,.24,0,0-.25-.11-.3,0-.65-.09.19-.24.61-.35.49a.64.64,0,0,1,0-.09v0s0,0-.06.05-.06-.08-.09-.08c0-.21-.13-.12-.18-.13,0,.28-.07.24,0,.47,0,0,0,0,0,0l0,0v0l.14,0c0,.15-.09.27-.15.11,0,.18-.06.37-.08.45-.07-.39-.22-.6-.24-.84-.17.16-.4.1-.5.63,0,.07-.06-.15-.07-.23s.06-.05.07-.13c-.09.14-.28.06-.3.43-.13-.17.06-.34-.1-.28l0-.12c-.33-.59-.53.95-.89.19a.28.28,0,0,1,0,.13c-.41-.34-.85.31-1.25-.22-.12-.1-.13.13-.2.31l0-.3-.12.35c-.17.25-.29-.74-.51-.26l0,.2c-.08,0-.25.12-.24-.11,0,0,0,.21-.05.1v-.15l-.2.27c-.14-.12,0-.63-.19-.66a1,1,0,0,0-.2.56s.09.1.09.26l-.08.08a2.57,2.57,0,0,0,.12,1.27l.12-.28,0,.22-.1,0c.06.21.09,0,.14-.11a.59.59,0,0,0,0,.25l.12-.44c0,.18,0,.36,0,.46.06-.21-.06-.41,0-.55.06.21,0,.39.11.21a.45.45,0,0,1,0,.25c.06-.15.17-.07.2-.31.06.26.21-.07.2.37,0-.11.12-.35.17-.36-.1.52.22,0,.19.59.08-.47.28-.21.42-.47,0,0,0,.11,0,.09s.1.18.15.27a2.11,2.11,0,0,1,.19-.72c.1.38-.06.46,0,.82,0-.32.17-.32.14-.58a1.3,1.3,0,0,1,.1.44c0-.49.07-.09.13-.39.1.24,0,.46.14.31A.48.48,0,0,1,194.89,253.43Zm2.76-.85h-.06Zm.23,0a.18.18,0,0,0-.1,0c0-.09,0-.19,0-.19S197.84,252.49,197.88,252.58Zm-.49-2s.05,0,.05.07l-.06,0v0C197.38,250.71,197.38,250.66,197.39,250.63Z"/><path class="cls-9" d="M197.32,251a0,0,0,0,0,0,0,.14.14,0,0,0,0,.06s0-.06,0-.09Z"/><path class="cls-9" d="M218.31,251.41h0s0,0,0,0S218.32,251.42,218.31,251.41Z"/><polygon class="cls-9" points="201.08 253.11 201.08 253.04 201.06 253.1 201.08 253.11"/><path class="cls-9" d="M219.59,252.38a.19.19,0,0,0,0,.07A.25.25,0,0,0,219.59,252.38Z"/><path class="cls-9" d="M220.14,252.44l.08.1A.31.31,0,0,0,220.14,252.44Z"/><path class="cls-9" d="M220.56,252.58a.57.57,0,0,0,0-.12h0Z"/><path class="cls-9" d="M213.83,252.91h0C213.77,253,213.8,253,213.83,252.91Z"/><path class="cls-9" d="M215.83,252.25l-.06.14S215.83,252.41,215.83,252.25Z"/><path class="cls-9" d="M211.59,253.25h0Z"/><path class="cls-9" d="M215.68,252.38c0,.06.06.05.09,0S215.71,252.34,215.68,252.38Z"/><path class="cls-9" d="M222.4,252.71h0v-.05Z"/><path class="cls-9" d="M222.42,252.67l0,0S222.43,252.64,222.42,252.67Z"/><path class="cls-9" d="M222.49,252.57l0,.07S222.48,252.65,222.49,252.57Z"/><path class="cls-9" d="M221.84,252.58v.1A.25.25,0,0,0,221.84,252.58Z"/><path class="cls-9" d="M221.67,252.61s.1.21.16.15v-.08C221.81,252.83,221.71,252.44,221.67,252.61Z"/><path class="cls-9" d="M221,251.35l.14.08c0-.11-.06-.26,0-.28C220.93,250.82,221.15,251.39,221,251.35Z"/><path class="cls-9" d="M220.52,251.19c.07-.05,0-.16,0-.22C220.47,251.07,220.46,251.09,220.52,251.19Z"/><path class="cls-9" d="M217.32,251.19v-.26C217.26,251,217.32,251,217.32,251.19Z"/><polygon class="cls-9" points="216.7 252.51 216.76 252.67 216.79 252.44 216.7 252.51"/><polygon class="cls-9" points="216.34 250.69 216.37 250.65 216.27 250.75 216.34 250.69"/><path class="cls-9" d="M211,250.78l0,.31C211,251,211,250.68,211,250.78Z"/><path class="cls-9" d="M208.65,251.1c0-.16-.09-.26-.13-.1S208.62,251.14,208.65,251.1Z"/><polygon class="cls-9" points="201.69 250.59 201.74 250.48 201.65 250.57 201.69 250.59"/><path class="cls-9" d="M222.21,235.18c0-.09-.14-.24-.2-.16l.12.31Z"/><path class="cls-9" d="M221.34,235a1,1,0,0,0,.27.72c-.08-.33,0-.23-.09-.62,0-.08.19,0,.24.12,0-.09.17,0,.1-.22-.25-.15-.38-.08-.4.19C221.39,235.15,221.37,235.06,221.34,235Z"/><path class="cls-9" d="M213.32,239.55h.07A.09.09,0,0,0,213.32,239.55Z"/><path class="cls-9" d="M208.43,242.61a.06.06,0,0,0,0-.09S208.4,242.6,208.43,242.61Z"/><path class="cls-9" d="M207.4,243.05l.06,0S207.39,243,207.4,243.05Z"/><path class="cls-9" d="M213.32,239.55h-.18C213.18,239.64,213.24,239.57,213.32,239.55Z"/><path class="cls-9" d="M220.71,236.37a.5.5,0,0,0,0-.12l0,.07Z"/><path class="cls-9" d="M215.29,238l0,0a1,1,0,0,0,0-.14Z"/><path class="cls-9" d="M216.89,236.88s.09.26.14.37c0-.11,0-.18,0-.21Z"/><path class="cls-9" d="M219.73,235.64l0-.06Z"/><path class="cls-9" d="M214.1,238.66l-.07-.08A.27.27,0,0,0,214.1,238.66Z"/><path class="cls-9" d="M194.4,249.31h0Z"/><polygon class="cls-9" points="193.78 251.85 193.75 251.83 193.6 251.87 193.78 251.85"/><path class="cls-9" d="M205.83,244.47h0C205.85,244.4,205.83,244.43,205.83,244.47Z"/><path class="cls-9" d="M206.36,235c-.15.29-.44-.2-.57.21C205.88,235.12,206.31,235.3,206.36,235Z"/><path class="cls-9" d="M220.64,236.36l-.06,0A.1.1,0,0,0,220.64,236.36Z"/><path class="cls-9" d="M205.79,235.2h0v0Z"/><path class="cls-9" d="M207.58,247.65a.5.5,0,0,0-.13,0Z"/><path class="cls-9" d="M205.81,245.83l-.06.07A.19.19,0,0,0,205.81,245.83Z"/><path class="cls-9" d="M207.24,246s.06,0,0-.11l0,0S207.29,246,207.24,246Z"/><polygon class="cls-9" points="207.24 244.33 207.19 244.36 207.2 244.41 207.24 244.33"/><path class="cls-9" d="M193.12,244.67a1.33,1.33,0,0,1-.24.11C193.08,244.72,193.18,244.94,193.12,244.67Z"/><path class="cls-9" d="M220.62,236.23c0,.07,0,.11,0,.13l0,0Z"/><path class="cls-9" d="M205,245.9l0-.25A.92.92,0,0,0,205,245.9Z"/><path class="cls-9" d="M196.27,235.12l0,.06S196.28,235.16,196.27,235.12Z"/><path class="cls-9" d="M205,244.89a.37.37,0,0,0,.19-.14.15.15,0,0,0-.07,0Z"/><path class="cls-9" d="M192.88,244.78Z"/><path class="cls-9" d="M193.84,246.26c-.05-.23-.38,0-.6,0-.16-.26.24-.19.4-.32-.12-.15-.49-.22-.5-.36s.08-.05.16,0c-.32-.13-.11-.54-.51-.7a.18.18,0,0,1,.09,0,2.1,2.1,0,0,1-.5.1c0-.1-.26-.17,0-.24,0,.07.1.06.18.08l-.12-.1c.33-.15.13.14.39.1-.14-.2-.46-.42-.38-.6.33-.07.16.38.44.12l-.1.27c.51-.26,0,.16.53-.09,0-.34-.22-.35-.15-.69-.2,0-.28.05-.47,0-.37-.46.82-.42.36-.74-.23-.08-.66-.11-.44-.36l.39.08c0-.32-.55-.19-.29-.52.15.06.12.25.17.21.3-.21-.22-.16-.21-.33l.34,0a10.82,10.82,0,0,1-.27-1.12c.1,0,.2.11.31,0a1.7,1.7,0,0,1,.52-1.36l-.24-.24s.15,0,.19,0c.15-.13-.18-.06-.26-.18s.2-.07.26,0c-.16-.36-.21-1,.21-1.18l.06.09c.21-.17-.42-.52-.07-.61l0,.07c.36-.42.5-1.09,1.1-1.13-.28-.34.48-.27.07-.69.43,0,.44.11.88,0,.1-.05-.12-.39,0-.53l.19.24,0-.37.3.23.06-.14a.28.28,0,0,1-.22-.12c.09-.24.54-.12.63,0a4.48,4.48,0,0,1,.28-.47c.05.11,0,.19,0,.29.07-.4.2.26.26-.11-.06,0-.07-.17-.09-.23.19.12.42,0,.58-.15l.05.21c.33-.09.64-.36,1-.46-.16-.06-.23-.42-.12-.49l.13.31c0-.22-.16-.09-.06-.37.16,0,.18.33.13.46l.15-.15c0,.09,0,.15,0,.27,0-.21.35.26.39-.1l0,.09c.37-.05.54-.18.85-.21,0-.28.12-.22.22-.44.25.08.49.33.76.34s.09-.23.21-.38c0,.25.25.29.07.44a3.33,3.33,0,0,0,.88,0c0-.11,0-.18,0-.25s.13.17.07.28h0c.29-.08.48.21.58.48s.15.51.45.42h0l.44.06c.07.15-.22.06-.26.24.57,0,.26.5.65.67-.3.27-.21.45-.09.68s.26.48.06.72l.17-.06c.2.06-.07.14-.1.22.14,0,.14-.14.24-.09.38.83,0,1.93,0,2.88,0,.35.93.1.55.58l-.34-.09c.46.67.11,1.44.48,2.11-.08,0-.18,0-.18-.1-.23.16,0,.54.21.53,0,.11-.18,0-.28.11s.32.35.09.44c0,0-.08,0-.1-.07s0,.45.26.35c-.13.26.13.5,0,.71.32.13-.14.44.29.49-.45,0-.36.45-.15.62-.14-.06-.15.14-.34.07,0,.19.09.36.32.34-.55.32.41.71-.29.88a6.31,6.31,0,0,1,.34,1.14l1.87-.1a2.63,2.63,0,0,1-.15-.35c.34,0,.22.23.34.31l-2.25.13c0-.06-.09-.09-.21-.1l0,.08,2.61-.14c-.24-.24-.59-.47-.44-.83.07-.09.18.08.26.11-.15-.39.16-.68.06-1.08,0,0,.07.07.09.11s.12-.12-.07-.19l0,.08c-.32,0-.46-.51-.58-.6.47.37.3-.29.87.24a.34.34,0,0,0-.2-.22c.08,0,.16,0,.26.12,0-.28-.2-.31-.07-.51.08.05.08.11.17.19-.1-.2-.19-.42,0-.53.05,0,.12.07.08.12.18-.29,0-.82.43-1,.22.39.2,0,.47.26l.08-.23-.19-.07c.15-.12.1-.44.31-.46v.21l.23-.29-.25,0c0-.28-.32-.36,0-.44,0,.06.17-.13.38,0h0c0-.15,0-.32.2-.33s.21.35.28.4c-.1-.31.33-.34.25-.69a.73.73,0,0,0,.15.28l-.07-.26c.12,0,.16,0,.23.18.26-.12-.34-.34.06-.36,0,0,0,.06,0,.12.35-.1.47-.5.81-.57.28.27-.19.23.07.44.35-.3.56-.89,1-1.06h-.09c-.24-.48.42,0,.47-.29,0,.07.1.29.08.23.3-.09.45-.44.75-.83l0,.14c.22,0,.44-.19.64-.25,0-.14.08-.18-.09-.31.92.33.73-1,1.53-.71-.05,0-.06.18,0,.16l.31-.35c-.15-.18-.13-.09-.3-.19a.35.35,0,0,1,.12-.36c-.09.23.2.31.34.37a1.18,1.18,0,0,1-.11-.19c.42.22-.22-.41.2-.35l.05.11c.07-.12.08-.32.2-.36.19.2,0,.18.08.37.14-.11,0-.62.31-.49,0,.11-.12.17-.15.27.32.17.3.09.44.06h0l.34,0-.11,0c-.19-.71.32-.36.33-.91,0,.52.09.23.24.5.11,0,.26,0,.28.13,0-.28.31,0,.29-.38.06.08.13-.07.24.15.11-.16-.13-.12-.19-.23.07-.44.8,0,.9-.64.21-.35.08-.66.28-1,.18.07.11.35.11.35a.38.38,0,0,0,.42-.27c0,.09.08.14.19.2.1-.1-.12-.35.11-.33a1.37,1.37,0,0,1,.1.41c.09-.17.12-.41.22-.57.13.12.05.27.06.4.12-.17.33-.4.23-.66h-.15s.16.17.14.24c0,.27-.25,0-.31,0l.07-.11c-.41-.42-.36.33-.58.44l-.14-.41,0,.43c-.1-.07-.26-.24-.19-.36-.26-.08-.05.21-.3.1,0,0,0-.05,0-.07l-.08.2c0-.09-.18-.24-.06-.24-.39,0-.24.53-.51.32v0c-.28.34.13.28.06.75l-.59-.52.13.28a.13.13,0,0,1-.18-.07c0,.26.1.1.12.31-.32-.12-.41.42-.71,0,.06.23.26,0,.16.3-.33-.41-.17.21-.46.11-.09-.26.14-.23-.16-.33.15.44-.36.12-.45.28.19.31-.21.31-.37.56-.06-.11-.54.11-.82.13l0,0c.16.33-.1.41-.21.58-.12-.19-.14-.28-.1-.42l-.15.1a.33.33,0,0,1-.06.3l-.11-.26c-.19.15-.23.53-.58.54.12.23.59.47.41.79-.09-.11-.22-.3-.18-.4s0,.15-.1.13l0-.26c-.17,0,0,.2-.06.24-.11-.16-.15-.07-.22-.21s.13,0,.12-.07a.52.52,0,0,1-.43-.08c.07.09.14.22.08.29s-.2-.15-.37-.16c0,.14-.18.1,0,.36-.06,0-.15-.08-.21-.13,0,.18-.46.34-.18.53h0v0h0c-.18.46-.79.31-1.06.63l-.05-.08c-.14.22-.41.34-.43.61-.06,0-.24-.06-.28-.18-.11.16-.07.27-.38.27.06-.24-.13-.09.09-.21-.24.06-.37,0-.44.32a.2.2,0,0,0-.38-.05l.24.06a.73.73,0,0,1-.3.19l-.13-.31c-.63-.08-.35,1.05-1.05.71,0,.27.32,0,.38.27-.22.09-.69-.16-.75-.11-.37,0,.05.56-.29.67.1.06.33.29.21.53s-.54-.2-.48-.37a.05.05,0,0,1,.1,0c0-.08.08-.19-.07-.23l0,.11c-.17,0-.41.21-.48,0-.07.21.07.2.21.16-.35.07-.37.31-.68.45.08,0,.21.08.18.11-.44.23,0,.31-.16.57-.25,0-.28-.34-.38,0-.22.07-.27-.17-.29-.3,0,.38-.48.36-.63.49l0-.19a.53.53,0,0,1-.12.25l.25.06c-.09.06-.14.12-.22.07.07.17.37.16.44.43-.17.05-.09.39-.38.27.3-.29-.3-.12-.16-.45a.27.27,0,0,1-.13.21s0,0-.06-.07c-.44.21.22.33,0,.68-.13-.12-.35-.06-.34,0,.08-.16.3,0,.37.24-.23.18,0,.3-.08.41l.12-.12c.15.12.08.22.08.4-.14,0,0-.18-.12-.14.24.27-.44.33-.3.66-.14.1-.33-.06-.43.05.17.36-.3.33-.14.72.25-.1.18-.11.41.14a3.86,3.86,0,0,1-.12-.57,3.68,3.68,0,0,0,.31.38c0-.15-.12-.35-.06-.45.17.2.11.17.32.12-.39.18.15.43-.08.66h-.6c-.19.31.08.56.22.85l1.84-.1a.5.5,0,0,1,0-.34l-.11.13c-.23-.07,0-.27-.1-.41a.59.59,0,0,0,.39-.12c-.14,0,0-.32-.36-.38l.27-.18c.12-.35-.55-.42-.47-.76.21.11.36,0,.5.19,0-.11.05-.21-.09-.22.13-.06-.26-.32-.07-.41-.09,0-.29-.07-.27-.2h.09c-.09,0-.13-.2-.35-.09.62-.34,0-1,.49-1.27a4.55,4.55,0,0,1-.17-.76c.06,0,.1,0,.08,0,.18-.31-.57-.17-.38-.52s.18.17.3.06c.65-.08-.11-.42.26-.68l0,.06c.21-.19-.27-.43-.24-.72a.19.19,0,0,0,.1,0,1.44,1.44,0,0,1-.6-.82c.26.07.14.12.4,0,0-.12-.41.07-.51-.17.13-.1.24-.29.51-.34l0,.24c.34-.16,0-.31,0-.44h.15c-.09-.36-.47-.33-.49-.72l-.11,0c-.42-.16.19-.2-.12-.38l.38-.11a3.59,3.59,0,0,1-.54-.68,2.21,2.21,0,0,1,.69.54c0-.15-.09-.48-.3-.52.05,0,.15.11.1.17a.74.74,0,0,1-.54-.61c.76-.06.08-.75.62-1.07-.37-.45-.09-1.06-.37-1.69-.48.42-.08-.18-.64.08-.09-.12-.1-.17-.07-.2a4.76,4.76,0,0,0,.13-.57c.11-.19.19.07.31,0-.13-.35.16-.26.17-.56-.16.15-.33,0-.38-.18a2.83,2.83,0,0,1-.08.4c-.54-.24.19-.68-.42-.91h.26c-.25-.16-.75-.78-1.26-.53,0-.08,0-.26.18-.22-.51-.48-1.44-.26-1.75-.68l.09-.13c-.12,0-.27.21-.36,0s.09-.13,0-.15-.36.17-.48.05l.17-.13c-.54-.33-1,.23-1.4.29,0-.44-.41-.61-.64-.68v-.06c-.69,0-1.11.44-1.65.72-.46-.41-1.26.1-1.91.08.12,0,.12.33,0,.41s-.22.43-.37.06l.05,0c-.26-.31-.49-.09-.69,0l.22.48c-.44-.2-.75.07-1,.34s-.42.53-.77.36c0,.19-.15.31-.17.5l-.19-.22a2.18,2.18,0,0,0-.79.76l-.09-.21c-.21.2.39.8.26,1l-.38-.2c-.28.38-.88.6-.77,1.21,0,0-.15-.11-.13-.19-.12.19-.66.66-.1.83-.35-.16-.23.43-.17.72l-.24-.14c.25.33.34.37.34.67-.06,0-.23,0-.14-.08-.21.17.2.25,0,.46l-.14-.15c-.09.22,0,.23.17.41s-.18.4-.43.38c.13.07.31.23.21.35a.21.21,0,0,1-.17-.09c-.27.34.21.62-.1.83a.26.26,0,0,0-.17,0,1.5,1.5,0,0,1,.13-.52c-.26-.05-.34.2-.66-.07.16.25.51.65.37.88l-.09,0,0,0a.16.16,0,0,0,0,.16.42.42,0,0,0-.1.2c-.21,0-.13.28-.16.4.29,0,.23.17.47,0,0,0,0,0,0-.11a.07.07,0,0,0,0-.06h0a2.82,2.82,0,0,0,0-.31c.13.12.25.23.08.35l.44.2c-.4.14-.63.46-.87.5.14.38.1.91.64,1.12.07.1-.15.13-.23.17s-.05-.13-.13-.16c.15.21.09.63.47.65-.14.27-.35-.12-.26.24l-.12,0c-.51.8,1.07,1,.47,1.91,0-.06,0-.09.11-.11-.16.95.7,1.71.43,2.69,0,.27.2.23.41.32l-.27.14.41.15c.35.27-.52.83.08,1.12l.18-.12c0,.17.27.46,0,.51,0,0,.22,0,.14.08l-.15.05.39.3c0,.34-.61.16-.49.6.11.15.59.32.67.22a.23.23,0,0,1,.18-.25l.13.12c.45-.12.94-.16,1.13-.63l-.36-.16.19-.15.08.2c.16-.18,0-.2-.19-.24a.41.41,0,0,0,.2-.19l-.51-.1c.17-.09.38,0,.43-.2-.24-.05-.36.24-.55.09.16-.19.34-.21.12-.29a.24.24,0,0,1,.26,0c-.18-.08-.17-.32-.42-.3.2-.21-.21-.41.22-.53a.69.69,0,0,1-.45-.22c.56.05-.11-.44.45-.55-.5,0-.37-.49-.7-.7,0,0,.13,0,.11.05,0-.16.12-.25.18-.37-.38.08-.53-.13-.8-.2.31-.29.47,0,.81-.16-.31.1-.39-.24-.63-.11.19-.21.08-.16.38-.31-.49.09-.12-.11-.44-.16.19-.27.44-.16.24-.35C193.62,246.1,193.84,246.26,193.84,246.26Zm-1.2-5.36h0v0Zm.06-.45a.9.9,0,0,0,0,.19c-.1,0-.19,0-.18-.07S192.61,240.5,192.7,240.45Zm-2.06.8c0-.09,0-.11.08-.12a1,1,0,0,0,0,.15h0Z"/><path class="cls-9" d="M191,241.43s0,0,0,0l.07,0-.09,0Z"/><path class="cls-9" d="M213.4,239.55h0l0,0Z"/><polygon class="cls-9" points="195.98 235.51 195.93 235.46 195.94 235.53 195.98 235.51"/><path class="cls-9" d="M216.2,238.9l.07,0Z"/><path class="cls-9" d="M217.22,238.32h0Z"/><path class="cls-9" d="M218.05,238l-.05-.11h0Z"/><path class="cls-9" d="M207.6,246.43v0C207.63,246.54,207.62,246.49,207.6,246.43Z"/><path class="cls-9" d="M209.49,243.13a.55.55,0,0,1,0,.19C209.54,243.29,209.59,243.26,209.49,243.13Z"/><polygon class="cls-9" points="205.02 245.93 205.02 245.93 205.02 245.9 205.02 245.93"/><path class="cls-9" d="M209.32,243.43a.14.14,0,0,0,.15-.11C209.41,243.34,209.34,243.36,209.32,243.43Z"/><path class="cls-9" d="M221.39,236h.05l0,0Z"/><path class="cls-9" d="M221.42,235.9l0-.05S221.41,235.87,221.42,235.9Z"/><path class="cls-9" d="M221.49,235.73l-.05.12A.09.09,0,0,0,221.49,235.73Z"/><path class="cls-9" d="M220.32,236.49l.05.09A.44.44,0,0,0,220.32,236.49Z"/><path class="cls-9" d="M220,236.71c.08,0,.3.06.36-.05l0-.08C220.4,236.74,220,236.52,220,236.71Z"/><path class="cls-9" d="M218.09,236.46l.29-.09c-.1-.06-.24-.15-.13-.25C217.75,236.06,218.44,236.29,218.09,236.46Z"/><path class="cls-9" d="M217.21,236.84c.11-.13-.09-.13-.11-.19C217.06,236.79,217.06,236.82,217.21,236.84Z"/><path class="cls-9" d="M211.5,240.51l-.13-.23C211.29,240.38,211.43,240.37,211.5,240.51Z"/><polygon class="cls-9" points="211.13 242.32 211.31 242.39 211.23 242.16 211.13 242.32"/><polygon class="cls-9" points="209.48 241.22 209.5 241.16 209.37 241.36 209.48 241.22"/><path class="cls-9" d="M207.49,244.63l-.31,0C207.24,244.75,207.59,244.77,207.49,244.63Z"/><path class="cls-9" d="M206.87,239.65c.15-.08.23-.23.07-.3C206.93,239.47,206.82,239.59,206.87,239.65Z"/><polygon class="cls-9" points="195.62 232.7 195.67 232.56 195.52 232.74 195.62 232.7"/><path class="cls-9" d="M221.6,199.21c-.09,0-.24.15-.14.22l.31-.14Z"/><path class="cls-9" d="M221.51,200.15a1,1,0,0,0,.73-.25c-.33.06-.25,0-.63.07-.1-.07,0-.22.09-.27-.09,0,0-.18-.24-.11-.13.27,0,.41.24.44C221.66,200.1,221.57,200.12,221.51,200.15Z"/><path class="cls-9" d="M222.65,209.77l0-.05A.1.1,0,0,0,222.65,209.77Z"/><path class="cls-9" d="M220.56,215.37a.1.1,0,0,0,0-.1S220.53,215.36,220.56,215.37Z"/><path class="cls-9" d="M219.71,216l0,0S219.7,215.94,219.71,216Z"/><path class="cls-9" d="M222.65,209.77l-.13.15C222.62,210,222.61,209.85,222.65,209.77Z"/><path class="cls-9" d="M222.91,201a.22.22,0,0,0-.12,0,.23.23,0,0,1,.07.07Z"/><path class="cls-9" d="M222.6,207.11v0a.4.4,0,0,0-.13,0Z"/><path class="cls-9" d="M222.43,205.12s.27,0,.4,0a.33.33,0,0,1-.21-.07A.93.93,0,0,0,222.43,205.12Z"/><path class="cls-9" d="M222.08,201.92l-.06,0Z"/><path class="cls-9" d="M222.47,208.55h0Z"/><path class="cls-9" d="M192.54,196.69l0,0S192.55,196.68,192.54,196.69Z"/><polygon class="cls-9" points="195.6 196.38 195.57 196.4 195.59 196.56 195.6 196.38"/><path class="cls-9" d="M218.29,216.94h0C218.32,216.89,218.3,216.91,218.29,216.94Z"/><path class="cls-9" d="M202.06,219.54c.17.27-.35.29-.09.6C202,220,202.28,219.73,202.06,219.54Z"/><path class="cls-9" d="M222.9,201.08a.35.35,0,0,1,0,.08A.12.12,0,0,0,222.9,201.08Z"/><path class="cls-9" d="M202,220.14h0l0,0Z"/><path class="cls-9" d="M214.88,218.87a1,1,0,0,0,.08.11A.29.29,0,0,0,214.88,218.87Z"/><path class="cls-9" d="M217.82,218h0Z"/><path class="cls-9" d="M213.39,219.63s-.06,0-.11,0l0,0S213.34,219.6,213.39,219.63Z"/><polygon class="cls-9" points="211.67 219.88 211.71 219.93 211.76 219.91 211.67 219.88"/><path class="cls-9" d="M190.26,202.19h.26C190.32,202.15,190.33,201.87,190.26,202.19Z"/><path class="cls-9" d="M222.77,201.08c.07,0,.11,0,.13,0l0-.05A.19.19,0,0,0,222.77,201.08Z"/><path class="cls-9" d="M213.72,221.82l-.31,0A1.13,1.13,0,0,0,213.72,221.82Z"/><path class="cls-9" d="M190.73,215.67l-.06,0S190.69,215.67,190.73,215.67Z"/><path class="cls-9" d="M212.53,222a.5.5,0,0,0-.2-.17.14.14,0,0,0,0,.07Z"/><path class="cls-9" d="M190.53,202.18h0Z"/><path class="cls-9" d="M190.49,200.14c-.1.26.3.24.48.36,0,.35-.31.06-.52.11,0,.23.29.49.23.63-.06,0-.09,0-.15,0,.21.29-.18.63.09,1h-.09a2.4,2.4,0,0,1,.49.11c0,.12.16.29-.08.26,0-.07-.07-.1-.13-.16l.07.16c-.37,0-.07-.21-.32-.28,0,.28.23.64.09.8-.34,0,0-.47-.35-.3l.21-.26c-.58.08.09-.16-.52-.12-.21.36,0,.48-.16.85.16.13.27,0,.43.18.19.63-.94.22-.6.74.2.16.61.3.32.54l-.35-.18c-.12.38.49.33.16.68-.14-.1-.07-.33-.13-.28-.34.21.18.23.14.43l-.34,0c0,.43.14.92.15,1.39-.1,0-.2-.13-.31,0a4,4,0,0,1-.39,1.84l.28.23c0,.05-.13.09-.19,0-.11.22.19,0,.3.12s-.17.17-.25.09c.24.41.56,1.11.29,1.55l-.1-.07c-.09.34.64.3.4.63l0-.05c0,.73.39,1.42.11,2.06.43,0,0,.75.61.6-.14.48-.27.41-.23,1,0,.16.43.07.57.22l-.28.13.41.1-.27.29.16.13a.25.25,0,0,1,.13-.24.63.63,0,0,1,0,.8c.19.16.4.3.6.44-.11.06-.21,0-.33-.05.47.13-.23.24.2.36,0-.08.16-.09.22-.12a.84.84,0,0,0,.43.72l-.2.1a7.5,7.5,0,0,0,1.25,1.11c-.09-.2.19-.45.34-.37l-.16.29c.21-.09,0-.2.27-.26.14.16-.12.38-.29.38l.27.08c0,.08-.12.09-.22.17.21-.09.16.56.5.36l0,.09a7.13,7.13,0,0,0,1.17.59c.15-.24.27-.1.5-.24a2.64,2.64,0,0,0,.87.74c.31,0,.16-.19.34-.3-.08.25.3.36,0,.46a2.84,2.84,0,0,0,1.22.15c0-.12-.08-.18,0-.26s.2.17.15.29l0,0c.71-.18,1.31,1.1,1.95.67l0,0c.2-.06.39-.11.58-.18.24.08-.17.17,0,.35.64-.34.91.2,1.42,0,.3.8,1.3.06,1.76.56l0-.18c.14-.17.15.11.25.16,0-.14-.13-.17-.05-.26a11.8,11.8,0,0,1,3.3.47c.4.05.22-.92.72-.5l-.14.33c.8-.4,1.66,0,2.44-.39,0,.08,0,.18-.12.18.19.23.63,0,.62-.22.13,0,0,.18.13.27s.4-.34.51-.11c0,0,0,.09-.07.11s.52,0,.39-.28c.31.1.56-.19.82,0,.12-.32.54.07.53-.36,0,.44.59.28.74,0,0,.15.2.11.16.31.22,0,.4-.17.32-.39.52.45.7-.61,1.1,0,.59-.41,1.12-.77,1.64-1.09.15.44-.61.28-.42.71.5-.37.64-.86,1.2-1,.16,0,0,.22,0,.3.44-.42,1-.49,1.33-1,0,0,0,.11,0,.16s.24-.07.11-.24l-.05.1c-.3-.15,0-.72-.11-.87.21.58.47-.19.72.57a.29.29,0,0,0-.06-.3c.1,0,.18,0,.19.19.23-.31,0-.39.23-.61.06.07,0,.14.09.26,0-.27,0-.52.25-.65,0,.05.1.09,0,.14.34-.36.18-.93.63-1.21.25.38.22-.05.54.14l.07-.3h-.21c.15-.19,0-.52.25-.63l0,.23.18-.42-.25.14c0-.3-.42-.22-.17-.43,0,.07.12-.2.37-.2h0c0-.16-.11-.32.05-.43s.35.21.44.22c-.23-.24.16-.54-.09-.81a.54.54,0,0,0,.28.16l-.2-.19c.12-.07.16-.07.3,0,.17-.29-.47-.09-.14-.37,0,0,0,0,.06.11.25-.32.12-.76.35-1.05.39,0,0,.32.32.31.11-.52-.1-1.16.11-1.61l-.07.08c-.49-.2.34-.3.16-.6,0,.07.27.14.22.11.16-.31,0-.71-.05-1.24l.12.08c.15-.18.15-.51.25-.72-.13-.08-.1-.2-.3-.15.85-.59-.28-1.29.37-1.85,0,.08.12.18.12.12l-.11-.51c-.24,0-.14.06-.33.17a.46.46,0,0,1-.24-.33c.16.22.37,0,.5-.1-.07,0-.15,0-.22,0,.4-.27-.47,0-.2-.39h.12c-.06-.13-.22-.24-.2-.39.26-.07.13.14.35.13,0-.2-.53-.36-.28-.56.08.08.09.2.17.28.3-.22.22-.24.25-.4v0c0-.12.07-.24.1-.37l-.07.1c-.73-.17-.19-.51-.7-.77.49.25.26,0,.56,0,.07-.1.13-.26.22-.23-.27-.12.14-.32-.26-.48.1,0,0-.18.22-.19-.13-.2-.15.08-.28.09-.4-.23.21-.88-.39-1.2-.31-.34-.65-.29-.94-.56.1-.18.37,0,.37,0a.43.43,0,0,0-.22-.51c.1,0,.14-.07.22-.17-.1-.13-.37.06-.33-.18a1.43,1.43,0,0,1,.42,0c-.17-.13-.4-.21-.58-.33.12-.13.29,0,.42,0-.18-.16-.43-.42-.69-.33v.16c-.05-.06.18-.15.25-.12.28.05,0,.27,0,.33l-.12-.09c-.42.4.34.42.43.69l-.42.09.43.09c-.07.1-.27.23-.38.14-.11.25.2.09,0,.33,0,0,0,0-.06,0l.18.12c-.1,0-.26.14-.25,0-.1.38.49.36.23.59l0,0c.28.38.31-.06.75.16l-.65.43.31,0a.14.14,0,0,1-.12.16c.24.11.12-.06.34,0-.22.29.28.58-.19.73.24,0,.13-.24.34,0-.5.17.14.25-.06.5-.28,0-.17-.22-.37,0,.48,0,0,.4.07.55.36,0,.21.34.35.62-.13,0-.15.55-.29.82h-.06c.37,0,.31.32.39.52a.49.49,0,0,1-.41-.15v.19a.31.31,0,0,1,.22.22l-.27,0c0,.24.32.51.11.82.25,0,.73-.22.87.14-.14,0-.37,0-.42-.09s.1.11,0,.17l-.22-.16c-.12.14.19.09.16.21-.2,0-.15.08-.31,0,0,0,.09-.1,0-.15a.53.53,0,0,1-.33.32c.12,0,.27,0,.28.12,0,.25-.24.06-.36.2.13.07,0,.21.26.25,0,.07-.15.07-.23.09.12.14,0,.59.28.5l0,0v0h0c.23.48-.32.85-.29,1.28l-.09,0c0,.27-.07.56.09.79,0,.08-.22.13-.33.07,0,.2.13.25-.11.47-.11-.23-.16,0-.06-.22-.16.22-.32.22-.15.55a.2.2,0,0,0-.32.21l.22-.1a.63.63,0,0,1-.12.34l-.29-.17c-.54.31.31,1.1-.46,1.17.16.22.26-.17.46,0-.14.2-.67.2-.7.26-.3.18.3.48,0,.71.12,0,.43.14.39.41s-.57,0-.58-.18a.06.06,0,0,1,.1,0c0-.08,0-.19-.15-.18l.09.09c-.16,0-.31.3-.44.13,0,.2.12.17.24.09-.29.15-.24.37-.51.54.08,0,.22.05.19.08-.38.25.07.29-.08.56-.25,0-.3-.32-.37,0-.21,0-.26-.19-.29-.3,0,.34-.43.24-.56.3l0-.16a.31.31,0,0,1-.11.18l.21.12c-.08,0-.13.07-.2,0,0,.17.32.24.34.51-.15,0-.16.33-.4.1.34-.12-.22-.21-.05-.43q0,.1-.15.12a.09.09,0,0,1,0-.08c-.42,0,.12.36-.15.56-.07-.17-.26-.22-.28-.16s.23.2.21.39c-.26,0-.14.21-.25.26l.15,0c.06.17-.05.22-.15.35-.09-.11.07-.16,0-.18,0,.37-.5-.07-.6.22-.16-.05-.17-.29-.29-.31-.13.33-.35-.09-.52.19.17.19.17.13.08.42.12-.12.24-.22.35-.35,0,.16-.08.3-.12.44.13-.05.2-.26.29-.26,0,.24-.05.18.1.32-.33-.22-.27.36-.58.24l-.23-.55c-.39-.1-.43.5-.89.51l.16.05c0,.25-.24.12-.35.25-.05-.19-.16-.23-.25-.33,0,.13-.31.07-.24.47l-.26-.21c-.37,0-.27.65-.63.66.06-.23-.12-.34.07-.54-.11,0-.22,0-.19.14-.09-.11-.27.32-.41.16,0,.09,0,.3-.15.31a.19.19,0,0,1,0-.1c0,.1-.19.17,0,.36-.45-.55-1,.2-1.39-.3a4.08,4.08,0,0,1-.79.22c0-.06,0-.1,0-.08-.34-.16-.16.58-.54.4-.21-.31.18-.18.06-.3-.1-.64-.45.12-.71-.25l0,0c-.19-.21-.45.26-.76.23a.31.31,0,0,0,0-.1,1.55,1.55,0,0,1-.92.56c.09-.26.14-.14.08-.4-.14,0,.05.42-.23.49-.09-.14-.28-.25-.31-.53l.25,0c-.13-.35-.33,0-.46,0v-.16c-.39.06-.39.45-.81.42l0,.12c-.23.39-.19-.22-.42.07l-.07-.39a4,4,0,0,1-.81.45c.16-.3.48-.44.68-.61-.15,0-.51,0-.59.21.06,0,.13-.13.19-.07a.79.79,0,0,1-.73.45c.07-.77-.78-.21-1-.82-.54.26-1-.18-1.62-.18.15.62-.18,0-.2.61-.15,0-.2,0-.21,0l-.38-.41c-.08-.18.15-.12.15-.25-.3-.08-.1-.27-.28-.46,0,.22-.14.29-.3.19l.21.31c-.47.26-.29-.56-.76-.3l.16-.17c-.23.08-.76-.14-1.07.3,0-.08,0-.25.06-.27-.47-.18-1.24.24-1.54-.18l.09-.13c-.11,0-.25.22-.32,0s.09-.13,0-.15-.32.16-.41,0l.16-.13c-.39-.34-.85.12-1.28,0a.77.77,0,0,0-.21-.84l0-.06c-.44-.29-1-.15-1.5-.33a.92.92,0,0,0-.36-.7A1.94,1.94,0,0,1,194,216c0,.11-.26.22-.36.18s-.45-.06-.12-.3l0,0c.25-.32,0-.44-.08-.6l-.44.28c.16-.43-.06-.65-.28-.88s-.43-.44-.17-.71c-.17-.06-.24-.19-.4-.26l.26-.1a2.46,2.46,0,0,0-.27-.88l.21,0c0-.22-.86-.05-.94-.27l.39-.17c-.11-.42.16-.89-.28-1.24.07,0,.19,0,.22.06,0-.2.18-.79-.39-.66.37,0,0-.43-.18-.66l.28,0c-.37-.18-.46-.18-.57-.46,0-.07.22-.06.15,0,.14-.22-.27-.17-.12-.44l.18.1c0-.23-.07-.21-.28-.34s.08-.44.34-.45c-.15,0-.35-.18-.27-.31a.2.2,0,0,1,.18.07c.21-.37-.28-.6,0-.84a.32.32,0,0,0,.17,0,1.85,1.85,0,0,1-.09.51c.26,0,.32-.21.66,0-.18-.2-.56-.58-.41-.8l.09,0,0,0a.16.16,0,0,0,0-.16.41.41,0,0,0,.1-.18c.22,0,.15-.26.19-.37-.28,0-.21-.19-.46-.08,0,0,0,0,0,.11l0,.06,0,0c0,.08,0,.19,0,.31-.12-.12-.23-.24-.05-.35l-.42-.24c.41-.11.68-.39.93-.38-.09-.4.08-.88-.38-1.24,0-.12.18-.08.27-.1s0,.14.08.19c-.09-.24.1-.63-.24-.77.23-.23.29.23.33-.15l.09.08c.76-.54-.57-1.43.41-2-.06,0-.09.06-.15,0,.61-.78.31-2,1.19-2.54.21-.17,0-.29-.07-.52l.29.1-.16-.4c0-.47.94-.06.86-.67l-.18-.1c.13-.09.3-.43.42-.22,0,0-.08-.2,0-.16l.09.13a3.89,3.89,0,0,1,.19-.42c.31,0,.23.57.56.49.07-.1.27-.52.21-.63s-.18-.06-.21-.22l.14-.11c0-.46.11-1-.53-1.19-.11.12-.21.26-.31.39l-.19-.17.32-.12c-.25-.14-.33.07-.39.25a.39.39,0,0,0-.26-.16,2.32,2.32,0,0,0-.13.58c-.14-.13,0-.41-.32-.35,0,.27.36.26.19.52-.26-.08-.32-.24-.38,0a.2.2,0,0,1-.07-.26c-.08.23-.36.38-.25.62-.32-.06-.36.48-.68.18a1.11,1.11,0,0,1,0,.6c-.27-.55-.36.46-.78.1.28.43-.2.77-.11,1.21,0,0-.08-.11-.05-.12-.12.16-.27.15-.41.24.35.18.32.49.48.73-.43.08-.37-.3-.74-.37.3.11.15.5.43.52-.29.09-.16.1-.5.08.45.2,0,.19.26.42-.31.16-.46-.08-.4.22C190.57,200.43,190.49,200.14,190.49,200.14Zm-.79,6.59h0v-.14S189.7,206.66,189.7,206.73Zm-.06.56a1.5,1.5,0,0,0,0-.24c.1,0,.19,0,.18.08S189.73,207.21,189.64,207.29Zm2.07-.87c0,.09,0,.1-.09.11a.4.4,0,0,0,0-.15h0Z"/><path class="cls-9" d="M191.37,206.22s0,0,0,0l-.07,0,.08,0Z"/><path class="cls-9" d="M222.7,209.71h0l.05,0Z"/><polygon class="cls-9" points="190.31 215.13 190.37 215.1 190.29 215.08 190.31 215.13"/><path class="cls-9" d="M223.88,206.83l.07,0S223.91,206.81,223.88,206.83Z"/><path class="cls-9" d="M223.87,205.5l.09-.19A1.43,1.43,0,0,0,223.87,205.5Z"/><path class="cls-9" d="M223.88,204.47h0Z"/><path class="cls-9" d="M218.91,219.52l0,0C218.83,219.66,218.87,219.6,218.91,219.52Z"/><path class="cls-9" d="M221.76,215.42a.79.79,0,0,1,0,.2C221.86,215.55,221.9,215.5,221.76,215.42Z"/><polygon class="cls-9" points="213.75 221.82 213.75 221.82 213.72 221.82 213.75 221.82"/><path class="cls-9" d="M221.68,215.81a.18.18,0,0,0,.12-.19C221.75,215.67,221.68,215.73,221.68,215.81Z"/><path class="cls-9" d="M222.49,200.16l0,0,0,0Z"/><path class="cls-9" d="M222.43,200.13l-.06,0S222.4,200.14,222.43,200.13Z"/><path class="cls-9" d="M222.25,200l.12.06A.09.09,0,0,0,222.25,200Z"/><path class="cls-9" d="M223,201.47l.1,0Z"/><path class="cls-9" d="M223.19,201.85c0-.1.11-.32,0-.43l-.08,0C223.27,201.44,223,201.82,223.19,201.85Z"/><path class="cls-9" d="M222.49,203.81v-.33c-.09.08-.21.19-.28.06C222,204,222.43,203.4,222.49,203.81Z"/><path class="cls-9" d="M222.53,204.8c-.08-.16-.16,0-.22,0C222.42,204.92,222.45,204.94,222.53,204.8Z"/><path class="cls-9" d="M222,211.86l-.24-.09C221.77,211.91,221.86,211.8,222,211.86Z"/><polygon class="cls-9" points="222.84 213.61 223.04 213.53 222.84 213.39 222.84 213.61"/><polygon class="cls-9" points="220.84 213.71 220.83 213.65 220.83 213.87 220.84 213.71"/><path class="cls-9" d="M212,219.6l.08.31C212.11,219.84,212.09,219.49,212,219.6Z"/><path class="cls-9" d="M206.71,220.15c-.05-.15-.2-.25-.3-.1C206.53,220.07,206.65,220.2,206.71,220.15Z"/><polygon class="cls-9" points="193.2 215.14 193.34 215.16 193.17 215.06 193.2 215.14"/><path class="cls-9" d="M221.6,164.77c-.09,0-.24.15-.14.22l.31-.14Z"/><path class="cls-9" d="M221.51,165.71a1,1,0,0,0,.73-.25c-.33.06-.25,0-.63.07-.1-.07,0-.21.09-.27-.09,0,0-.18-.24-.1-.13.26,0,.4.24.43C221.66,165.66,221.57,165.68,221.51,165.71Z"/><path class="cls-9" d="M222.65,175.34l0-.06A.09.09,0,0,0,222.65,175.34Z"/><path class="cls-9" d="M220.56,180.93a.08.08,0,0,0,0-.09S220.53,180.92,220.56,180.93Z"/><path class="cls-9" d="M219.71,181.53l0,0S219.7,181.5,219.71,181.53Z"/><path class="cls-9" d="M222.65,175.34l-.13.14C222.62,175.51,222.61,175.41,222.65,175.34Z"/><path class="cls-9" d="M222.91,166.57a.22.22,0,0,0-.12,0,.46.46,0,0,1,.07.07Z"/><path class="cls-9" d="M222.6,172.68v-.05a.4.4,0,0,0-.13,0Z"/><path class="cls-9" d="M222.43,170.69s.27,0,.4,0c-.12,0-.18,0-.21-.07Z"/><path class="cls-9" d="M222.08,167.48l-.06,0Z"/><path class="cls-9" d="M222.47,174.11h0Z"/><path class="cls-9" d="M192.54,162.25l0,0S192.55,162.24,192.54,162.25Z"/><polygon class="cls-9" points="195.6 161.94 195.57 161.96 195.59 162.12 195.6 161.94"/><path class="cls-9" d="M218.29,182.5h0C218.32,182.45,218.3,182.47,218.29,182.5Z"/><path class="cls-9" d="M202.06,185.1c.17.27-.35.29-.09.6C202,185.59,202.28,185.29,202.06,185.1Z"/><path class="cls-9" d="M222.9,166.64a.35.35,0,0,1,0,.08A.16.16,0,0,0,222.9,166.64Z"/><path class="cls-9" d="M202,185.7h0l0,0Z"/><path class="cls-9" d="M214.88,184.43a.52.52,0,0,0,.08.11A.29.29,0,0,0,214.88,184.43Z"/><path class="cls-9" d="M217.82,183.55h0Z"/><path class="cls-9" d="M213.39,185.19s-.06-.05-.11,0l0,0S213.34,185.16,213.39,185.19Z"/><polygon class="cls-9" points="211.67 185.44 211.71 185.49 211.76 185.47 211.67 185.44"/><path class="cls-9" d="M190.26,167.75h.26C190.32,167.71,190.33,167.43,190.26,167.75Z"/><path class="cls-9" d="M222.77,166.64c.07,0,.11,0,.13,0l0,0A.19.19,0,0,0,222.77,166.64Z"/><path class="cls-9" d="M213.72,187.39h-.31A1.1,1.1,0,0,0,213.72,187.39Z"/><path class="cls-9" d="M190.73,181.23l-.06,0S190.69,181.23,190.73,181.23Z"/><path class="cls-9" d="M212.53,187.57a.5.5,0,0,0-.2-.17.15.15,0,0,0,0,.08Z"/><path class="cls-9" d="M190.53,167.74h0Z"/><path class="cls-9" d="M190.49,165.7c-.1.26.3.24.48.36,0,.35-.31.06-.52.11,0,.23.29.49.23.63-.06,0-.09,0-.15,0,.21.29-.18.63.09,1h-.09a2.4,2.4,0,0,1,.49.11c0,.12.16.29-.08.27,0-.08-.07-.11-.13-.16l.07.15c-.37,0-.07-.2-.32-.28,0,.28.23.64.09.8-.34,0,0-.47-.35-.3l.21-.25c-.58.07.09-.17-.52-.13-.21.36,0,.49-.16.85.16.13.27,0,.43.18.19.63-.94.22-.6.75.2.15.61.29.32.53l-.35-.18c-.12.38.49.33.16.68-.14-.1-.07-.33-.13-.28-.34.21.18.23.14.43l-.34,0c0,.43.14.92.15,1.39-.1,0-.2-.13-.31,0a4,4,0,0,1-.39,1.83l.28.23c0,.05-.13.1-.19,0-.11.22.19,0,.3.12s-.17.17-.25.09c.24.41.56,1.11.29,1.55l-.1-.07c-.09.34.64.3.4.63l0,0c0,.73.39,1.42.11,2.06.43,0,0,.75.61.6-.14.48-.27.41-.23,1,0,.15.43.06.57.21l-.28.14.41.09-.27.29.16.13a.23.23,0,0,1,.13-.23.62.62,0,0,1,0,.79c.19.16.4.3.6.44-.11.06-.21,0-.33-.05.47.13-.23.25.2.36,0-.08.16-.09.22-.12a.84.84,0,0,0,.43.72l-.2.1A7.5,7.5,0,0,0,193,184.3c-.09-.2.19-.45.34-.37l-.16.29c.21-.09,0-.2.27-.25.14.15-.12.37-.29.37l.27.08c0,.09-.12.09-.22.17.21-.09.16.56.5.36l0,.09a7.13,7.13,0,0,0,1.17.59c.15-.24.27-.1.5-.23a2.61,2.61,0,0,0,.87.73c.31,0,.16-.19.34-.29-.08.24.3.36,0,.46a2.85,2.85,0,0,0,1.22.14c0-.12-.08-.18,0-.26s.2.18.15.29l0,0c.71-.18,1.31,1.1,1.95.67l0,0c.2-.06.39-.11.58-.18.24.08-.17.17,0,.35.64-.34.91.2,1.42,0,.3.8,1.3.06,1.76.56l0-.18c.14-.17.15.11.25.16,0-.14-.13-.17-.05-.26a11.8,11.8,0,0,1,3.3.47c.4.05.22-.92.72-.5l-.14.33c.8-.4,1.66,0,2.44-.39,0,.08,0,.18-.12.18.19.23.63,0,.62-.22.13,0,0,.18.13.27s.4-.34.51-.11c0,0,0,.09-.07.11s.52,0,.39-.28c.31.1.56-.19.82,0,.12-.32.54.08.53-.36,0,.44.59.28.74,0,0,.15.2.11.16.31.22,0,.4-.17.32-.39.52.45.7-.61,1.1,0,.59-.41,1.12-.76,1.64-1.09.15.44-.61.28-.42.71.5-.36.64-.86,1.2-1,.16,0,0,.22,0,.3.44-.42,1-.49,1.33-1,0,0,0,.11,0,.16s.24-.07.11-.24L219,185c-.3-.16,0-.73-.11-.88.21.58.47-.18.72.57a.3.3,0,0,0-.06-.3c.1,0,.18,0,.19.2.23-.32,0-.4.23-.62.06.07,0,.15.09.26,0-.27,0-.52.25-.65,0,.05.1.09,0,.14.34-.36.18-.93.63-1.21.25.38.22-.05.54.14l.07-.29-.21,0c.15-.19,0-.52.25-.63l0,.23.18-.42-.25.14c0-.3-.42-.22-.17-.43,0,.07.12-.2.37-.2h0c0-.16-.11-.32.05-.43s.35.21.44.22c-.23-.24.16-.54-.09-.81a.54.54,0,0,0,.28.16l-.2-.19c.12-.07.16-.07.3,0,.17-.29-.47-.09-.14-.37,0,0,0,0,.06.11.25-.32.12-.76.35-1.05.39,0,0,.33.32.31.11-.52-.1-1.15.11-1.61l-.07.08c-.49-.2.34-.29.16-.6,0,.07.27.15.22.12.16-.32,0-.72-.05-1.25l.12.08c.15-.18.15-.51.25-.72-.13-.08-.1-.2-.3-.15.85-.59-.28-1.29.37-1.84,0,.07.12.17.12.11l-.11-.51c-.24,0-.14.07-.33.17a.46.46,0,0,1-.24-.33c.16.22.37,0,.5-.1-.07,0-.15,0-.22,0,.4-.27-.47,0-.2-.39h.12c-.06-.13-.22-.24-.2-.39.26-.07.13.14.35.14,0-.21-.53-.37-.28-.57.08.08.09.2.17.28.3-.22.22-.24.25-.4v0c0-.12.07-.24.1-.36l-.07.09c-.73-.17-.19-.5-.7-.77.49.25.26,0,.56,0,.07-.1.13-.26.22-.23-.27-.12.14-.32-.26-.48.1,0,0-.18.22-.19-.13-.2-.15.09-.28.09-.4-.23.21-.87-.39-1.2-.31-.34-.65-.28-.94-.56.1-.18.37,0,.37,0a.43.43,0,0,0-.22-.51c.1,0,.14-.07.22-.17-.1-.13-.37.06-.33-.18a1.43,1.43,0,0,1,.42,0c-.17-.13-.4-.21-.58-.33.12-.13.29,0,.42,0-.18-.16-.43-.42-.69-.33V166c-.05-.06.18-.15.25-.12.28.05,0,.27,0,.33l-.12-.09c-.42.4.34.42.43.69l-.42.09.43.09c-.07.1-.27.23-.38.14-.11.25.2.09,0,.33,0,0,0,0-.06,0l.18.12c-.1,0-.26.14-.25,0-.1.38.49.36.23.59l0,0c.28.38.31-.06.75.16l-.65.44.31,0s0,.15-.12.16c.24.11.12-.06.34,0-.22.29.28.58-.19.74.24,0,.13-.25.34-.05-.5.17.14.25-.06.5-.28,0-.17-.22-.37,0,.48,0,0,.4.07.55.36,0,.21.34.35.62-.13,0-.15.55-.29.82h-.06c.37,0,.31.32.39.52a.49.49,0,0,1-.41-.15v.19a.31.31,0,0,1,.22.22l-.27,0c0,.24.32.51.11.82.25,0,.73-.22.87.14-.14,0-.37,0-.42-.09s.1.11,0,.17l-.22-.15c-.12.14.19.09.16.2-.2,0-.15.08-.31.05,0,0,.09-.1,0-.15a.53.53,0,0,1-.33.32c.12,0,.27,0,.28.12,0,.25-.24.06-.36.2.13.07,0,.21.26.25,0,.07-.15.07-.23.09.12.14,0,.59.28.5l0,0v0h0c.23.48-.32.85-.29,1.28l-.09,0c0,.27-.07.56.09.79,0,.08-.22.13-.33.07,0,.2.13.26-.11.48-.11-.24-.16,0-.06-.23-.16.22-.32.22-.15.55a.2.2,0,0,0-.32.21l.22-.1a.63.63,0,0,1-.12.34l-.29-.17c-.54.31.31,1.1-.46,1.17.16.22.26-.17.46,0-.14.2-.67.21-.7.26-.3.19.3.48,0,.71.12,0,.43.14.39.41s-.57,0-.58-.18a.06.06,0,0,1,.1,0c0-.09,0-.2-.15-.19l.09.09c-.16,0-.31.3-.44.13,0,.2.12.17.24.1-.29.14-.24.36-.51.53.08,0,.22.05.19.09-.38.24.07.29-.08.55-.25,0-.3-.32-.37,0-.21.05-.26-.19-.29-.3,0,.35-.43.24-.56.3l0-.16a.31.31,0,0,1-.11.18l.21.12c-.08,0-.13.07-.2,0,0,.17.32.24.34.51-.15,0-.16.33-.4.11.34-.13-.22-.22-.05-.44q0,.1-.15.12a.08.08,0,0,1,0-.08c-.42,0,.12.36-.15.56-.07-.17-.26-.22-.28-.16s.23.2.21.39c-.26,0-.14.21-.25.26l.15,0c.06.17-.05.22-.15.35-.09-.11.07-.16,0-.18,0,.37-.5-.07-.6.22-.16,0-.17-.29-.29-.31-.13.33-.35-.08-.52.19.17.19.17.13.08.42.12-.12.24-.22.35-.34l-.12.43c.13-.05.2-.26.29-.26,0,.24-.05.18.1.33-.33-.23-.27.35-.58.23l-.23-.55c-.39-.1-.43.5-.89.51l.16.05c0,.25-.24.12-.35.25-.05-.19-.16-.23-.25-.33,0,.13-.31.07-.24.47l-.26-.21c-.37,0-.27.65-.63.66.06-.23-.12-.34.07-.54-.11,0-.22,0-.19.14-.09-.1-.27.33-.41.16,0,.1,0,.3-.15.31a.19.19,0,0,1,0-.1c0,.1-.19.17,0,.37-.45-.56-1,.19-1.39-.31a4.08,4.08,0,0,1-.79.22c0-.06,0-.1,0-.08-.34-.16-.16.58-.54.4-.21-.31.18-.18.06-.3-.1-.64-.45.12-.71-.25l0,0c-.19-.21-.45.26-.76.23a.31.31,0,0,0,0-.1,1.55,1.55,0,0,1-.92.56c.09-.26.14-.14.08-.4-.14,0,.05.42-.23.49-.09-.13-.28-.25-.31-.53l.25,0c-.13-.35-.33,0-.46,0v-.16c-.39.06-.39.45-.81.42l0,.12c-.23.39-.19-.22-.42.07l-.07-.39a4,4,0,0,1-.81.45c.16-.29.48-.44.68-.61-.15,0-.51,0-.59.22.06,0,.13-.14.19-.08a.79.79,0,0,1-.73.45c.07-.77-.78-.21-1-.82-.54.26-1-.18-1.62-.18.15.62-.18,0-.2.61-.15,0-.2,0-.21,0l-.38-.41c-.08-.18.15-.12.15-.25-.3-.08-.1-.27-.28-.46,0,.22-.14.3-.3.19l.21.31c-.47.26-.29-.56-.76-.3l.16-.17c-.23.08-.76-.14-1.07.3,0-.08,0-.25.06-.27-.47-.18-1.24.24-1.54-.18l.09-.13c-.11,0-.25.22-.32,0s.09-.13,0-.15-.32.16-.41,0l.16-.13c-.39-.34-.85.12-1.28,0a.78.78,0,0,0-.21-.84l0,0c-.44-.3-1-.16-1.5-.34a.93.93,0,0,0-.36-.7,1.94,1.94,0,0,1-.48-.71c0,.11-.26.22-.36.18s-.45-.06-.12-.3l0,0c.25-.32,0-.44-.08-.6l-.44.28c.16-.43-.06-.65-.28-.88s-.43-.44-.17-.71c-.17-.06-.24-.19-.4-.26l.26-.1a2.52,2.52,0,0,0-.27-.88l.21,0c0-.22-.86-.05-.94-.27l.39-.17c-.11-.42.16-.89-.28-1.24.07,0,.19,0,.22.06,0-.2.18-.79-.39-.66.37,0,0-.43-.18-.66l.28,0c-.37-.17-.46-.18-.57-.46,0-.06.22-.06.15,0,.14-.22-.27-.17-.12-.44l.18.1c0-.22-.07-.21-.28-.34s.08-.43.34-.45c-.15,0-.35-.18-.27-.31a.2.2,0,0,1,.18.07c.21-.37-.28-.6,0-.84a.24.24,0,0,0,.17,0,1.85,1.85,0,0,1-.09.51c.26,0,.32-.21.66,0-.18-.2-.56-.58-.41-.8l.09,0,0,0a.16.16,0,0,0,0-.16.41.41,0,0,0,.1-.18c.22,0,.15-.25.19-.37-.28,0-.21-.19-.46-.08,0,0,0,0,0,.11l0,.06h0q0,.12,0,.3c-.12-.12-.23-.24-.05-.35l-.42-.24c.41-.11.68-.39.93-.38-.09-.4.08-.88-.38-1.24,0-.12.18-.08.27-.1s0,.14.08.19c-.09-.24.1-.63-.24-.77.23-.23.29.23.33-.15l.09.08c.76-.54-.57-1.42.41-2-.06,0-.09.06-.15,0,.61-.78.31-2,1.19-2.54.21-.17,0-.29-.07-.52l.29.1-.16-.4c0-.47.94-.06.86-.67l-.18-.1c.13-.09.3-.43.42-.22,0,0-.08-.2,0-.15l.09.12a3,3,0,0,1,.19-.41c.31,0,.23.56.56.48.07-.09.27-.52.21-.62a.26.26,0,0,1-.21-.22l.14-.12c0-.46.11-1-.53-1.18a3.93,3.93,0,0,0-.31.38l-.19-.17.32-.12c-.25-.14-.33.07-.39.25a.39.39,0,0,0-.26-.16,2.32,2.32,0,0,0-.13.58c-.14-.13,0-.41-.32-.35,0,.27.36.26.19.52-.26-.08-.32-.24-.38,0a.2.2,0,0,1-.07-.26c-.08.23-.36.38-.25.62-.32-.06-.36.48-.68.18a1.11,1.11,0,0,1,0,.6c-.27-.55-.36.46-.78.1.28.43-.2.77-.11,1.21,0,0-.08-.11-.05-.12-.12.16-.27.15-.41.24.35.18.32.49.48.73-.43.08-.37-.3-.74-.37.3.11.15.5.43.52-.29.09-.16.11-.5.08.45.2,0,.19.26.42-.31.16-.46-.08-.4.22C190.57,166,190.49,165.7,190.49,165.7Zm-.79,6.59h0v-.14S189.7,172.22,189.7,172.29Zm-.06.56a1.5,1.5,0,0,0,0-.24c.1,0,.19,0,.18.08S189.73,172.77,189.64,172.85Zm2.07-.87c0,.09,0,.11-.09.11a.4.4,0,0,0,0-.15h0Z"/><path class="cls-9" d="M191.37,171.78s0,0,0,0l-.07,0,.08.05Z"/><path class="cls-9" d="M222.7,175.27h0l.05,0Z"/><polygon class="cls-9" points="190.31 180.7 190.37 180.66 190.29 180.65 190.31 180.7"/><path class="cls-9" d="M223.88,172.39l.07,0S223.91,172.37,223.88,172.39Z"/><path class="cls-9" d="M223.87,171.06l.09-.19A1.43,1.43,0,0,0,223.87,171.06Z"/><path class="cls-9" d="M223.88,170h0Z"/><path class="cls-9" d="M218.91,185.08l0,0C218.83,185.22,218.87,185.16,218.91,185.08Z"/><path class="cls-9" d="M221.76,181a.79.79,0,0,1,0,.2C221.86,181.11,221.9,181.06,221.76,181Z"/><polygon class="cls-9" points="213.75 187.38 213.75 187.38 213.72 187.39 213.75 187.38"/><path class="cls-9" d="M221.68,181.37a.18.18,0,0,0,.12-.19C221.75,181.23,221.68,181.29,221.68,181.37Z"/><path class="cls-9" d="M222.49,165.73l0,0h0Z"/><path class="cls-9" d="M222.43,165.69l-.06,0S222.4,165.7,222.43,165.69Z"/><path class="cls-9" d="M222.25,165.6l.12.06S222.33,165.58,222.25,165.6Z"/><path class="cls-9" d="M223,167l.1,0Z"/><path class="cls-9" d="M223.19,167.41c0-.1.11-.32,0-.43l-.08,0C223.27,167,223,167.38,223.19,167.41Z"/><path class="cls-9" d="M222.49,169.37V169c-.09.09-.21.19-.28.06C222,169.56,222.43,169,222.49,169.37Z"/><path class="cls-9" d="M222.53,170.36c-.08-.16-.16,0-.22,0C222.42,170.48,222.45,170.5,222.53,170.36Z"/><path class="cls-9" d="M222,177.42l-.24-.09C221.77,177.47,221.86,177.36,222,177.42Z"/><polygon class="cls-9" points="222.84 179.17 223.04 179.09 222.84 178.95 222.84 179.17"/><polygon class="cls-9" points="220.84 179.27 220.83 179.21 220.83 179.44 220.84 179.27"/><path class="cls-9" d="M212,185.16l.08.31C212.11,185.4,212.09,185.05,212,185.16Z"/><path class="cls-9" d="M206.71,185.72c-.05-.16-.2-.26-.3-.11C206.53,185.63,206.65,185.76,206.71,185.72Z"/><polygon class="cls-9" points="193.2 180.7 193.34 180.72 193.17 180.62 193.2 180.7"/></g></g></svg>