<svg xmlns="http://www.w3.org/2000/svg" width="271.27" height="239.79" viewBox="0 0 271.27 239.79">
  <defs>
    <style>
      .cls-1 {
        fill: #fff;
      }

      .cls-2 {
        fill: none;
        stroke: #fff;
        stroke-miterlimit: 10;
      }
    </style>
  </defs>
  <title>diseño</title>
  <g id="Capa_2" data-name="Capa 2">
    <g id="COLORS">
      <g>
        <g>
          <path class="cls-1" d="M1.49,2.41,268.56,97.27,55.31,191.45,1.49,2.41m87,144.91,1-.36,121.23-42.39,2.94-1-3-.88L67.61,60.76l-1.69-.5L66.36,62l21.84,84.3.27,1M0,.82l54.66,192L271.27,97.16,0,.82ZM89.17,146,67.33,61.72l143.07,41.9L89.17,146Z"/>
          <path class="cls-1" d="M1.49,2.41,268.56,97.27,55.31,191.45,1.49,2.41m87,144.91,1-.36,121.23-42.39,2.94-1-3-.88L67.61,60.76l-1.69-.5L66.36,62l21.84,84.3.27,1M0,.82l54.66,192L271.27,97.16,0,.82ZM89.17,146,67.33,61.72l143.07,41.9L89.17,146Z"/>
          <line class="cls-2" x1="258.28" y1="239.29" x2="21.18" y2="239.29"/>
          <polyline class="cls-2" points="195.53 232.12 192.69 69.15 140.07 0.82 88.14 68.47 88.14 232.12"/>
          <path class="cls-1" d="M140.08,2.77,191,66.86,160.1,75H124.82L89.89,66.17l50.19-63.4m0-1.61L88.14,66.76,124.7,76h35.53l32.46-8.54L140.07,1.16Z"/>
          <polyline class="cls-2" points="110.01 232.12 110.01 92.38 124.7 77.69 160.23 77.69 174.58 92.04 174.58 232.12"/>
          <polyline class="cls-2" points="160.23 232.12 160.23 77.69 124.7 77.69 124.7 232.12"/>
          <path class="cls-1" d="M134.63,39.11V56.94c-2,.27-4.78,1.38-4.78,4.35,0,4.45,1,7.15,14.67,7.15,6.29,0,9.31-.57,10.78-2,1.18-1.2,1.17-2.78,1.15-4.46v-.64c0-3.43-2.74-4.71-4.78-5V39.11l17.45,17.46a12.54,12.54,0,0,0-7.53,5c-3.58,5.14-3,12.26-2.55,15.09H126.3a11,11,0,0,0,.38-8.18c-2-5.62-8.11-9.22-10.85-10.6l18.8-18.8m16-2.42v20.5s4.78,0,4.78,4.1.68,6.15-10.93,6.15c-13.67,0-13.67-2.73-13.67-6.15s4.78-3.41,4.78-3.41V36.69L114.11,58.22s17.42,7.17,10.59,19.47h35.53s-4.1-18.45,10.93-20.5l-20.49-20.5Z"/>
        </g>
        <path class="cls-1" d="M140.08,2.45l14.12,18.1a25.58,25.58,0,0,1-13.9,4,32.64,32.64,0,0,1-14.55-3.66l14.33-18.4m0-1.63L124.22,21.18a33.92,33.92,0,0,0,16.08,4.33,25.65,25.65,0,0,0,15.33-4.75L140.07.82Z"/>
      </g>
    </g>
  </g>
</svg>
