<svg xmlns="http://www.w3.org/2000/svg" width="288.08" height="294.34" viewBox="0 0 288.08 294.34">
  <defs>
    <style>
      .cls-1, .cls-3, .cls-4 {
        fill: none;
      }

      .cls-1 {
        stroke: #fafbfc;
      }

      .cls-1, .cls-2, .cls-3 {
        stroke-miterlimit: 10;
      }

      .cls-1, .cls-2, .cls-3, .cls-4 {
        stroke-width: 3px;
      }

      .cls-2 {
        fill: #fafbfc;
      }

      .cls-2, .cls-3, .cls-4 {
        stroke: #fff;
      }

      .cls-4 {
        stroke-linecap: round;
        stroke-linejoin: round;
      }
    </style>
  </defs>
  <title>marketing</title>
  <g id="Capa_2" data-name="Capa 2">
    <g id="COLORS">
      <g>
        <g>
          <path class="cls-1" d="M74.83,131.14,58.25,247.57a22.05,22.05,0,0,1-21.83,18.95h-.54V132l12.91-.83Z"/>
          <g>
            <path class="cls-2" d="M152.25,99.6a27.64,27.64,0,0,1-27.61,27.64V72A27.64,27.64,0,0,1,152.25,99.6Z"/>
            <path class="cls-3" d="M109.6,40.68V158.52a27.38,27.38,0,0,0-27.36-27.38H33a31.54,31.54,0,1,1,0-63.08h49.2A27.37,27.37,0,0,0,109.6,40.68Z"/>
            <line class="cls-3" x1="52.5" y1="68.06" x2="52.5" y2="129.43"/>
            <path class="cls-3" d="M124.64,33.43V163.7a7.52,7.52,0,0,1-15,0V33.43a7.52,7.52,0,0,1,15,0Z"/>
          </g>
        </g>
        <g>
          <g>
            <line class="cls-4" x1="215.88" y1="19.86" x2="239.99" y2="1.5"/>
            <line class="cls-4" x1="159.39" y1="62.88" x2="194.58" y2="36.08"/>
          </g>
          <g>
            <line class="cls-4" x1="193.59" y1="72.08" x2="166.56" y2="85.77"/>
            <line class="cls-4" x1="256.94" y1="39.98" x2="217.48" y2="59.97"/>
          </g>
          <g>
            <line class="cls-4" x1="215.88" y1="176.98" x2="239.99" y2="195.34"/>
            <line class="cls-4" x1="159.39" y1="133.97" x2="194.58" y2="160.76"/>
          </g>
          <g>
            <line class="cls-4" x1="193.59" y1="124.77" x2="166.56" y2="111.07"/>
            <line class="cls-4" x1="256.94" y1="156.86" x2="217.48" y2="136.87"/>
          </g>
          <line class="cls-4" x1="183.79" y1="98.56" x2="200.06" y2="98.56"/>
          <line class="cls-4" x1="217.48" y1="98.56" x2="251.83" y2="98.56"/>
          <line class="cls-4" x1="272.53" y1="98.74" x2="286.58" y2="98.74"/>
        </g>
      </g>
      <path class="cls-4" d="M172.09,204.93a29.21,29.21,0,0,0-29.19,29.22c0,17.54,29.19,58.69,29.19,58.69s29.21-41.6,29.21-58.69A29.21,29.21,0,0,0,172.09,204.93Zm0,36.86A10.95,10.95,0,1,1,183,230.85,10.94,10.94,0,0,1,172.09,241.79Z"/>
    </g>
  </g>
</svg>
